if (_typeface_js && _typeface_js.loadFace) _typeface_js.loadFace({"glyphs":{"S":{"x_min":31,"x_max":685.328125,"ha":721,"o":"m 66 29 l 77 50 q 82 46 79 47 q 89 44 85 46 q 95 42 92 43 q 100 42 97 42 q 112 39 107 40 q 122 39 117 39 q 179 47 147 39 q 246 72 210 55 q 325 112 283 87 q 414 168 367 136 q 226 216 301 190 q 110 271 150 242 q 51 344 71 301 q 31 442 31 386 q 45 531 31 487 q 86 617 60 575 q 154 699 114 660 q 247 777 194 739 q 327 827 286 804 q 411 866 368 849 q 490 889 454 881 q 551 898 525 898 q 570 889 563 898 q 582 864 578 881 q 587 847 585 854 q 590 836 589 841 q 606 806 597 820 q 627 782 615 793 q 652 764 638 772 q 685 750 667 756 l 646 522 l 618 518 l 595 635 q 464 592 524 617 q 354 532 404 567 q 280 467 304 497 q 256 410 256 436 q 273 376 256 392 q 325 344 290 360 q 330 342 328 343 q 333 342 332 342 q 394 317 361 329 q 467 292 428 304 q 529 271 506 279 q 560 258 551 262 q 583 237 571 253 q 604 198 595 222 q 621 156 615 175 q 627 122 627 137 q 624 105 627 114 q 617 90 621 97 q 604 76 611 83 q 585 60 596 68 q 537 33 568 48 q 460 0 506 18 l 444 -2 q 378 -29 408 -17 q 322 -47 347 -40 q 280 -57 299 -54 q 249 -61 261 -61 q 206 -55 228 -61 q 160 -37 183 -49 q 113 -9 138 -24 q 66 27 89 5 l 66 29 "},"¦":{"x_min":278,"x_max":416.890625,"ha":695,"o":"m 278 276 l 416 276 l 416 -236 l 278 -236 l 278 276 l 278 276 m 278 971 l 416 971 l 416 457 l 278 457 l 278 971 l 278 971 "},"/":{"x_min":-32,"x_max":418,"ha":385,"o":"m 36 -127 l -4 -110 l -29 -56 q -30 -53 -29 -55 q -31 -48 -31 -51 q -32 -43 -32 -47 q -32 -33 -32 -40 q -2 39 -32 -31 q 90 258 27 111 q 215 557 152 404 q 338 871 277 711 q 352 895 345 885 q 365 914 358 906 q 377 926 372 922 q 383 931 381 931 q 385 931 384 931 q 387 929 386 931 q 390 926 388 928 q 393 922 391 925 l 411 868 q 414 856 413 861 q 416 849 415 851 q 418 842 418 844 q 418 836 418 839 q 413 805 418 826 q 399 751 409 785 q 377 685 390 719 q 349 615 365 651 l 36 -127 l 36 -127 "},"y":{"x_min":-4,"x_max":465,"ha":514,"o":"m 139 53 l 92 74 l 92 92 l 40 138 q 30 151 34 141 q 23 175 26 161 q 21 212 21 191 q 21 263 21 234 q 21 339 21 307 q 25 393 21 371 q 35 428 29 415 q 48 442 41 440 l 127 468 l 133 482 q 154 484 144 484 q 175 486 165 484 q 195 488 186 488 q 213 488 204 488 l 230 490 q 217 414 223 449 q 208 349 212 379 q 202 293 202 318 q 202 246 202 267 q 202 227 202 239 q 202 195 202 214 q 202 185 202 189 q 204 177 202 181 q 204 170 204 172 q 204 164 204 167 q 282 301 245 232 q 351 438 319 370 q 401 542 383 507 q 423 577 419 577 q 447 572 438 577 q 460 560 456 568 q 465 525 465 551 q 465 453 465 499 q 463 424 465 440 q 458 389 461 409 q 447 348 453 371 q 433 297 441 325 q 399 200 416 246 q 363 109 381 153 q 333 36 347 66 q 308 -10 319 6 q 290 -36 302 -21 q 260 -70 278 -50 q 223 -108 242 -89 q 180 -147 204 -128 q 132 -191 155 -171 q 89 -225 109 -211 q 55 -249 68 -240 q 37 -258 43 -258 l 27 -258 l 2 -255 q 0 -252 1 -253 q -1 -252 0 -252 q -3 -249 -2 -250 q -4 -247 -4 -249 q 5 -211 -4 -238 q 34 -138 14 -183 q 82 -45 55 -92 q 139 52 108 2 l 139 53 "},"Á":{"x_min":-25,"x_max":735,"ha":739,"o":"m 206 382 l 396 416 q 396 498 396 456 q 389 580 396 540 q 382 661 389 620 q 369 744 376 702 q 323 650 347 702 q 272 534 299 597 q 229 433 246 472 q 206 381 212 395 l 206 382 m 343 829 l 336 873 q 335 875 336 873 q 335 877 335 876 q 334 879 335 877 q 333 882 333 880 q 333 886 333 884 q 333 889 333 887 q 347 897 333 891 q 392 908 362 903 q 450 918 421 915 q 509 922 479 922 q 517 921 514 922 q 522 917 521 920 q 525 915 523 916 q 528 912 526 913 q 529 908 528 910 q 532 904 530 906 l 576 904 q 579 904 578 904 q 582 904 581 904 q 585 903 583 904 q 587 903 586 903 q 592 900 590 901 q 594 897 593 900 l 607 880 q 618 854 612 873 q 623 800 623 834 q 623 723 623 765 q 623 629 623 680 q 623 592 623 615 q 621 537 623 569 q 621 483 621 506 q 618 442 621 459 l 666 450 l 674 450 q 677 447 676 448 q 678 447 678 447 q 682 446 681 447 q 683 444 683 445 q 685 440 684 442 q 686 431 686 437 q 682 374 686 401 q 672 327 679 348 q 657 296 665 306 q 637 286 648 286 l 634 287 q 622 268 629 276 q 608 253 615 260 q 596 242 603 248 q 581 228 589 235 q 580 223 581 227 q 578 212 579 219 q 567 143 572 173 q 557 93 561 113 l 439 24 l 430 -29 l 389 -49 q 388 -49 389 -49 q 388 -50 388 -49 q 385 -50 386 -50 q 385 -50 385 -50 q 384 -50 385 -50 q 382 -52 383 -50 q 381 -52 382 -52 q 379 -52 381 -52 q 377 -52 378 -52 q 377 -50 377 -52 q 377 -50 377 -50 q 377 -50 377 -50 q 375 -50 375 -50 q 375 -50 375 -50 q 376 -46 375 -48 q 378 -39 377 -43 q 389 40 385 -2 q 393 132 393 82 q 393 161 393 149 q 392 180 393 173 q 392 193 392 187 q 390 201 392 199 q 324 201 356 201 q 259 201 291 201 q 200 201 229 201 q 143 201 171 201 q 111 121 126 162 q 84 39 97 81 q 61 -20 70 0 q 47 -41 52 -41 l 44 -41 l 29 -80 q 24 -80 27 -80 q 15 -80 20 -80 q 10 -80 12 -80 q 6 -81 8 -80 q 2 -81 4 -81 q 0 -81 1 -81 q -3 -81 -1 -81 q -8 -80 -5 -81 q -12 -79 -9 -80 q -16 -78 -15 -78 q -19 -77 -18 -78 q -21 -75 -21 -76 q -24 -73 -23 -73 q -25 -69 -25 -72 q -20 -40 -25 -62 q -5 17 -15 -18 q 13 101 1 56 q 40 199 26 146 q 23 221 30 210 q 11 238 16 231 q 4 254 6 246 q 0 269 1 262 q -8 288 -4 279 q -15 306 -12 297 q -20 326 -18 317 q -22 342 -22 334 q -20 348 -22 345 q -15 352 -18 350 q -9 354 -14 353 q 0 355 -4 355 l 83 366 q 117 483 98 421 q 158 608 136 544 q 193 709 180 673 q 207 751 206 744 l 218 759 q 301 806 270 789 q 343 827 333 823 l 343 829 m 286 988 l 298 1016 l 333 1030 l 339 1054 q 382 1066 361 1059 q 425 1083 404 1073 q 468 1107 446 1094 q 514 1137 490 1120 q 572 1173 543 1156 q 629 1201 601 1190 q 680 1218 657 1212 q 721 1225 703 1225 q 727 1223 723 1225 q 732 1219 730 1222 q 734 1212 733 1216 q 735 1202 735 1208 q 733 1191 735 1197 q 729 1180 732 1186 q 721 1169 726 1174 q 710 1158 716 1163 q 710 1155 710 1156 q 711 1152 710 1154 q 711 1149 711 1151 q 711 1147 711 1148 q 712 1144 711 1145 q 713 1141 713 1143 q 713 1140 713 1141 q 714 1138 714 1138 q 684 1099 714 1120 q 593 1056 654 1079 q 457 1017 533 1034 q 286 987 380 1001 l 286 988 "},"g":{"x_min":7,"x_max":472,"ha":521,"o":"m 323 -17 q 296 -33 311 -17 q 265 -83 281 -50 q 240 -143 248 -115 q 232 -193 232 -171 q 233 -199 233 -197 q 233 -203 233 -201 q 234 -203 233 -203 q 235 -204 235 -204 q 235 -206 235 -206 q 236 -206 236 -206 q 252 -191 243 -206 q 276 -147 262 -176 q 303 -85 291 -118 q 323 -17 315 -53 l 323 -17 m 14 118 q 13 124 14 120 q 13 130 13 127 q 10 143 11 137 q 10 155 10 149 q 7 172 8 163 q 7 187 7 180 q 13 250 7 219 q 31 309 19 281 q 64 365 44 337 q 111 422 84 394 q 156 465 133 445 q 205 504 180 485 q 243 532 229 523 q 262 542 258 542 q 262 542 262 542 q 265 542 263 542 q 265 540 265 540 q 266 540 266 540 q 267 540 266 540 q 269 540 267 540 q 271 539 270 539 q 273 539 272 539 l 303 527 q 308 524 305 525 q 311 522 310 523 q 313 518 312 520 q 314 513 314 516 q 314 513 314 513 q 314 511 314 512 q 313 510 313 511 q 313 508 313 509 q 313 506 313 506 q 313 502 313 505 q 349 457 332 480 q 380 413 366 434 q 400 378 394 392 q 407 358 407 364 q 398 339 407 352 q 373 307 390 327 q 347 279 357 289 q 334 269 337 269 q 329 273 332 269 q 325 287 327 277 q 319 302 322 295 q 313 314 315 309 q 290 293 301 305 q 269 270 279 281 q 260 258 265 264 q 251 246 255 252 q 243 235 247 241 q 235 223 239 228 q 335 197 291 213 q 409 156 379 180 q 456 106 441 133 q 472 48 472 79 q 465 6 472 30 q 442 -47 458 -17 q 409 -107 429 -78 q 365 -164 388 -136 q 295 -242 323 -211 q 252 -287 267 -273 q 228 -310 239 -303 q 211 -317 218 -317 q 183 -310 198 -317 q 149 -293 169 -304 q 123 -270 131 -282 q 115 -247 115 -258 q 122 -195 115 -223 q 145 -132 130 -167 q 181 -69 160 -98 q 226 -11 201 -39 q 238 -3 230 -7 q 258 2 247 0 q 282 7 270 5 q 305 9 294 9 q 310 9 308 9 q 315 9 312 9 q 318 9 316 9 q 322 9 319 9 q 326 8 323 8 q 332 8 329 8 q 283 43 309 27 q 226 69 258 59 q 160 84 195 79 q 85 89 124 89 l 40 89 l 14 118 l 14 118 "},"²":{"x_min":27.890625,"x_max":410,"ha":463,"o":"m 27 705 l 82 863 q 94 863 87 863 q 108 865 101 864 q 116 865 112 865 q 125 867 120 865 q 134 867 129 867 q 144 867 139 867 q 200 864 172 867 q 255 854 229 861 q 305 842 282 849 q 346 825 328 835 q 375 805 362 815 q 396 782 387 794 q 406 754 403 769 q 410 719 410 739 q 410 698 410 710 q 407 676 410 687 q 404 655 405 665 q 400 633 403 644 q 366 603 384 618 q 329 572 348 587 q 287 540 309 556 q 241 510 265 525 q 170 460 194 479 q 145 432 145 440 q 159 417 145 425 q 197 399 172 408 q 251 385 222 390 q 311 380 280 380 q 320 380 315 380 q 328 382 325 380 q 335 382 332 382 q 340 382 339 382 q 346 382 343 382 q 350 384 348 382 q 355 384 353 384 q 359 384 358 384 q 363 383 361 384 q 366 381 365 382 q 370 379 368 381 q 373 376 372 378 q 380 369 376 374 q 387 358 383 365 q 358 348 375 353 q 321 340 341 343 q 277 335 300 335 q 232 335 255 335 q 153 340 189 335 q 91 360 118 346 q 52 390 65 372 q 39 430 39 408 q 52 473 39 448 q 93 530 66 498 q 161 604 120 564 q 257 691 201 644 q 218 707 237 700 q 183 719 200 714 q 150 725 165 723 q 120 728 134 728 q 99 726 109 728 q 79 721 89 725 q 61 712 69 716 q 47 700 54 707 l 27 705 l 27 705 "},"ë":{"x_min":-12,"x_max":494,"ha":476,"o":"m 185 238 q 222 284 204 262 q 253 330 239 307 q 280 369 269 350 q 299 401 291 387 q 259 389 277 401 q 227 357 242 378 q 202 307 213 337 q 185 237 192 277 l 185 238 m -12 120 l -12 138 q -7 209 -12 173 q 4 280 -2 245 q 27 348 14 316 q 57 406 40 380 q 87 450 72 430 q 117 485 103 470 q 143 510 132 502 q 160 519 154 519 q 174 516 164 519 q 200 512 185 514 q 235 505 217 509 q 271 494 253 500 q 310 483 292 488 q 344 471 328 478 q 368 461 359 466 q 383 453 378 456 q 388 447 385 452 q 394 431 390 442 q 404 410 399 420 q 414 392 409 401 q 351 315 385 357 q 278 224 317 273 q 218 150 239 177 q 192 120 197 124 l 218 48 q 261 60 241 53 q 302 74 281 67 q 322 81 312 77 q 342 88 332 85 q 385 105 371 99 q 401 112 400 112 q 405 110 404 112 q 407 106 406 109 q 409 98 409 103 q 409 85 409 92 q 409 73 409 80 q 408 59 409 66 q 407 46 408 53 q 404 32 406 39 q 358 -3 378 10 q 324 -25 339 -17 q 295 -37 308 -33 q 269 -42 282 -42 q 201 -30 237 -42 q 121 2 164 -19 q 44 55 78 25 q -10 118 11 84 l -12 120 m 406 651 q 406 650 406 650 q 406 650 406 650 q 404 650 404 650 q 404 650 404 650 q 401 647 403 648 q 397 646 399 646 q 387 655 392 646 q 378 680 382 664 q 372 715 374 697 q 370 752 370 734 q 370 752 370 752 q 370 754 370 752 q 369 754 369 754 q 369 755 369 755 q 369 760 369 758 q 369 763 369 762 q 369 766 369 765 q 369 769 369 767 q 369 772 369 770 q 370 774 370 773 q 373 781 371 777 q 376 788 375 784 q 388 789 383 789 q 395 790 393 790 q 401 790 397 790 q 406 790 404 790 q 425 790 415 790 q 445 787 435 790 q 465 782 454 785 q 488 773 476 778 q 488 770 488 772 q 488 769 488 769 q 488 766 488 767 q 489 763 489 765 q 491 758 490 760 q 492 755 492 756 q 492 747 492 754 q 492 729 492 740 q 494 709 494 719 q 494 692 494 699 q 491 663 494 676 q 481 644 488 651 q 463 631 475 637 q 435 622 451 626 q 427 626 431 624 q 420 633 422 629 q 412 640 415 636 q 406 650 408 644 l 406 651 m 63 738 l 76 765 l 86 767 q 90 780 87 773 q 96 794 93 787 q 105 809 100 801 q 115 826 110 817 q 129 831 122 829 q 142 834 136 833 q 155 836 148 835 q 168 837 161 837 q 169 837 168 837 q 171 837 169 837 q 173 836 172 836 q 175 836 173 836 q 180 836 178 836 q 183 836 182 836 q 203 817 194 826 q 221 796 213 808 q 238 775 229 787 q 253 751 246 763 q 251 732 251 742 q 251 709 251 722 q 247 675 251 688 q 239 658 243 662 l 242 650 q 236 637 239 643 q 228 629 232 631 q 219 623 224 624 q 208 622 214 622 q 205 622 207 622 q 200 623 203 622 q 195 626 199 624 q 187 630 192 627 l 161 651 q 157 647 160 648 q 154 646 155 646 q 152 644 153 644 q 151 644 151 644 q 148 643 150 643 q 146 641 147 643 q 141 639 143 640 q 136 639 139 639 q 126 645 132 639 q 111 661 119 651 q 91 691 103 672 q 63 737 79 711 l 63 738 "},"ƒ":{"x_min":-14.109375,"x_max":633,"ha":700,"o":"m 589 675 l 537 751 l 491 758 q 471 726 482 747 q 450 671 461 704 q 430 592 440 636 q 412 491 420 548 l 470 491 q 484 491 477 491 q 498 492 491 491 q 500 492 500 492 q 501 492 501 492 q 521 492 513 492 q 533 491 529 492 q 537 487 535 489 q 541 482 539 485 q 541 481 541 482 q 541 479 541 481 q 540 477 540 478 q 540 475 540 476 q 539 471 539 474 q 539 467 539 469 l 519 461 l 539 451 q 532 416 536 429 q 525 395 529 402 q 511 386 519 390 q 493 382 504 382 q 488 382 491 382 q 479 385 486 382 q 436 385 456 385 q 397 385 416 385 q 386 329 393 362 q 373 254 380 295 q 327 8 347 100 q 294 -113 308 -83 q 259 -177 280 -148 q 210 -227 238 -205 q 158 -260 184 -250 q 108 -271 133 -271 q 94 -270 102 -271 q 77 -268 87 -269 q 58 -264 69 -266 q 37 -258 48 -261 l 10 -220 q 6 -213 9 -216 q 0 -208 2 -211 q -5 -202 -1 -205 q -14 -195 -8 -198 l -3 -169 q 24 -175 12 -172 q 42 -179 35 -177 q 58 -182 51 -182 q 70 -182 65 -182 q 131 -103 103 -182 q 181 130 159 -25 q 202 274 192 209 q 220 390 212 338 l 173 390 q 158 399 166 390 q 141 426 151 408 q 126 458 131 446 q 122 476 122 471 q 123 481 122 479 q 126 485 124 483 q 130 487 127 486 q 138 488 133 488 l 144 489 l 241 489 q 284 646 261 575 q 336 771 308 717 q 391 852 365 825 q 441 879 418 879 q 476 875 457 879 q 520 864 495 871 q 567 846 545 855 q 605 828 588 837 q 617 815 612 822 q 627 797 623 808 q 631 774 629 787 q 633 744 633 761 q 633 726 633 735 q 631 710 633 717 q 628 695 630 703 q 624 680 627 687 l 589 675 l 589 675 "},"Î":{"x_min":57.828125,"x_max":461,"ha":417,"o":"m 57 600 q 71 633 65 615 q 85 667 77 650 q 100 701 92 683 q 116 735 107 718 q 151 801 132 769 q 188 862 170 832 l 190 868 q 214 890 201 882 q 242 899 227 899 l 274 899 q 290 899 284 899 q 301 896 297 899 q 305 893 304 894 q 309 890 306 892 q 313 887 310 889 q 316 883 315 886 q 347 832 333 858 q 374 776 362 805 q 393 727 387 747 q 400 696 400 707 q 381 629 400 692 q 327 447 363 567 q 292 327 309 387 q 259 207 274 267 q 229 85 244 146 q 201 -33 215 25 l 192 -33 q 144 -20 167 -33 q 102 17 121 -8 q 72 75 82 43 q 62 144 62 107 q 66 194 62 164 q 75 267 70 225 q 92 355 82 308 q 114 458 102 403 l 57 600 l 57 600 m 69 976 q 66 979 67 977 q 66 983 66 980 q 65 984 66 983 q 65 986 65 986 q 65 991 65 989 q 65 994 65 993 q 65 997 65 996 q 65 1000 65 998 q 65 1001 65 1000 q 65 1004 65 1003 q 65 1006 65 1005 q 66 1008 65 1007 q 66 1010 66 1009 q 66 1011 66 1011 l 82 1023 l 89 1053 q 107 1078 92 1062 q 152 1117 123 1094 q 179 1137 167 1128 q 201 1154 191 1146 q 221 1171 210 1161 q 247 1192 233 1181 q 291 1223 270 1213 q 330 1234 312 1234 q 356 1217 340 1234 q 395 1168 373 1200 q 424 1128 411 1146 q 449 1094 438 1110 l 439 1046 l 455 1023 q 455 1021 455 1022 q 456 1019 456 1021 q 457 1017 456 1018 q 458 1015 458 1016 q 458 1012 458 1014 q 459 1009 459 1011 q 461 1007 461 1008 q 461 1004 461 1005 q 458 991 461 997 q 452 980 456 986 q 445 973 449 975 q 437 971 441 971 l 304 1082 q 229 1048 263 1064 q 167 1021 195 1033 q 115 997 139 1008 q 69 975 91 986 l 69 976 "},"e":{"x_min":-12,"x_max":414.5625,"ha":476,"o":"m 185 238 q 221 284 204 262 q 252 330 239 307 q 279 369 268 350 q 298 401 290 387 q 259 389 276 401 q 226 357 241 378 q 202 307 212 337 q 185 237 191 277 l 185 238 m -12 120 l -12 138 q -7 209 -12 173 q 4 280 -2 245 q 27 348 14 316 q 57 406 40 380 q 87 450 72 430 q 117 485 103 470 q 143 510 132 502 q 160 519 154 519 q 174 516 164 519 q 200 512 185 514 q 234 505 216 509 q 271 494 252 500 q 309 483 291 488 q 343 471 327 478 q 368 461 358 466 q 383 453 377 456 q 387 447 384 452 q 394 431 390 442 q 403 410 398 420 q 414 392 409 401 q 350 315 384 357 q 277 224 316 273 q 218 150 239 177 q 191 120 197 124 l 218 48 q 260 60 240 53 q 301 74 280 67 q 321 81 311 77 q 341 88 332 85 q 385 105 370 99 q 401 112 400 112 q 405 110 404 112 q 407 106 406 109 q 409 98 409 103 q 409 85 409 92 q 409 73 409 80 q 407 59 409 66 q 406 46 407 53 q 404 32 405 39 q 358 -3 377 10 q 323 -25 339 -17 q 295 -37 308 -33 q 269 -42 282 -42 q 200 -30 237 -42 q 121 2 164 -19 q 44 55 78 25 q -10 118 11 84 l -12 120 "},"Ã":{"x_min":-25,"x_max":718,"ha":739,"o":"m 206 382 l 396 416 q 396 498 396 456 q 389 580 396 540 q 382 661 389 620 q 369 744 376 702 q 323 650 347 702 q 272 534 300 597 q 229 433 246 472 q 206 381 212 395 l 206 382 m 343 829 l 336 873 q 335 875 336 873 q 335 877 335 876 q 334 879 335 877 q 333 882 333 880 q 333 886 333 884 q 333 889 333 887 q 347 897 333 891 q 392 908 362 903 q 450 918 421 915 q 509 922 479 922 q 517 921 514 922 q 522 917 521 920 q 525 915 523 916 q 528 912 526 913 q 529 908 528 910 q 532 904 530 906 l 576 904 q 579 904 578 904 q 582 904 581 904 q 585 903 583 904 q 587 903 586 903 q 592 900 590 901 q 594 897 593 900 l 607 880 q 618 854 612 873 q 623 800 623 834 q 623 723 623 765 q 623 629 623 680 q 623 592 623 615 q 621 537 623 569 q 621 483 621 506 q 618 442 621 459 l 666 450 l 674 450 q 677 447 676 448 q 678 447 678 447 q 682 446 681 447 q 683 444 683 445 q 685 440 684 442 q 686 431 686 437 q 682 374 686 401 q 672 327 679 348 q 657 296 665 306 q 637 286 648 286 l 634 287 q 622 268 629 276 q 608 253 615 260 q 596 242 603 248 q 581 228 589 235 q 580 223 581 227 q 578 212 579 219 q 567 143 572 173 q 557 93 561 113 l 439 24 l 430 -29 l 389 -49 q 388 -49 389 -49 q 388 -50 388 -49 q 385 -50 386 -50 q 385 -50 385 -50 q 384 -50 385 -50 q 382 -52 383 -50 q 381 -52 382 -52 q 379 -52 381 -52 q 377 -52 378 -52 q 377 -50 377 -52 q 377 -50 377 -50 q 377 -50 377 -50 q 375 -50 375 -50 q 375 -50 375 -50 q 376 -46 375 -48 q 378 -39 377 -43 q 389 40 385 -2 q 393 132 393 82 q 393 161 393 149 q 392 180 393 173 q 392 193 392 187 q 390 201 392 199 q 324 201 356 201 q 259 201 291 201 q 200 201 229 201 q 143 201 171 201 q 111 121 126 162 q 84 39 97 81 q 61 -20 70 0 q 47 -41 52 -41 l 44 -41 l 29 -80 q 24 -80 27 -80 q 15 -80 20 -80 q 10 -80 12 -80 q 6 -81 8 -80 q 2 -81 4 -81 q 0 -81 1 -81 q -3 -81 -1 -81 q -8 -80 -5 -81 q -12 -79 -9 -80 q -16 -78 -15 -78 q -19 -77 -18 -78 q -21 -75 -21 -76 q -24 -73 -23 -73 q -25 -69 -25 -72 q -20 -40 -25 -62 q -5 17 -15 -18 q 13 101 1 56 q 40 199 26 146 q 23 221 30 210 q 11 238 16 231 q 4 254 6 246 q 0 269 1 262 q -8 288 -4 279 q -15 306 -12 297 q -20 326 -18 317 q -22 342 -22 334 q -20 348 -22 345 q -15 352 -18 350 q -9 354 -14 353 q 0 355 -4 355 l 83 366 q 117 483 98 421 q 158 608 136 544 q 193 709 180 673 q 207 751 206 744 l 218 759 q 301 806 270 789 q 343 827 333 823 l 343 829 m 718 1191 q 694 1106 708 1142 q 663 1046 680 1069 q 624 1010 645 1022 q 576 999 602 999 q 546 1008 566 999 q 496 1037 526 1018 q 441 1073 466 1057 q 396 1098 416 1088 q 372 1077 384 1088 q 349 1054 361 1066 q 329 1028 340 1041 q 309 1000 319 1015 l 272 1012 l 277 1026 l 252 1036 q 275 1075 262 1054 q 306 1116 288 1095 q 334 1149 324 1137 q 345 1166 344 1162 q 368 1176 356 1172 q 391 1183 379 1180 q 414 1187 404 1185 q 433 1190 425 1190 q 471 1180 448 1190 q 525 1151 494 1170 q 581 1118 557 1133 q 623 1097 605 1104 q 635 1113 629 1104 q 648 1136 641 1123 q 668 1165 659 1155 q 686 1176 677 1174 q 693 1183 690 1180 q 700 1187 697 1185 q 707 1189 702 1188 q 718 1190 712 1190 l 718 1191 "},"J":{"x_min":-3,"x_max":558.921875,"ha":577,"o":"m 23 94 l -3 255 l -3 259 q -2 262 -2 260 q 0 265 -2 263 q 0 265 0 265 q 0 266 0 266 q 0 265 0 266 q 0 265 0 265 q 2 265 1 265 q 4 265 2 265 q 6 264 5 265 q 7 262 7 263 l 165 156 l 231 145 q 247 253 240 196 q 261 369 255 309 q 275 494 275 430 q 275 627 275 559 q 207 669 241 650 q 137 702 173 688 q 78 725 98 716 q 56 739 59 734 l 40 778 l 39 784 q 39 783 39 782 q 40 785 39 784 q 40 786 40 785 q 40 787 40 787 q 41 787 41 787 q 41 787 41 787 l 508 900 l 519 902 q 521 901 520 901 q 523 900 521 901 q 525 898 524 900 q 527 894 526 897 l 555 865 q 558 858 558 862 q 558 852 559 855 q 558 842 558 849 q 558 823 558 834 l 558 798 q 558 745 558 770 q 558 698 558 720 q 558 655 558 675 q 553 617 558 635 l 523 606 q 476 387 505 491 q 412 194 448 284 q 333 30 376 103 q 238 -99 290 -42 q 178 -53 208 -76 q 121 -5 149 -29 q 70 41 95 16 q 23 92 45 66 l 23 94 "},"»":{"x_min":26.671875,"x_max":594,"ha":673,"o":"m 342 437 l 394 479 l 391 502 l 437 544 q 479 461 457 508 q 526 352 501 414 q 568 252 551 293 q 594 193 585 212 q 571 125 594 155 q 509 69 549 94 q 502 64 505 66 q 495 59 498 62 q 446 31 470 44 q 398 6 422 18 q 361 -6 376 -1 q 340 -11 347 -11 q 333 -10 336 -11 q 327 -6 330 -9 q 325 -4 326 -5 q 324 -2 324 -2 q 324 0 324 -1 q 324 1 324 0 q 329 20 324 8 q 347 50 334 31 q 355 61 351 56 q 360 70 358 66 q 367 84 362 76 q 378 101 372 91 q 420 181 405 150 q 435 226 435 212 q 423 270 435 241 q 389 343 412 300 q 360 395 372 372 q 342 436 348 418 l 342 437 m 35 425 l 110 461 l 110 484 q 123 495 116 489 q 136 512 129 502 q 152 532 143 521 q 170 557 161 543 q 234 464 206 511 q 283 369 262 418 q 314 280 304 320 q 324 207 324 240 q 308 127 324 163 q 261 58 293 90 q 191 13 230 27 q 107 0 152 0 q 87 0 97 0 q 68 1 76 0 q 50 6 58 4 q 33 11 41 8 l 26 45 q 95 84 65 63 q 144 127 125 105 q 175 168 165 148 q 186 208 186 188 q 179 235 186 219 q 162 270 173 251 q 135 308 150 290 q 104 340 121 326 q 95 346 101 343 q 80 355 89 350 q 64 367 71 361 q 55 382 58 373 l 35 425 l 35 425 "},"©":{"x_min":75,"x_max":1081.953125,"ha":1157,"o":"m 821 607 l 694 607 q 682 647 691 629 q 658 678 673 666 q 623 698 643 692 q 577 705 602 705 q 523 691 547 705 q 480 649 498 677 q 453 584 462 623 q 444 495 444 545 q 453 408 444 446 q 480 344 462 370 q 523 304 498 317 q 582 291 548 291 q 627 298 607 291 q 662 320 647 306 q 686 354 677 335 q 696 402 696 374 l 827 402 q 808 316 827 354 q 754 250 788 278 q 676 207 720 221 q 577 194 631 194 q 465 214 515 194 q 379 273 415 234 q 325 368 343 313 q 307 491 307 423 q 325 617 307 561 q 380 714 344 673 q 468 777 418 756 q 579 798 517 798 q 674 784 631 798 q 749 745 716 771 q 800 684 782 719 q 821 605 819 649 l 821 607 m 578 918 q 494 909 534 918 q 416 886 454 901 q 344 847 377 870 q 281 795 311 824 q 228 730 251 765 q 188 656 205 695 q 165 578 173 617 q 156 495 156 538 q 165 413 156 453 q 188 335 173 373 q 228 262 205 296 q 281 199 251 228 q 345 146 311 169 q 418 107 379 123 q 496 83 457 91 q 577 75 536 75 q 661 83 620 75 q 738 107 701 91 q 812 146 777 123 q 877 199 847 169 q 931 262 908 228 q 968 334 954 296 q 991 411 983 371 q 1000 495 1000 452 q 991 578 1000 538 q 968 657 983 619 q 929 729 952 695 q 876 794 907 763 q 812 847 845 824 q 740 886 779 870 q 662 909 702 901 q 578 918 622 918 l 578 918 m 578 1001 q 677 991 629 1001 q 772 962 726 981 q 858 916 817 944 q 936 852 900 888 q 999 775 972 817 q 1044 688 1026 734 q 1072 594 1063 642 q 1081 494 1081 546 q 1072 394 1081 442 q 1045 302 1063 346 q 1000 217 1027 257 q 936 142 972 177 q 856 77 898 105 q 767 30 814 49 q 674 2 722 10 q 577 -6 626 -6 q 479 2 527 -6 q 387 28 432 10 q 300 75 341 48 q 223 141 259 103 q 159 217 187 177 q 112 303 131 257 q 84 397 94 349 q 75 494 75 445 q 84 593 75 545 q 112 687 94 641 q 159 774 131 733 q 223 853 187 816 q 300 917 259 890 q 384 963 340 945 q 477 992 429 983 q 578 1001 526 1001 l 578 1001 "},"ò":{"x_min":29,"x_max":453.78125,"ha":500,"o":"m 143 342 q 138 317 140 329 q 134 295 136 306 q 132 276 132 285 q 132 256 132 266 q 134 226 132 238 q 141 205 136 213 q 153 194 145 198 q 172 190 161 190 q 200 194 186 190 q 229 208 215 198 q 256 231 244 217 q 280 259 269 244 q 251 283 266 272 q 219 304 237 294 q 196 317 208 310 q 170 329 184 323 q 156 335 163 331 q 143 341 149 338 l 143 342 m 64 368 q 55 374 60 370 q 48 384 51 379 q 44 394 46 390 q 42 402 42 398 q 48 417 42 406 q 69 444 55 427 q 100 475 83 459 q 137 508 116 491 q 163 527 152 519 q 181 537 174 534 q 199 543 190 541 q 217 546 208 546 q 292 532 253 546 q 370 490 331 518 q 430 436 410 462 q 451 387 451 411 q 446 363 451 379 q 432 324 442 348 q 413 278 424 302 q 387 227 402 253 q 355 169 373 198 q 319 113 338 141 q 281 64 299 87 q 247 23 263 41 q 222 5 237 14 q 184 -9 206 -2 q 142 -21 162 -17 q 104 -26 122 -26 q 72 -17 86 -26 q 48 7 58 -8 q 33 51 38 25 q 29 112 29 77 q 31 176 29 144 q 39 241 34 208 q 50 306 43 274 q 64 366 57 337 l 64 368 m 358 614 q 315 637 339 624 q 258 667 290 650 q 109 754 158 719 q 60 807 60 789 q 69 820 60 811 q 97 843 79 829 q 125 864 115 858 q 140 871 136 871 q 171 850 144 871 q 248 784 198 829 q 351 701 299 741 q 453 624 402 661 q 448 624 451 624 q 442 624 445 624 q 435 624 439 624 q 426 624 431 624 q 406 624 416 624 q 389 622 396 624 q 373 618 381 621 q 358 612 364 615 l 358 614 "},"^":{"x_min":281.9375,"x_max":1104.171875,"ha":1389,"o":"m 606 990 l 779 990 l 1104 609 l 945 609 l 694 862 l 440 609 l 281 609 l 606 990 l 606 990 "},"«":{"x_min":29,"x_max":611,"ha":674,"o":"m 596 471 l 596 443 q 582 427 590 436 q 565 407 575 418 q 487 308 518 351 q 445 232 456 264 l 469 176 l 611 51 l 611 15 q 545 23 576 19 q 491 31 515 27 q 443 35 466 35 q 401 35 420 35 l 396 69 q 351 142 370 110 q 321 200 332 175 q 303 245 309 226 q 297 276 297 264 q 301 298 297 283 q 314 333 305 312 q 333 375 323 354 q 356 417 344 396 q 386 461 371 440 q 416 499 401 482 q 442 522 431 514 q 459 531 454 531 q 481 524 466 531 q 518 507 495 518 q 560 485 541 494 q 596 469 579 476 l 596 471 m 312 521 l 297 482 l 312 446 l 261 362 l 212 346 q 191 289 201 317 q 174 236 181 262 q 164 190 167 209 q 161 159 161 170 q 169 113 161 134 q 194 74 177 92 q 231 47 211 56 q 275 38 251 38 l 260 12 q 258 11 260 11 q 254 11 257 11 q 251 10 253 10 q 248 10 250 10 l 237 10 q 152 24 190 10 q 85 67 115 39 q 43 133 58 94 q 29 218 29 171 q 47 301 29 253 q 99 412 65 350 l 105 422 l 110 432 q 156 504 138 479 q 183 530 175 530 q 187 530 184 530 q 194 530 190 530 q 242 525 218 525 q 290 525 266 525 q 293 525 291 525 q 297 525 295 525 q 303 521 299 522 q 312 519 306 521 l 312 521 "},"D":{"x_min":-5,"x_max":720,"ha":758,"o":"m 38 125 q 62 316 50 228 q 85 476 74 404 q 108 612 96 550 q 132 726 119 675 q 80 780 101 758 q 46 818 58 803 q 27 842 33 833 q 21 855 21 851 q 24 876 21 864 q 33 901 28 887 q 45 924 40 917 q 54 931 50 931 q 71 928 58 931 q 101 922 83 926 q 142 910 121 917 q 185 896 162 904 l 194 912 q 435 810 335 861 q 596 704 536 758 q 688 589 657 651 q 720 454 720 526 q 720 448 720 451 q 720 440 720 444 q 719 431 719 436 q 719 422 719 426 q 718 412 719 418 q 717 401 717 407 q 716 390 717 396 q 716 378 716 385 q 614 225 672 293 q 483 105 556 158 q 325 19 411 54 q 137 -33 239 -15 q 118 -19 129 -27 q 94 0 107 -10 q 19 64 43 41 q -5 91 -5 87 q 0 98 -5 94 q 12 108 3 102 q 25 116 19 112 q 38 123 32 121 l 38 125 m 335 724 q 317 626 329 678 q 287 515 305 573 q 240 375 269 455 q 171 194 211 296 q 324 289 258 240 q 435 387 390 337 q 475 437 458 412 q 503 489 492 462 q 519 539 514 514 q 524 589 524 564 q 524 609 524 600 q 521 625 524 618 q 517 635 519 630 q 514 644 515 640 q 511 649 512 647 q 508 654 510 651 q 488 662 498 658 q 468 672 478 667 q 447 680 457 676 q 426 689 437 685 q 381 707 404 698 q 335 722 358 715 l 335 724 "},"ⁿ":{"x_min":0,"x_max":0,"ha":833},"ÿ":{"x_min":-4,"x_max":520,"ha":515,"o":"m 139 53 l 92 74 l 92 92 l 40 138 q 30 151 34 141 q 23 175 26 161 q 21 212 21 191 q 21 263 21 234 q 21 339 21 307 q 25 393 21 371 q 35 428 29 415 q 48 442 41 440 l 127 468 l 133 482 q 154 484 144 484 q 175 486 165 484 q 195 488 186 488 q 213 488 204 488 l 230 490 q 217 414 223 449 q 208 349 212 379 q 202 293 202 318 q 202 246 202 267 q 202 227 202 239 q 202 195 202 214 q 202 185 202 189 q 204 177 202 181 q 204 170 204 172 q 204 164 204 167 q 282 301 245 232 q 351 438 319 370 q 401 542 383 507 q 423 577 419 577 q 447 572 438 577 q 460 560 456 568 q 465 525 465 551 q 465 453 465 499 q 463 424 465 440 q 458 389 461 409 q 447 348 454 371 q 433 297 441 325 q 399 200 416 246 q 363 109 381 153 q 333 36 347 66 q 308 -10 319 6 q 290 -36 302 -21 q 261 -70 279 -50 q 223 -108 242 -89 q 180 -147 204 -128 q 132 -191 155 -171 q 89 -225 109 -211 q 55 -249 68 -240 q 37 -258 43 -258 l 27 -258 l 2 -255 q 0 -252 1 -253 q -1 -252 0 -252 q -3 -249 -2 -250 q -4 -247 -4 -249 q 5 -211 -4 -238 q 34 -138 14 -183 q 82 -45 55 -92 q 139 52 108 2 l 139 53 m 432 651 q 430 650 430 650 q 430 650 430 650 q 425 647 427 648 q 422 646 423 646 q 412 655 416 646 q 403 680 407 664 q 396 716 398 697 q 394 753 394 735 q 394 753 394 753 q 395 755 395 753 q 393 755 393 755 q 393 756 393 756 q 393 761 393 759 q 393 764 393 763 q 393 767 393 765 q 393 770 393 768 q 394 772 393 771 q 395 775 395 774 q 398 781 396 778 q 403 789 400 785 q 413 790 408 790 q 419 791 418 791 q 425 791 422 791 q 432 791 429 791 q 449 791 440 791 q 469 788 459 791 q 490 783 479 786 q 513 774 501 779 q 513 771 513 772 q 514 770 513 770 q 514 767 514 768 q 514 764 514 765 q 516 759 515 761 q 517 756 517 757 q 517 748 517 755 q 518 729 517 741 q 518 719 518 724 q 520 710 518 714 q 520 701 520 706 q 520 693 520 697 q 516 664 520 676 q 505 645 513 651 q 488 632 500 638 q 460 623 476 627 q 451 627 455 625 q 444 634 447 630 q 437 641 440 637 q 432 650 434 644 l 432 651 m 88 739 l 101 765 l 111 768 q 115 781 112 774 q 121 795 118 788 q 130 810 125 802 q 141 827 136 818 q 154 832 148 830 q 166 835 161 834 q 180 837 173 836 q 193 838 186 838 q 194 838 193 838 q 196 838 196 838 q 198 837 197 837 q 201 837 200 837 q 205 837 204 837 q 208 837 206 837 q 228 818 219 827 q 245 797 237 809 q 262 776 254 788 q 277 752 270 764 q 275 733 275 743 q 275 710 275 722 q 271 676 275 689 q 263 658 268 662 l 266 650 q 260 638 263 643 q 252 630 256 632 q 243 624 248 625 q 233 623 238 623 q 229 623 231 623 q 224 624 227 623 q 220 627 223 625 q 212 631 216 628 l 186 651 q 181 647 183 648 q 176 645 179 646 q 174 644 175 644 q 172 642 173 644 q 166 640 168 641 q 161 640 164 640 q 150 646 157 640 q 136 661 144 652 q 116 692 127 672 q 88 738 104 711 l 88 739 "},"í":{"x_min":-5,"x_max":509,"ha":385,"o":"m 210 -14 l 124 26 q 94 62 108 32 q 65 147 79 92 q 62 162 64 155 q 59 174 60 169 l -5 174 l -5 263 q -4 267 -4 264 q -4 273 -4 270 q -2 273 -2 273 q -2 275 -2 274 q 5 294 -2 278 q 31 338 13 310 q 70 390 50 365 q 111 436 89 415 q 151 473 129 455 q 201 504 174 490 q 248 528 229 519 q 275 537 267 537 q 277 534 275 537 q 281 529 279 532 q 281 527 281 528 q 283 527 282 527 l 306 496 q 308 491 307 493 q 309 489 309 490 q 309 488 309 489 q 310 486 310 487 q 310 483 310 484 q 312 482 310 482 q 312 479 312 480 q 312 476 312 477 q 309 461 312 472 q 303 432 307 451 q 268 222 283 328 q 253 10 253 117 l 210 -14 l 210 -14 m 59 625 l 72 653 l 107 666 l 113 691 q 156 702 135 695 q 198 720 178 710 q 241 743 219 731 q 288 774 264 756 q 346 810 317 793 q 403 838 375 827 q 454 855 431 849 q 493 862 477 862 q 501 860 497 862 q 506 856 504 859 q 508 849 507 853 q 509 838 509 845 q 507 827 509 832 q 503 816 506 823 q 495 805 499 810 q 484 795 490 800 q 484 792 484 793 q 485 789 484 791 q 485 787 485 788 q 485 784 485 785 q 486 781 485 782 q 487 778 487 780 q 487 777 487 778 q 488 775 488 775 q 458 737 488 757 q 367 693 428 716 q 230 654 307 671 q 59 624 153 637 l 59 625 "},"w":{"x_min":18,"x_max":641.609375,"ha":700,"o":"m 317 443 l 340 443 l 346 459 q 346 458 346 458 q 347 459 346 458 q 347 460 347 459 q 347 461 347 461 q 349 461 348 461 q 351 461 349 461 l 355 462 l 384 452 q 381 431 383 441 q 376 412 379 422 q 372 393 374 402 q 368 373 370 383 q 368 336 368 355 q 368 298 368 318 q 368 257 368 276 q 372 226 368 238 q 379 206 374 212 q 388 200 383 200 q 399 204 393 200 q 415 219 405 209 q 433 242 424 230 q 449 268 441 254 q 466 298 458 283 q 483 330 474 313 q 517 393 499 361 q 549 459 534 426 q 589 534 574 509 q 606 560 604 560 q 614 545 609 560 q 627 500 619 530 q 638 444 634 469 q 641 400 641 419 q 630 352 641 386 q 595 268 619 319 q 545 168 573 216 q 486 72 518 119 q 444 19 463 40 q 408 -12 424 -1 q 375 -29 393 -23 q 339 -34 358 -34 q 300 -25 316 -34 q 276 2 284 -15 q 264 69 268 23 q 260 184 260 115 q 232 136 244 157 q 212 105 221 116 q 196 85 204 94 q 181 71 188 76 q 177 70 180 71 q 173 69 174 69 q 168 68 170 68 q 163 68 166 68 q 153 67 159 67 q 138 67 147 67 q 115 68 126 67 q 94 71 105 69 q 75 76 84 73 q 56 83 66 79 q 38 141 46 111 q 23 204 29 170 q 18 272 18 237 q 18 344 18 306 q 18 379 18 361 q 18 416 18 398 q 21 441 19 429 q 24 466 23 454 q 27 479 26 472 q 29 491 27 486 q 82 515 56 505 q 133 532 108 525 q 179 542 156 539 q 219 546 201 546 q 225 545 222 546 q 229 543 228 544 q 231 539 231 541 q 231 532 231 536 l 231 529 q 228 504 231 526 q 218 440 225 483 q 208 354 208 397 q 208 270 208 312 q 208 262 208 266 q 206 254 208 258 q 206 247 206 249 q 206 241 206 244 q 206 231 206 236 q 206 223 206 227 q 238 268 223 244 q 266 318 252 291 q 284 355 276 336 q 300 395 291 374 q 308 418 304 406 q 317 441 312 430 l 317 443 "},"$":{"x_min":56,"x_max":629.953125,"ha":701,"o":"m 367 324 l 367 550 q 320 517 341 535 q 282 481 299 500 q 256 443 264 460 q 247 410 247 425 q 253 386 247 397 q 268 367 258 375 q 304 347 279 357 q 367 322 329 336 l 367 324 m 87 81 l 95 96 q 100 94 98 95 q 103 94 102 94 q 111 91 107 92 q 118 91 116 91 q 123 90 121 91 q 128 89 125 89 q 133 88 131 88 q 138 88 135 88 q 182 94 157 88 q 236 113 207 100 q 297 142 267 125 q 359 181 328 159 l 359 210 q 213 250 272 228 q 120 296 153 271 q 72 359 88 322 q 56 442 56 395 q 76 546 56 496 q 139 643 97 596 q 245 733 181 689 q 397 819 310 778 l 407 934 q 407 933 407 933 q 409 935 407 934 q 411 942 409 940 q 415 947 413 945 q 420 946 418 947 q 424 942 422 945 q 429 939 427 941 q 432 934 431 937 q 438 945 435 941 q 443 951 442 949 q 447 954 444 954 q 451 954 449 954 q 462 952 457 954 q 471 947 467 951 q 477 937 475 942 q 480 926 480 933 q 479 917 480 924 q 477 895 478 909 q 474 867 474 881 q 475 840 474 853 q 479 842 477 842 q 482 844 481 842 q 490 845 486 844 q 496 847 493 847 q 507 848 502 848 q 516 848 511 848 q 531 834 523 848 q 549 793 539 821 q 579 745 560 765 q 629 712 599 725 l 598 514 l 573 508 l 550 611 q 535 606 543 608 q 517 601 527 604 q 491 595 507 600 q 454 583 474 590 l 454 300 q 498 282 475 295 q 538 250 521 270 q 563 207 554 231 q 573 158 573 183 q 566 135 573 146 q 549 113 560 124 q 512 87 539 103 q 440 50 485 71 l 440 -74 q 439 -86 440 -81 q 435 -94 438 -91 q 427 -98 432 -97 q 414 -100 422 -100 l 394 -88 l 389 -108 l 363 -126 l 360 -126 q 358 -126 358 -126 q 356 -123 357 -126 q 353 -120 354 -121 q 352 -116 352 -119 l 352 22 q 312 8 329 14 q 283 -1 294 2 q 263 -1 272 -1 q 247 -1 254 -1 q 210 3 229 -1 q 168 17 190 7 q 127 44 147 28 q 87 79 106 60 l 87 81 "},"\\":{"x_min":57,"x_max":364,"ha":385,"o":"m 276 -128 l 91 615 q 78 678 84 645 q 66 741 72 711 q 59 795 62 773 q 57 831 57 818 q 57 836 57 834 q 58 841 57 838 q 59 845 58 843 q 60 849 60 848 q 62 856 61 852 q 65 863 64 859 q 67 867 66 865 q 69 870 68 869 l 97 925 q 99 925 98 925 q 101 927 100 926 q 103 929 103 929 q 105 929 104 929 q 112 924 108 929 q 122 912 116 920 q 132 892 126 904 q 143 865 137 880 q 242 417 190 630 q 349 12 294 203 q 360 -19 356 -7 q 364 -32 364 -30 q 363 -42 364 -37 q 361 -51 362 -47 q 360 -55 361 -54 q 358 -60 359 -57 q 356 -63 356 -61 q 354 -66 355 -65 l 319 -117 l 276 -128 l 276 -128 "},"Ì":{"x_min":57,"x_max":450,"ha":417,"o":"m 58 600 q 72 633 65 615 q 86 667 78 650 q 101 701 93 683 q 117 735 108 718 q 152 801 133 769 q 189 862 171 832 l 190 868 q 214 890 201 882 q 243 899 227 899 l 275 899 q 290 899 284 899 q 301 896 297 899 q 305 893 304 894 q 309 890 306 892 q 313 887 311 889 q 316 883 315 886 q 347 832 333 858 q 374 776 362 805 q 393 727 387 747 q 400 696 400 707 q 381 629 400 692 q 327 447 363 567 q 292 327 309 387 q 259 207 275 267 q 229 85 244 146 q 201 -33 215 25 l 193 -33 q 145 -20 168 -33 q 103 17 122 -8 q 73 75 83 43 q 63 144 63 107 q 67 194 63 164 q 76 267 71 225 q 93 355 83 308 q 115 458 103 403 l 58 600 l 58 600 m 354 979 q 311 1001 335 988 q 254 1031 286 1014 q 106 1118 155 1083 q 57 1171 57 1153 q 66 1185 57 1175 q 93 1209 75 1195 q 121 1230 111 1223 q 136 1237 132 1237 q 167 1215 140 1237 q 245 1149 194 1193 q 347 1065 295 1106 q 450 988 398 1025 q 444 988 447 988 q 438 988 441 988 q 431 988 436 988 q 422 988 427 988 q 403 988 412 988 q 386 986 394 988 q 369 983 377 985 q 354 978 360 981 l 354 979 "},"µ":{"x_min":-41.78125,"x_max":802.5,"ha":846,"o":"m 138 741 l 334 741 l 283 444 q 272 391 277 417 q 265 340 268 365 q 263 296 265 317 q 261 261 261 276 q 268 207 261 230 q 290 168 276 183 q 326 145 305 153 q 376 137 346 137 q 437 151 410 137 q 481 193 463 165 q 517 270 501 221 q 545 390 533 319 l 606 740 l 802 740 l 670 0 l 490 0 l 501 79 q 471 32 487 51 q 438 0 455 12 q 399 -15 420 -9 q 355 -22 378 -22 q 312 -17 333 -22 q 274 -1 292 -12 q 241 20 256 5 q 211 57 226 36 l 149 -295 l -41 -295 l 138 740 l 138 741 "},"Ç":{"x_min":25,"x_max":796,"ha":840,"o":"m 168 699 q 362 799 272 756 q 528 873 452 843 q 665 915 603 900 q 773 930 726 930 q 785 925 780 930 q 793 911 790 921 q 796 884 796 902 q 796 839 796 867 q 794 816 796 829 q 787 788 792 803 q 774 745 782 771 q 751 683 766 720 q 534 622 633 658 q 352 536 434 585 q 223 441 270 489 q 165 345 176 393 q 206 331 184 336 q 255 321 228 325 q 319 316 281 316 q 404 316 356 316 q 579 324 491 316 q 756 349 668 332 q 778 353 770 352 q 788 355 787 355 q 791 355 791 355 q 794 355 792 355 q 794 354 794 355 q 796 350 794 353 l 796 347 l 782 271 q 760 247 773 258 q 731 226 748 236 q 697 207 716 216 q 653 190 677 197 l 653 90 q 577 58 618 71 q 489 36 535 45 q 390 28 442 28 q 282 28 339 28 q 225 28 251 28 q 177 28 198 28 q 143 33 156 30 q 123 40 130 36 q 90 87 106 54 q 56 171 73 119 q 32 278 40 223 q 25 392 25 333 q 25 427 25 411 q 27 452 25 442 q 33 472 30 463 q 40 486 36 481 q 97 549 68 520 q 159 604 126 578 q 233 651 194 629 q 316 695 271 674 q 274 695 294 695 q 235 695 255 695 q 200 695 218 695 q 168 695 183 695 l 168 699 m 436 58 q 436 56 436 57 q 438 56 436 56 q 438 53 438 54 q 438 53 438 53 q 438 49 438 51 q 438 44 438 47 q 416 -21 438 22 q 349 -132 394 -65 q 328 -166 337 -151 q 312 -192 319 -182 q 310 -192 310 -192 q 308 -193 309 -192 q 286 -209 295 -201 q 270 -222 277 -216 q 263 -222 267 -222 q 255 -224 259 -223 q 239 -228 245 -227 q 230 -230 232 -230 q 228 -229 228 -230 q 227 -229 227 -229 q 226 -228 226 -229 q 226 -227 226 -227 q 225 -224 225 -226 q 225 -220 225 -223 q 234 -191 225 -216 q 262 -120 244 -166 q 298 -30 281 -75 q 330 57 315 14 l 436 57 l 436 58 "},"-":{"x_min":26,"x_max":391.28125,"ha":475,"o":"m 26 329 l 56 353 q 73 348 64 350 q 91 344 81 346 q 109 343 99 343 q 130 343 119 343 q 158 343 142 343 q 192 343 174 343 q 223 348 212 348 q 241 348 235 348 q 272 348 256 348 q 305 344 288 348 q 339 341 320 343 q 373 336 357 339 l 373 241 l 391 199 l 367 179 q 350 187 359 183 q 331 193 341 192 q 321 196 326 194 q 312 199 316 197 q 301 199 306 199 q 291 200 296 200 q 263 198 280 200 q 223 192 246 196 q 182 187 199 189 q 153 185 164 185 q 102 193 126 185 q 60 218 78 201 q 34 257 42 235 q 26 305 26 279 l 26 329 l 26 329 "},"Q":{"x_min":33,"x_max":819,"ha":840,"o":"m 273 384 l 365 364 l 410 221 q 487 319 455 272 q 541 405 520 366 q 572 482 562 446 q 583 550 583 519 q 576 602 583 579 q 553 641 569 625 q 517 667 538 659 q 470 676 496 676 q 445 676 460 676 q 410 671 430 676 q 360 666 390 671 q 290 658 331 662 q 290 589 290 623 q 284 521 290 554 q 282 487 282 504 q 276 453 282 469 q 276 417 276 434 q 273 383 276 400 l 273 384 m 311 17 q 294 6 302 11 q 276 -1 285 2 q 257 -1 266 -1 q 238 -1 248 -1 q 159 19 195 -1 q 92 82 123 39 q 48 179 63 126 q 33 294 33 232 q 46 412 33 347 q 85 557 59 477 q 148 724 112 636 q 232 906 185 811 l 322 873 l 354 828 q 438 852 398 842 q 513 871 478 863 q 577 882 548 878 q 628 887 606 887 q 707 872 673 887 q 767 830 741 857 q 806 763 794 802 q 819 674 819 724 q 797 549 819 615 q 731 410 775 483 q 624 264 687 337 q 481 117 562 190 q 522 73 502 94 q 563 32 542 51 q 604 -4 584 12 q 645 -37 624 -21 q 725 -92 685 -69 q 803 -132 764 -116 l 759 -173 l 663 -145 l 610 -173 q 530 -139 570 -159 q 455 -96 491 -120 q 383 -44 419 -73 q 311 15 347 -16 l 311 17 "},"M":{"x_min":51.28125,"x_max":921,"ha":971,"o":"m 114 808 l 226 855 l 240 897 q 293 901 266 897 q 348 911 320 905 q 358 913 355 912 q 363 914 362 914 q 364 914 363 914 q 365 912 365 914 q 366 911 365 912 q 367 909 367 911 q 367 906 367 908 q 373 901 367 904 q 373 894 373 898 q 373 887 373 891 q 373 713 373 791 q 394 574 373 635 q 423 484 407 515 q 458 454 440 454 q 493 476 469 454 q 550 545 516 499 q 620 648 584 590 q 692 774 655 706 q 694 779 692 777 q 697 786 696 781 q 709 804 704 798 q 718 811 714 811 q 760 807 736 811 q 816 797 784 804 q 871 783 848 790 q 905 770 893 777 q 916 764 912 767 q 921 755 919 761 q 921 742 921 751 q 921 720 921 733 q 921 601 921 665 q 905 466 921 537 q 882 329 896 395 q 853 201 869 262 q 850 195 851 198 q 846 190 848 193 q 841 183 844 186 q 834 177 839 180 q 821 166 826 172 q 811 156 815 161 q 789 129 800 144 q 769 98 779 113 q 753 72 760 83 q 740 58 746 62 q 694 27 718 44 q 646 -7 671 11 q 593 -52 621 -27 q 536 -107 565 -77 l 511 -93 q 546 27 528 -41 q 587 187 565 97 q 631 380 610 277 q 675 597 653 483 q 578 422 625 498 q 486 290 530 345 q 404 209 441 236 q 336 182 366 182 q 279 201 304 182 q 238 259 255 220 q 208 367 222 298 q 184 535 195 437 q 156 355 169 441 q 135 191 144 269 q 126 55 126 115 q 126 -47 126 -4 l 69 -66 l 59 -71 q 54 -63 56 -71 q 51 -39 52 -55 q 61 1 61 -23 q 61 66 61 27 q 61 307 61 156 q 100 672 61 458 q 109 750 105 716 q 114 806 114 784 l 114 808 "},"C":{"x_min":25,"x_max":796,"ha":840,"o":"m 168 699 q 362 799 272 756 q 528 873 452 843 q 665 915 603 900 q 773 930 726 930 q 785 925 780 930 q 793 911 790 921 q 796 884 796 902 q 796 839 796 867 q 794 816 796 829 q 787 788 792 803 q 774 745 782 771 q 751 683 766 720 q 534 622 633 658 q 352 536 434 585 q 223 441 270 489 q 165 345 176 393 q 206 331 184 336 q 255 321 229 325 q 319 316 281 316 q 404 316 356 316 q 579 324 491 316 q 756 349 668 332 q 778 353 770 352 q 788 355 787 355 q 791 355 791 355 q 794 355 792 355 q 794 354 794 355 q 796 350 794 353 l 796 347 l 782 271 q 760 247 773 258 q 731 226 748 236 q 697 207 716 216 q 653 190 677 197 l 653 90 q 577 58 618 71 q 489 36 535 45 q 390 28 442 28 q 282 28 339 28 q 225 28 251 28 q 177 28 198 28 q 143 33 156 30 q 123 40 130 36 q 90 87 106 54 q 56 171 73 119 q 32 278 40 223 q 25 392 25 333 q 25 427 25 411 q 27 452 25 442 q 33 472 30 463 q 40 486 36 481 q 97 549 68 520 q 159 604 126 578 q 233 651 194 629 q 316 695 272 674 q 275 695 294 695 q 236 695 255 695 q 200 695 218 695 q 168 695 183 695 l 168 699 "},"!":{"x_min":18,"x_max":346.78125,"ha":344,"o":"m 104 27 l 77 -1 q 75 -4 76 -2 q 72 -7 73 -5 q 69 -9 70 -8 q 66 -12 68 -11 q 63 -16 65 -16 q 58 -17 61 -17 q 57 -16 58 -17 q 55 -16 56 -16 q 54 -15 55 -16 q 52 -14 54 -14 q 51 -13 52 -14 q 49 -11 51 -12 q 47 -9 48 -9 q 47 -7 47 -8 l 27 22 q 25 25 26 23 q 22 29 23 27 q 21 31 21 30 q 19 33 21 31 q 18 36 19 34 q 18 38 18 37 q 18 40 18 38 q 18 43 18 41 q 20 52 18 45 q 26 67 22 58 q 40 98 30 77 q 68 151 51 119 l 197 201 q 197 200 197 199 q 199 201 198 201 q 200 202 199 201 q 202 203 201 203 q 205 203 205 203 q 206 203 206 203 q 212 201 209 203 q 216 197 214 200 q 218 190 217 194 q 219 179 219 186 q 214 131 219 157 q 201 77 209 105 q 184 34 192 48 q 169 21 176 21 q 163 21 167 21 q 149 23 159 22 q 131 25 140 25 q 113 25 122 25 l 104 27 l 104 27 m 82 212 q 89 228 89 219 q 89 246 89 236 q 89 269 89 257 q 89 298 89 282 q 89 465 89 387 q 89 611 89 543 q 100 729 89 679 q 122 810 112 779 l 111 862 l 202 915 q 237 902 220 910 q 270 883 253 894 q 305 855 287 872 q 346 815 324 839 q 303 661 323 735 q 267 522 282 587 q 240 407 250 457 q 224 322 230 357 l 172 298 l 156 236 l 82 212 l 82 212 "},"ç":{"x_min":0,"x_max":381,"ha":450,"o":"m 126 107 q 248 119 191 107 q 356 157 305 132 q 367 161 363 159 q 372 164 371 164 q 373 164 372 164 q 374 162 374 164 q 374 161 374 162 q 375 161 375 161 q 375 158 375 159 q 375 154 375 157 q 374 146 375 151 q 372 132 373 140 q 369 121 371 126 q 368 112 368 115 q 313 58 341 82 q 255 15 284 33 q 202 -9 226 0 q 159 -19 179 -19 q 130 -11 145 -19 q 97 8 115 -3 q 61 44 79 24 q 28 89 44 64 q 15 112 21 100 q 7 139 9 125 q 2 166 4 151 q 0 196 0 180 q 6 254 0 225 q 23 313 12 283 q 50 369 34 341 q 88 424 66 397 q 128 468 108 447 q 167 506 148 488 q 201 531 188 522 q 220 541 215 541 q 241 536 226 541 q 280 520 257 531 q 322 501 304 510 q 352 482 340 492 q 360 476 356 479 q 366 470 363 472 q 371 462 369 466 q 375 456 373 459 q 379 440 378 449 q 381 420 381 431 q 379 392 381 407 q 375 357 378 377 q 366 317 371 339 q 354 270 361 295 l 318 258 q 318 267 318 261 q 319 281 318 274 q 319 293 319 288 q 319 299 319 297 q 319 310 319 306 q 316 317 319 314 q 313 321 315 320 q 308 323 311 323 q 272 306 294 323 q 219 258 249 290 q 166 187 189 225 q 126 106 142 150 l 126 107 m 240 58 q 240 55 240 56 q 242 53 240 54 q 242 49 242 51 q 242 44 242 47 q 220 -21 242 22 q 153 -131 198 -64 q 131 -166 141 -150 q 114 -191 121 -181 q 114 -191 114 -191 q 112 -192 113 -191 q 89 -208 98 -200 q 75 -222 80 -216 q 68 -222 72 -222 q 59 -224 64 -223 q 44 -228 50 -227 q 33 -230 37 -230 q 33 -229 33 -230 q 32 -229 32 -229 q 31 -228 31 -229 q 31 -227 31 -227 q 30 -226 31 -227 q 29 -224 29 -226 q 28 -222 29 -223 q 28 -220 28 -222 q 38 -191 28 -216 q 66 -120 48 -166 q 102 -30 86 -74 q 134 57 119 14 l 240 57 l 240 58 "},"È":{"x_min":43,"x_max":704,"ha":721,"o":"m 580 180 q 553 150 566 165 q 529 118 540 134 q 510 84 519 101 q 493 47 500 66 q 411 15 448 29 q 342 -3 373 1 q 287 -17 312 -12 q 242 -22 262 -22 q 196 -16 217 -22 q 158 0 174 -10 q 127 27 141 9 q 104 66 113 44 l 84 46 l 59 46 q 51 50 54 44 q 45 68 48 55 q 43 109 43 80 q 43 183 43 137 q 51 350 43 266 q 78 517 60 433 q 121 679 96 600 q 180 834 147 759 q 251 861 213 849 q 331 881 288 873 q 417 893 373 889 q 509 898 462 898 q 577 898 545 898 q 637 894 609 898 q 661 890 651 893 q 679 886 672 888 q 691 882 687 884 q 696 878 696 881 q 698 875 697 877 q 700 871 698 874 q 700 865 700 868 q 703 857 701 861 q 704 842 704 850 q 704 824 704 834 q 704 818 704 821 q 703 813 704 816 q 702 807 703 810 q 698 800 701 803 l 658 706 q 577 695 615 700 q 505 685 539 691 q 442 673 472 679 q 387 660 412 667 q 356 614 370 635 q 329 573 341 593 q 305 535 316 554 q 284 498 294 517 q 320 498 303 498 q 348 498 337 498 q 371 498 359 498 q 394 498 383 498 q 485 493 443 498 q 565 478 528 489 q 621 459 602 468 q 640 440 640 449 q 640 438 640 439 q 640 436 640 436 q 639 434 639 435 q 639 431 639 432 l 616 354 q 499 325 555 342 q 390 289 443 308 q 293 246 338 269 q 207 197 248 223 q 221 164 212 179 q 245 140 231 150 q 281 125 260 130 q 329 121 302 121 q 385 125 356 121 q 444 140 413 130 q 507 163 476 150 q 571 194 539 176 l 580 180 l 580 180 m 524 980 q 481 1001 505 988 q 425 1031 457 1014 q 275 1118 324 1083 q 226 1171 226 1153 q 235 1185 226 1175 q 262 1209 244 1195 q 292 1230 281 1223 q 305 1237 302 1237 q 337 1215 309 1237 q 415 1149 365 1193 q 516 1065 465 1106 q 619 988 568 1025 q 614 988 618 988 q 608 988 611 988 q 601 988 605 988 q 591 988 597 988 q 573 988 582 988 q 555 987 564 988 q 547 986 551 987 q 540 984 543 985 q 532 981 536 982 q 524 978 528 980 l 524 980 "},"{":{"x_min":107,"x_max":599,"ha":695,"o":"m 599 1001 l 599 860 q 592 858 596 858 q 580 858 587 858 q 576 858 578 858 q 572 860 573 858 q 569 860 571 860 q 566 860 568 860 q 509 852 532 860 q 473 833 486 845 q 455 792 461 819 q 449 722 449 765 l 449 560 q 442 474 449 509 q 419 417 434 438 q 376 381 404 396 q 309 356 349 366 q 376 332 349 348 q 419 296 404 317 q 442 240 434 275 q 449 155 449 205 l 449 -4 q 455 -74 449 -46 q 473 -114 461 -101 q 508 -133 484 -126 q 566 -140 532 -140 q 569 -140 568 -140 q 572 -140 571 -140 q 576 -139 573 -139 q 580 -139 578 -139 q 592 -139 587 -139 q 599 -139 596 -139 l 599 -281 q 587 -281 593 -281 q 572 -281 580 -281 q 564 -281 568 -281 q 557 -281 559 -281 q 551 -281 554 -281 q 547 -281 548 -281 q 484 -281 512 -281 q 433 -274 456 -281 q 391 -263 411 -269 q 355 -249 372 -257 q 323 -221 337 -237 q 301 -186 309 -206 q 289 -133 292 -167 q 286 -51 286 -100 l 286 117 q 276 196 286 163 q 251 248 267 230 q 204 277 233 267 q 134 287 175 287 q 129 287 133 287 q 120 287 125 287 q 112 287 115 287 q 107 287 109 287 l 107 430 q 109 429 108 429 q 112 429 111 429 q 116 427 113 427 q 120 427 118 427 q 129 427 125 427 q 134 427 133 427 q 204 437 174 427 q 249 466 233 447 q 276 519 267 485 q 286 599 286 552 l 286 770 q 289 852 286 818 q 301 905 292 886 q 323 941 309 925 q 355 968 337 957 q 391 982 372 976 q 433 993 411 989 q 484 998 456 998 q 547 998 512 998 q 556 998 550 998 q 572 1000 562 998 q 587 1000 580 1000 q 599 1000 593 1000 l 599 1001 "},"X":{"x_min":-14,"x_max":728,"ha":746,"o":"m 223 353 q 162 475 188 411 q 116 607 135 539 q 88 742 98 676 q 79 868 79 807 l 79 887 q 79 896 79 893 q 80 901 79 900 q 82 905 80 904 q 85 906 84 906 q 132 901 110 906 q 173 886 155 897 q 205 863 192 876 q 225 833 219 850 q 237 792 228 828 q 262 691 246 757 q 298 569 278 628 q 341 458 319 511 q 501 650 430 553 q 626 848 572 748 q 638 871 633 864 q 644 878 643 878 q 654 875 647 878 q 670 865 661 872 q 688 853 681 859 q 700 841 695 847 q 704 828 702 840 q 707 793 707 816 q 707 742 707 771 q 707 679 707 714 q 703 632 707 657 q 694 579 700 607 q 677 524 687 553 q 654 466 666 496 q 604 374 629 414 q 556 307 580 335 q 506 255 534 280 q 441 207 477 230 q 482 152 462 176 q 520 111 502 128 q 558 87 540 95 q 594 80 576 80 q 646 93 618 80 q 709 133 675 107 q 718 139 715 137 q 722 142 721 142 q 724 139 723 140 q 726 136 725 139 q 728 131 728 135 q 728 124 728 128 q 728 111 728 117 q 726 102 728 106 q 725 98 726 100 q 724 95 725 96 q 723 91 724 92 q 721 86 722 89 q 696 58 708 71 q 673 33 684 45 q 650 12 662 21 q 626 -2 638 3 q 579 -25 604 -17 q 531 -33 555 -33 q 476 -21 504 -33 q 423 11 449 -10 q 374 70 398 35 q 327 153 351 106 q 267 110 310 130 q 155 70 224 89 l 146 70 q 89 49 113 58 q 49 31 65 40 q 22 9 34 21 q 4 -16 10 -2 l -14 -16 l -14 70 l -14 71 q 44 167 -14 97 q 221 348 103 236 l 223 353 l 223 353 "},"ô":{"x_min":29,"x_max":464,"ha":500,"o":"m 143 342 q 138 317 140 329 q 134 295 136 306 q 132 276 132 285 q 132 256 132 266 q 134 226 132 238 q 141 205 136 213 q 153 194 145 198 q 172 190 161 190 q 200 194 186 190 q 229 208 215 198 q 256 231 244 217 q 280 259 269 244 q 251 283 266 272 q 219 304 237 294 q 196 317 208 310 q 170 329 184 323 q 156 335 163 331 q 143 341 149 338 l 143 342 m 64 368 q 55 374 59 370 q 48 384 51 379 q 44 394 46 390 q 42 402 42 398 q 48 417 42 406 q 69 444 55 427 q 99 475 82 459 q 137 508 116 491 q 163 527 152 519 q 181 537 174 534 q 199 543 190 541 q 217 546 208 546 q 292 532 254 546 q 370 490 331 518 q 430 436 410 462 q 451 387 451 411 q 446 363 451 379 q 432 324 442 348 q 413 278 424 302 q 387 227 402 253 q 355 169 373 198 q 319 113 338 141 q 281 64 299 87 q 247 23 263 41 q 222 5 237 14 q 184 -9 206 -2 q 142 -21 162 -17 q 104 -26 122 -26 q 72 -17 86 -26 q 48 7 58 -8 q 33 51 38 25 q 29 112 29 77 q 31 176 29 144 q 39 241 34 208 q 50 306 43 274 q 64 366 57 337 l 64 368 m 73 611 q 71 615 72 612 q 71 619 71 617 q 70 621 71 619 q 69 622 69 622 q 69 627 69 625 q 69 630 69 629 q 69 633 69 632 q 69 636 69 635 q 69 637 69 636 q 69 640 69 639 q 69 644 69 643 q 71 647 69 646 l 85 660 l 94 689 q 112 714 96 698 q 156 751 127 729 q 183 772 172 762 q 204 788 194 782 q 226 807 215 797 q 251 827 237 816 q 295 857 274 847 q 334 868 316 868 q 360 852 344 868 q 399 804 377 836 q 428 763 414 782 q 454 729 442 744 l 444 682 l 460 660 q 460 657 460 658 q 461 655 461 657 q 461 653 461 654 q 462 650 462 651 q 464 645 464 648 q 464 639 464 642 q 462 628 464 633 q 457 617 461 622 q 449 608 454 611 q 441 606 445 606 l 308 718 q 233 684 267 698 q 172 657 199 669 q 119 633 144 644 q 73 610 95 621 l 73 611 "},"¼":{"x_min":102.5,"x_max":1091.453125,"ha":1115,"o":"m 1005 110 q 1026 104 1016 106 q 1047 99 1037 102 q 1058 97 1052 98 q 1069 97 1063 97 q 1080 94 1074 95 q 1091 92 1085 94 l 1077 69 q 1060 64 1069 66 q 1040 59 1051 62 q 1019 56 1030 58 q 995 54 1007 55 l 971 -47 q 969 -52 970 -50 q 967 -55 969 -54 q 964 -57 966 -57 q 960 -57 963 -57 q 953 -52 959 -57 q 938 -36 947 -47 q 920 -14 929 -26 q 901 9 910 -1 l 906 55 q 867 64 884 59 q 837 73 849 69 q 814 81 824 77 q 796 87 803 84 q 750 124 769 108 q 721 152 731 141 q 706 176 712 165 q 701 199 701 188 q 707 239 701 215 q 728 294 714 263 q 767 378 742 326 q 831 501 792 430 l 884 477 q 909 460 899 467 q 924 447 919 454 q 933 433 931 441 q 936 416 936 426 q 925 374 936 404 q 892 299 915 345 q 855 215 870 255 q 828 142 840 176 q 850 135 840 138 q 872 130 860 133 q 895 125 883 127 q 922 120 908 123 l 953 287 q 965 340 960 313 q 974 397 970 367 q 982 439 980 424 q 987 454 985 454 q 1005 445 995 454 q 1024 422 1014 437 q 1041 388 1035 406 q 1047 348 1047 369 q 1044 311 1047 334 q 1035 256 1042 288 q 1022 189 1030 226 q 1005 109 1014 152 l 1005 110 m 762 867 l 813 867 l 830 879 l 902 879 l 365 47 q 359 37 362 40 q 353 32 356 34 q 347 29 351 30 q 341 28 344 28 l 319 28 l 270 -17 l 208 -17 l 762 867 l 762 867 m 121 345 q 131 395 126 362 q 142 477 137 429 q 155 584 149 526 q 169 711 162 643 l 166 709 q 137 681 149 693 q 117 662 124 669 l 102 676 q 120 720 110 697 q 140 765 130 743 q 163 812 151 789 q 190 861 176 836 l 223 868 l 333 832 q 336 818 335 825 q 338 804 337 811 q 340 786 340 796 q 340 762 340 776 q 340 743 340 752 q 338 726 340 734 q 336 718 337 722 q 334 709 335 714 q 331 700 333 704 q 328 691 330 695 l 251 440 q 219 416 234 429 q 191 390 205 404 q 166 362 177 376 q 144 333 155 348 l 121 345 l 121 345 "},"#":{"x_min":29.171875,"x_max":1037.5,"ha":1068,"o":"m 480 575 l 420 408 l 590 408 l 648 575 l 480 575 l 480 575 m 480 991 l 630 991 l 530 711 l 694 711 l 795 991 l 945 991 l 844 711 l 1037 711 l 986 575 l 797 575 l 740 409 l 936 409 l 888 275 l 691 275 l 590 -5 l 440 -5 l 541 275 l 375 275 l 275 -5 l 125 -5 l 225 275 l 29 275 l 81 409 l 272 409 l 330 575 l 127 575 l 177 711 l 379 711 l 480 991 l 480 991 "},"Ê":{"x_min":43,"x_max":704,"ha":721,"o":"m 580 180 q 553 150 566 165 q 529 118 540 134 q 509 84 519 101 q 492 47 499 66 q 411 15 448 29 q 343 -3 373 1 q 287 -17 312 -12 q 243 -22 262 -22 q 196 -16 218 -22 q 158 0 175 -10 q 127 27 141 9 q 104 66 113 44 l 84 46 l 59 46 q 51 50 54 44 q 45 68 48 55 q 43 109 43 80 q 43 183 43 137 q 51 350 43 266 q 78 517 60 433 q 122 679 96 600 q 180 834 147 759 q 251 861 214 849 q 332 881 289 873 q 418 893 373 889 q 509 898 462 898 q 577 898 545 898 q 637 894 609 898 q 661 890 651 893 q 679 886 672 888 q 691 882 687 884 q 696 878 696 881 q 698 875 697 877 q 700 871 698 874 q 700 865 700 868 q 703 857 701 861 q 704 842 704 850 q 704 824 704 834 q 704 818 704 821 q 703 813 704 816 q 702 807 703 810 q 698 800 701 803 l 658 706 q 576 695 615 700 q 505 685 538 691 q 442 673 472 679 q 387 660 412 667 q 356 614 370 635 q 329 573 341 593 q 305 535 316 554 q 284 498 294 517 q 320 498 304 498 q 348 498 337 498 q 371 498 359 498 q 394 498 383 498 q 485 493 443 498 q 565 478 527 489 q 621 459 602 468 q 640 440 640 449 q 640 438 640 439 q 640 436 640 436 q 639 434 639 435 q 639 431 639 432 l 616 354 q 499 325 555 342 q 390 289 443 308 q 293 246 338 269 q 208 197 248 223 q 222 164 212 179 q 245 140 232 150 q 282 125 261 130 q 329 121 302 121 q 385 125 356 121 q 444 140 413 130 q 507 163 476 150 q 570 194 538 176 l 580 180 l 580 180 m 239 976 q 236 981 237 977 q 236 986 236 984 q 236 988 236 987 q 236 990 236 989 q 235 992 235 991 q 235 994 235 993 q 235 997 235 996 q 236 1000 235 998 q 236 1001 236 1000 q 236 1004 236 1003 q 236 1008 236 1007 q 236 1011 236 1009 l 252 1023 l 259 1053 q 277 1078 262 1062 q 322 1117 293 1094 q 349 1137 337 1128 q 370 1154 361 1146 q 392 1171 380 1161 q 418 1192 404 1181 q 462 1223 441 1213 q 499 1234 483 1234 q 527 1217 511 1234 q 566 1168 544 1200 q 595 1128 581 1146 q 619 1094 608 1110 l 609 1046 l 624 1023 q 626 1019 626 1021 q 629 1015 627 1018 q 629 1012 629 1014 q 630 1009 630 1011 q 630 1007 630 1008 q 630 1004 630 1005 q 628 991 630 997 q 623 980 626 986 q 616 973 620 975 q 606 971 612 971 l 473 1082 q 400 1048 434 1064 q 338 1021 366 1033 q 286 997 311 1008 q 239 975 261 986 l 239 976 "},")":{"x_min":33.546875,"x_max":399,"ha":541,"o":"m 153 896 l 191 896 q 257 809 226 852 q 314 722 287 766 q 361 633 340 677 q 399 544 382 588 l 399 515 q 392 384 399 448 q 372 255 386 319 q 341 128 360 191 q 296 4 322 65 l 272 4 l 193 -130 l 118 -119 l 97 -144 l 33 -125 q 70 -47 53 -87 q 104 31 87 -7 q 137 117 121 73 q 169 208 154 162 q 190 343 180 279 q 205 463 200 406 q 218 573 212 520 q 224 673 224 626 q 210 729 217 701 q 193 786 203 758 q 174 841 185 814 q 153 894 164 868 l 153 896 "},"Å":{"x_min":-25,"x_max":686.28125,"ha":739,"o":"m 554 1102 q 555 1106 555 1104 q 555 1109 555 1108 q 555 1115 555 1112 q 555 1122 555 1117 q 548 1162 555 1145 q 526 1194 541 1180 q 492 1213 512 1207 q 445 1219 472 1219 q 427 1219 436 1219 q 409 1216 418 1219 q 401 1213 405 1214 q 393 1210 397 1212 q 383 1205 387 1208 q 375 1201 379 1203 q 390 1138 380 1166 q 415 1091 400 1110 q 448 1061 430 1072 q 487 1051 465 1051 q 509 1054 498 1051 q 529 1065 519 1058 q 543 1081 537 1072 q 554 1101 549 1090 l 554 1102 m 302 1110 q 301 1113 302 1112 q 300 1117 300 1115 q 297 1125 298 1122 q 297 1131 297 1128 q 296 1135 297 1134 q 296 1140 296 1137 q 294 1143 294 1141 q 294 1146 294 1145 q 309 1201 294 1174 q 349 1255 323 1228 q 407 1294 377 1281 q 468 1308 437 1308 q 534 1296 504 1308 q 586 1262 564 1285 q 622 1210 609 1238 q 635 1148 635 1181 q 621 1081 635 1112 q 582 1022 608 1049 q 527 981 557 995 q 462 968 497 968 q 407 976 433 968 q 358 1002 381 984 q 320 1044 336 1020 q 297 1097 305 1067 l 302 1110 l 302 1110 m 343 829 l 336 873 q 335 875 336 873 q 335 877 335 876 q 334 879 335 877 q 333 882 333 880 q 333 886 333 884 q 333 889 333 887 q 347 897 333 891 q 392 908 362 903 q 450 918 421 915 q 509 922 479 922 q 517 921 514 922 q 522 917 521 920 q 525 915 523 916 q 528 912 526 913 q 529 908 528 910 q 532 904 530 906 l 576 904 q 579 904 578 904 q 582 904 581 904 q 585 903 583 904 q 587 903 586 903 q 592 900 590 901 q 594 897 593 900 l 607 880 q 618 854 612 873 q 623 800 623 834 q 623 723 623 765 q 623 629 623 680 q 623 592 623 615 q 621 537 623 569 q 621 483 621 506 q 618 442 621 459 l 666 450 l 674 450 q 677 447 676 448 q 678 447 678 447 q 682 446 681 447 q 683 444 683 445 q 685 440 684 442 q 686 431 686 437 q 682 374 686 401 q 672 327 679 348 q 657 296 665 306 q 637 286 648 286 l 635 287 q 622 268 629 276 q 608 253 615 260 q 596 242 603 248 q 581 228 589 235 q 580 223 581 227 q 578 212 579 219 q 567 143 572 173 q 557 93 561 113 l 439 24 l 430 -29 l 389 -49 q 388 -49 389 -49 q 388 -50 388 -49 q 385 -50 386 -50 q 385 -50 385 -50 q 384 -50 385 -50 q 382 -52 383 -50 q 381 -52 382 -52 q 379 -52 381 -52 q 377 -52 378 -52 q 377 -50 377 -52 q 377 -50 377 -50 q 377 -50 377 -50 q 375 -50 375 -50 q 375 -50 375 -50 q 376 -46 375 -48 q 378 -39 377 -43 q 389 40 385 -2 q 393 132 393 82 q 393 161 393 149 q 392 180 393 173 q 392 193 392 187 q 390 201 392 199 q 324 201 356 201 q 260 201 291 201 q 200 201 229 201 q 143 201 171 201 q 111 121 126 162 q 84 39 97 81 q 61 -20 70 0 q 47 -41 52 -41 l 44 -41 l 29 -80 q 24 -80 27 -80 q 15 -80 20 -80 q 10 -80 12 -80 q 6 -81 8 -80 q 2 -81 4 -81 q 0 -81 1 -81 q -3 -81 -1 -81 q -8 -80 -5 -81 q -12 -79 -9 -80 q -16 -78 -15 -78 q -19 -77 -18 -78 q -21 -75 -21 -76 q -24 -73 -23 -73 q -25 -69 -25 -72 q -20 -40 -25 -62 q -5 17 -15 -18 q 13 101 1 56 q 40 199 26 146 q 23 221 30 210 q 11 238 16 231 q 4 254 6 246 q 0 269 1 262 q -8 288 -4 279 q -15 306 -12 297 q -20 326 -18 317 q -22 342 -22 334 q -20 348 -22 345 q -15 352 -18 350 q -9 354 -14 353 q 0 355 -4 355 l 83 366 q 117 483 98 421 q 158 608 136 544 q 193 709 180 673 q 207 751 206 744 l 218 759 q 301 806 270 789 q 343 827 333 823 l 343 829 m 206 382 l 396 416 q 396 498 396 456 q 389 580 396 540 q 382 661 389 620 q 369 744 376 702 q 323 650 347 702 q 272 534 300 597 q 229 433 246 472 q 206 381 212 395 l 206 382 "},"ø":{"x_min":-101,"x_max":492,"ha":500,"o":"m 64 368 q 55 374 59 370 q 48 384 51 379 q 44 394 46 390 q 42 402 42 398 q 48 418 42 408 q 69 444 55 429 q 100 475 83 459 q 137 508 116 491 q 163 527 152 519 q 183 539 175 534 q 199 543 190 541 q 218 546 208 546 q 248 543 233 546 q 280 533 264 540 q 315 518 297 527 q 350 498 332 509 l 416 570 q 420 570 416 569 q 434 576 425 572 q 440 579 436 579 q 445 582 443 580 q 465 580 456 582 q 479 576 474 579 q 489 569 486 573 q 492 558 492 565 q 491 556 492 557 q 489 552 490 555 q 485 548 487 551 q 479 541 483 546 l 406 462 q 425 442 417 451 q 439 423 434 433 q 449 404 446 413 q 452 387 452 395 q 447 363 452 379 q 434 324 443 348 q 414 278 425 302 q 388 227 403 253 q 356 169 374 198 q 319 113 339 141 q 282 64 300 87 q 247 23 264 41 q 222 5 237 14 q 184 -9 207 -2 q 142 -21 162 -17 q 104 -26 122 -26 q 79 -21 90 -26 q 61 -9 68 -17 q 48 10 54 -2 q 40 44 43 23 l -49 -57 q -48 -57 -48 -57 q -48 -58 -48 -57 q -48 -58 -48 -58 q -49 -58 -49 -58 q -54 -63 -52 -61 q -61 -65 -57 -65 q -64 -65 -63 -65 q -66 -65 -64 -65 q -68 -65 -67 -65 q -68 -65 -68 -65 q -71 -64 -70 -64 q -71 -64 -71 -64 q -83 -54 -78 -59 q -92 -42 -88 -49 q -98 -31 -96 -37 q -101 -21 -101 -26 q -97 -17 -99 -20 q -92 -12 -95 -14 q -89 -7 -91 -9 q -85 -3 -87 -5 l 32 133 l 32 144 q 32 194 32 167 q 40 249 32 220 q 50 308 44 279 q 64 366 57 337 l 64 368 m 143 342 q 138 317 140 329 q 134 295 136 306 q 132 276 132 285 q 132 256 132 266 q 134 226 132 238 q 141 205 136 213 q 153 194 145 198 q 172 190 161 190 q 200 194 186 190 q 229 208 215 198 q 257 231 244 217 q 280 259 269 244 q 252 283 266 272 q 219 304 237 294 q 196 317 208 310 q 170 329 184 323 q 156 335 163 331 q 143 341 149 338 l 143 342 "},"â":{"x_min":-5,"x_max":487,"ha":548,"o":"m 199 436 q 160 388 178 413 q 126 333 142 362 q 99 274 111 305 q 79 210 88 242 l 225 340 l 199 436 l 199 436 m 268 188 q 177 120 218 149 q 103 70 135 91 q 52 37 71 48 q 28 26 33 26 q 12 32 18 26 q 0 48 6 38 q -2 75 0 59 q -5 113 -5 91 q 5 202 -5 156 q 38 297 15 248 q 96 400 61 345 q 177 511 131 454 q 177 513 177 512 q 177 515 177 514 q 176 517 176 516 q 176 518 176 518 q 176 518 176 518 q 176 521 176 519 q 174 521 174 521 q 174 522 174 522 q 175 527 174 525 q 177 530 176 529 q 177 532 177 532 q 178 534 178 533 q 179 535 178 534 q 180 537 180 536 l 242 591 l 252 601 q 256 598 253 599 q 261 594 259 597 q 273 586 266 593 q 289 573 280 580 q 300 577 293 575 q 314 583 306 579 q 328 590 323 587 q 335 593 334 593 q 357 581 342 593 q 390 548 371 570 q 430 498 411 526 q 467 438 449 470 q 452 395 459 419 q 442 343 446 370 q 435 283 435 316 q 435 213 435 251 q 439 110 435 162 q 453 10 444 59 q 455 0 455 5 q 458 -4 456 -3 q 457 -8 458 -7 q 455 -9 456 -9 q 454 -9 455 -9 q 452 -10 453 -10 q 450 -10 450 -10 q 449 -10 449 -10 q 440 -8 447 -10 q 419 -3 433 -6 q 393 2 406 0 q 368 7 381 5 q 350 17 359 10 q 338 34 342 24 q 337 36 337 35 q 337 38 337 37 l 268 188 l 268 188 m 95 610 q 92 616 93 613 q 92 621 92 620 q 92 623 92 623 q 92 625 92 624 q 91 627 91 627 q 91 630 91 628 q 91 632 91 631 q 91 635 91 634 q 91 637 91 635 q 92 639 92 638 q 92 643 92 642 q 92 646 92 645 l 108 659 l 115 688 q 133 713 118 698 q 178 751 148 728 q 205 771 193 762 q 227 788 217 781 q 248 806 236 797 q 274 827 260 816 q 318 857 298 847 q 356 868 339 868 q 383 851 367 868 q 422 803 400 835 q 451 762 437 781 q 475 728 464 744 l 466 681 l 481 659 q 483 654 482 656 q 485 649 484 652 q 487 644 487 648 q 487 638 487 641 q 484 627 487 632 q 480 616 482 621 q 473 607 477 610 q 463 605 469 605 l 330 717 q 257 683 291 698 q 195 656 223 669 q 142 632 167 643 q 95 609 117 620 l 95 610 "},"}":{"x_min":96,"x_max":588,"ha":695,"o":"m 96 998 l 143 998 q 210 998 179 998 q 263 991 240 998 q 305 981 286 987 q 339 965 324 975 q 372 939 358 955 q 393 904 385 923 q 405 850 401 883 q 408 769 408 816 l 408 600 q 417 518 408 551 q 443 466 426 486 q 490 437 461 446 q 560 427 519 427 q 566 427 563 427 q 574 427 569 427 q 578 427 576 427 q 582 429 581 427 q 585 429 583 429 q 588 429 586 429 l 588 287 l 563 287 q 491 277 521 287 q 443 248 461 267 q 417 196 426 230 q 408 116 408 163 l 408 -51 q 405 -134 408 -100 q 393 -187 401 -168 q 372 -222 385 -207 q 339 -249 358 -237 q 304 -263 322 -257 q 261 -274 285 -269 q 210 -281 239 -281 q 147 -281 182 -281 q 144 -281 146 -281 q 137 -281 141 -281 q 130 -281 134 -281 q 122 -281 126 -281 q 107 -281 114 -281 q 96 -281 101 -281 l 96 -139 q 103 -139 98 -139 q 114 -139 108 -139 q 118 -139 116 -139 q 122 -140 121 -139 q 125 -140 123 -140 q 128 -140 126 -140 q 185 -133 162 -140 q 221 -114 208 -126 q 238 -73 232 -100 q 245 -4 245 -46 l 245 155 q 253 241 245 205 q 275 298 261 277 q 318 333 290 318 q 385 356 346 348 q 318 381 346 366 q 275 417 290 396 q 253 474 261 438 q 245 559 245 509 l 245 725 q 238 792 245 765 q 221 833 232 819 q 185 853 208 846 q 128 860 162 860 q 125 860 126 860 q 122 860 123 860 q 118 858 121 858 q 114 858 116 858 q 103 858 108 858 q 96 858 98 858 l 96 1001 l 96 998 "},"Ä":{"x_min":-25,"x_max":700,"ha":739,"o":"m 206 382 l 396 416 q 396 498 396 456 q 389 580 396 540 q 382 661 389 620 q 369 744 376 702 q 323 650 347 702 q 272 534 300 597 q 229 433 246 472 q 206 381 212 395 l 206 382 m 343 829 l 336 873 q 335 875 336 873 q 335 877 335 876 q 334 879 335 877 q 333 882 333 880 q 333 886 333 884 q 333 889 333 887 q 347 897 333 891 q 392 908 362 903 q 450 918 420 915 q 509 922 479 922 q 517 921 514 922 q 522 917 521 920 q 525 915 523 916 q 528 912 526 913 q 529 908 528 910 q 532 904 530 906 l 577 904 q 579 904 578 904 q 582 904 581 904 q 585 903 583 904 q 587 903 586 903 q 592 900 590 901 q 594 897 593 900 l 607 880 q 618 854 612 873 q 623 800 623 834 q 623 723 623 765 q 623 629 623 680 q 623 592 623 615 q 621 537 623 569 q 621 483 621 506 q 618 442 621 459 l 666 450 l 674 450 q 677 447 676 448 q 678 447 678 447 q 682 446 681 447 q 683 444 683 445 q 685 440 684 442 q 686 431 686 437 q 682 374 686 401 q 672 327 679 348 q 657 296 665 306 q 637 286 648 286 l 634 287 q 622 268 629 276 q 608 253 615 260 q 596 242 603 248 q 581 228 589 235 q 580 223 581 227 q 578 212 579 219 q 566 143 572 173 q 557 93 561 113 l 438 24 l 430 -29 l 389 -49 q 388 -49 389 -49 q 388 -50 388 -49 q 385 -50 386 -50 q 385 -50 385 -50 q 384 -50 385 -50 q 382 -52 383 -50 q 381 -52 382 -52 q 379 -52 381 -52 q 377 -52 378 -52 q 377 -50 377 -52 q 377 -50 377 -50 q 377 -50 377 -50 q 375 -50 375 -50 q 375 -50 375 -50 q 376 -46 375 -48 q 378 -39 377 -43 q 389 40 385 -2 q 393 132 393 82 q 393 161 393 149 q 392 180 393 173 q 392 193 392 187 q 390 201 392 199 q 324 201 356 201 q 260 201 291 201 q 200 201 229 201 q 143 201 171 201 q 111 121 126 162 q 84 39 97 81 q 61 -20 70 0 q 47 -41 52 -41 l 44 -41 l 29 -80 q 24 -80 27 -80 q 15 -80 20 -80 q 10 -80 12 -80 q 6 -81 8 -80 q 2 -81 4 -81 q 0 -81 1 -81 q -3 -81 -1 -81 q -8 -80 -5 -81 q -12 -79 -9 -80 q -16 -78 -15 -78 q -19 -77 -18 -78 q -21 -75 -21 -76 q -24 -73 -23 -73 q -25 -69 -25 -72 q -20 -40 -25 -62 q -5 17 -15 -18 q 13 101 1 56 q 40 199 26 146 q 23 221 30 210 q 11 238 16 231 q 4 254 6 246 q 0 269 1 262 q -8 288 -4 279 q -15 306 -12 297 q -20 326 -18 317 q -22 342 -22 334 q -20 348 -22 345 q -15 352 -18 350 q -9 354 -14 353 q 0 355 -4 355 l 83 366 q 117 483 98 421 q 158 608 136 544 q 193 709 180 673 q 207 751 206 744 l 218 759 q 301 806 270 789 q 343 827 333 823 l 343 829 m 613 1015 q 613 1014 613 1014 q 613 1014 613 1014 q 611 1014 611 1014 q 611 1014 611 1014 q 608 1011 610 1012 q 604 1011 606 1011 q 594 1019 599 1011 q 585 1044 589 1027 q 578 1080 580 1062 q 576 1118 576 1098 q 577 1118 577 1118 q 577 1118 577 1118 q 575 1118 575 1118 q 575 1119 575 1119 q 575 1124 575 1122 q 575 1127 575 1126 q 575 1130 575 1129 q 575 1133 575 1131 q 576 1136 575 1134 q 577 1138 577 1137 q 580 1145 578 1141 q 583 1154 582 1148 q 595 1154 590 1154 q 601 1154 600 1154 q 607 1154 604 1154 q 612 1154 611 1154 q 631 1154 622 1154 q 651 1151 641 1154 q 671 1146 660 1149 q 695 1137 682 1142 q 695 1134 695 1136 q 695 1133 695 1133 q 695 1130 695 1131 q 696 1127 696 1129 q 697 1122 697 1124 q 697 1120 697 1120 q 697 1116 697 1119 q 699 1111 697 1113 q 699 1104 699 1108 q 699 1094 699 1099 q 700 1073 700 1083 q 700 1056 700 1063 q 697 1028 700 1040 q 687 1009 695 1016 q 669 995 681 1001 q 641 986 658 990 q 633 991 637 988 q 625 997 629 994 q 621 1002 623 999 q 617 1008 619 1005 q 615 1011 615 1009 q 613 1014 614 1012 l 613 1015 m 270 1102 l 283 1129 l 291 1131 q 297 1144 294 1137 q 302 1158 300 1151 q 311 1173 306 1165 q 322 1190 316 1182 q 331 1194 327 1193 q 340 1196 336 1194 q 344 1198 341 1197 q 348 1199 347 1199 q 361 1200 355 1200 q 375 1201 368 1201 q 378 1201 376 1201 q 382 1200 381 1201 q 387 1200 385 1200 q 390 1200 389 1200 q 410 1181 401 1191 q 427 1161 419 1172 q 444 1139 436 1151 q 459 1115 452 1127 q 457 1096 457 1106 q 457 1073 457 1086 q 453 1039 457 1052 q 445 1022 450 1026 l 448 1014 q 442 1001 445 1007 q 434 993 438 995 q 425 988 430 990 q 415 986 420 986 q 411 986 414 986 q 407 987 409 986 q 402 990 405 988 q 394 994 398 992 l 368 1015 q 364 1011 366 1012 q 361 1009 362 1011 q 356 1007 358 1008 q 352 1007 355 1007 q 347 1004 349 1005 q 343 1004 345 1004 q 332 1009 338 1004 q 317 1025 326 1015 q 298 1055 309 1036 q 270 1101 286 1075 l 270 1102 "},"¸":{"x_min":150,"x_max":364,"ha":695,"o":"m 363 58 q 363 54 363 55 q 363 52 363 54 q 364 49 364 51 q 364 44 364 47 q 342 -21 364 22 q 276 -132 321 -65 q 254 -166 264 -151 q 237 -192 244 -182 q 235 -192 236 -192 q 235 -193 235 -192 q 212 -209 221 -201 q 197 -223 203 -217 q 190 -223 194 -223 q 182 -225 186 -224 q 166 -229 172 -228 q 155 -231 159 -231 q 155 -230 155 -231 q 154 -230 154 -230 q 153 -229 153 -230 q 153 -228 153 -228 q 152 -227 153 -228 q 151 -225 151 -227 q 150 -223 151 -224 q 150 -221 150 -223 q 160 -192 150 -217 q 189 -121 171 -166 q 225 -30 208 -75 q 257 57 241 13 l 363 57 l 363 58 "},"a":{"x_min":-5,"x_max":467.734375,"ha":548,"o":"m 199 436 q 160 388 178 413 q 126 333 142 362 q 99 274 111 305 q 79 210 87 242 l 225 340 l 199 436 l 199 436 m 268 188 q 177 120 218 149 q 103 70 135 91 q 52 37 71 48 q 28 26 33 26 q 12 32 18 26 q 0 48 6 38 q -2 75 0 59 q -5 113 -5 91 q 5 202 -5 156 q 38 297 15 248 q 96 400 61 345 q 177 511 130 454 q 177 513 177 512 q 177 515 177 514 q 176 517 176 516 q 176 518 176 518 q 176 518 176 518 q 176 521 176 519 q 174 521 174 521 q 174 522 174 522 q 175 527 174 525 q 177 530 176 529 q 177 532 177 532 q 178 534 178 533 q 179 535 178 534 q 180 537 180 536 l 242 591 l 252 601 q 256 598 253 599 q 261 594 259 597 q 273 586 266 593 q 289 573 280 580 q 300 577 293 575 q 314 583 306 579 q 328 590 323 587 q 335 593 334 593 q 357 581 342 593 q 390 548 371 570 q 430 498 411 526 q 467 438 449 470 q 452 395 459 419 q 442 343 446 370 q 435 283 435 316 q 435 213 435 251 q 439 110 435 162 q 453 10 444 59 q 455 0 455 5 q 458 -4 456 -3 q 457 -8 458 -7 q 455 -9 456 -9 q 454 -9 455 -9 q 452 -10 453 -10 q 450 -10 450 -10 q 449 -10 449 -10 q 440 -8 447 -10 q 419 -3 433 -6 q 393 2 406 0 q 368 7 381 5 q 350 17 359 10 q 338 34 342 24 q 337 36 337 35 q 337 38 337 37 l 268 188 l 268 188 "},"=":{"x_min":172,"x_max":983.109375,"ha":1157,"o":"m 172 335 l 983 335 l 983 201 l 172 201 l 172 335 l 172 335 m 172 627 l 983 627 l 983 491 l 172 491 l 172 627 l 172 627 "},"N":{"x_min":31,"x_max":846.546875,"ha":869,"o":"m 31 84 q 42 282 31 183 q 69 479 53 382 q 108 672 86 576 q 157 862 130 768 l 225 897 q 315 880 278 887 q 373 865 353 872 q 405 853 394 860 q 416 840 416 847 q 416 838 416 839 q 416 836 416 837 q 414 833 414 835 q 414 830 414 832 l 400 768 l 472 705 q 493 562 482 630 q 518 432 504 493 q 547 316 532 369 q 578 220 563 263 q 636 335 610 272 q 685 473 663 398 q 725 631 709 547 q 753 808 742 715 q 761 819 757 814 q 770 830 766 825 q 778 841 774 836 q 786 853 782 847 q 806 876 796 864 q 831 903 817 889 l 846 898 q 790 510 820 680 q 724 216 760 340 q 655 32 689 93 q 586 -28 621 -28 q 584 -28 585 -28 q 579 -28 582 -28 q 577 -27 578 -28 q 575 -26 577 -26 q 573 -25 574 -26 q 571 -25 572 -25 l 509 5 q 459 58 485 15 q 401 173 432 101 q 346 333 371 247 q 301 519 321 419 q 281 411 296 476 q 239 258 265 347 q 197 108 214 169 q 171 11 180 47 q 169 6 170 9 q 169 0 169 2 q 157 -21 164 -13 q 138 -29 149 -29 q 122 -21 132 -29 q 97 0 113 -13 q 66 36 83 15 q 31 83 49 56 l 31 84 "},"ú":{"x_min":26,"x_max":608,"ha":623,"o":"m 227 538 q 232 545 228 542 q 241 549 235 548 q 241 549 241 549 q 241 549 241 549 l 289 555 q 289 553 289 553 q 289 555 289 553 q 289 555 289 555 q 290 555 290 555 q 292 555 291 555 q 292 555 292 555 q 294 555 294 555 q 296 553 295 555 q 298 551 298 552 q 298 549 298 550 q 295 540 298 548 q 289 518 292 532 q 227 335 254 429 q 184 143 200 242 q 284 255 236 196 q 377 381 332 314 q 397 409 389 399 q 407 421 405 420 q 422 427 410 424 q 453 435 434 431 q 491 442 473 440 q 524 445 509 445 q 528 445 527 445 q 529 445 529 445 q 529 441 529 443 q 529 436 529 439 q 529 433 529 435 q 529 429 529 432 q 527 425 527 428 q 527 418 527 422 q 519 303 519 363 q 519 182 519 243 q 519 119 519 149 q 519 63 519 89 q 522 13 519 36 q 529 -31 525 -9 l 474 -45 l 438 -1 l 396 -1 l 395 -1 q 377 5 386 -1 q 357 29 368 12 q 335 72 348 47 q 310 132 323 97 q 274 104 292 117 q 238 81 256 90 q 204 63 221 71 q 168 52 186 56 l 142 52 q 114 53 128 52 q 88 56 100 54 q 64 60 75 57 q 41 67 52 63 q 34 93 37 79 q 28 121 31 107 q 26 150 26 135 q 26 182 26 165 q 29 255 26 218 q 38 329 32 292 q 55 406 45 367 q 78 489 64 446 q 81 495 80 492 q 84 499 82 497 q 88 501 85 500 q 95 503 91 502 l 227 538 l 227 538 m 159 625 l 172 653 l 206 666 l 212 691 q 256 702 235 695 q 298 720 277 710 q 341 743 318 731 q 386 774 363 756 q 445 810 416 793 q 502 838 474 827 q 553 855 530 849 q 594 862 576 862 q 601 860 598 862 q 605 856 603 859 q 608 849 608 853 q 608 838 608 845 q 606 827 608 832 q 602 816 605 823 q 594 805 599 810 q 583 795 589 800 q 583 792 583 793 q 584 789 584 791 q 585 786 584 788 q 586 784 586 785 q 586 781 586 782 q 587 778 586 780 q 587 777 587 778 q 587 775 587 775 q 557 736 587 757 q 467 693 527 716 q 330 654 407 671 q 159 624 253 636 l 159 625 "},"2":{"x_min":41.953125,"x_max":621,"ha":700,"o":"m 41 603 l 122 860 q 144 863 133 861 q 166 867 155 865 q 191 868 178 868 q 219 868 205 868 q 304 864 262 868 q 384 850 346 860 q 459 828 425 840 q 522 800 494 815 q 568 767 550 785 q 598 729 587 749 q 615 682 609 708 q 621 624 621 656 q 621 585 621 604 q 618 547 621 567 q 611 512 615 529 q 605 480 608 496 q 555 428 582 454 q 498 378 527 403 q 435 325 468 351 q 366 273 403 300 q 259 190 294 222 q 223 145 223 158 q 242 118 223 131 q 300 90 261 105 q 380 68 339 76 q 469 60 422 60 q 484 60 477 60 q 497 61 491 60 q 508 61 504 61 q 516 61 512 61 q 530 63 523 62 q 543 65 537 63 q 555 61 550 63 q 565 52 559 58 q 576 41 571 47 q 587 25 582 34 q 543 8 569 15 q 486 -5 518 0 q 421 -15 455 -12 q 351 -19 387 -19 q 231 -8 284 -19 q 139 22 178 1 q 80 75 100 46 q 60 141 60 104 q 80 213 60 171 q 141 309 101 255 q 244 430 182 362 q 389 576 307 497 q 332 603 359 592 q 278 622 305 615 q 228 634 251 631 q 185 638 205 638 q 150 635 166 638 q 118 626 133 633 q 92 612 104 621 q 69 590 80 603 l 41 603 l 41 603 "},"ü":{"x_min":26,"x_max":575,"ha":624,"o":"m 227 538 q 232 545 229 542 q 241 549 236 548 q 241 549 241 549 q 241 549 241 549 l 289 555 q 289 553 289 553 q 289 555 289 553 q 289 555 289 555 q 290 555 290 555 q 292 555 291 555 q 292 555 292 555 q 294 555 294 555 q 296 553 295 555 q 298 551 298 552 q 298 549 298 550 q 295 540 298 548 q 289 518 292 532 q 227 335 254 429 q 184 143 201 242 q 284 255 237 196 q 377 381 332 314 q 397 409 389 399 q 407 421 404 420 q 422 427 410 424 q 454 435 434 431 q 491 442 473 440 q 524 445 509 445 q 528 445 527 445 q 529 445 529 445 q 529 441 529 443 q 529 436 529 439 q 529 433 529 435 q 529 429 529 432 q 527 425 527 428 q 527 418 527 422 q 519 303 519 363 q 519 182 519 243 q 519 119 519 149 q 519 63 519 89 q 522 13 519 36 q 529 -31 525 -9 l 474 -45 l 438 -1 l 396 -1 l 395 -1 q 377 5 386 -1 q 357 29 368 12 q 335 72 348 47 q 310 132 323 97 q 274 104 292 117 q 238 81 256 90 q 204 63 222 71 q 169 52 187 56 l 142 52 q 114 53 128 52 q 88 56 100 54 q 64 60 75 57 q 41 67 52 63 q 34 93 37 79 q 28 121 31 107 q 26 150 26 135 q 26 182 26 165 q 29 255 26 218 q 38 329 32 292 q 55 406 45 367 q 78 489 64 446 q 81 495 80 492 q 84 499 82 497 q 88 501 85 500 q 95 503 91 502 l 227 538 l 227 538 m 487 651 q 485 650 485 650 q 485 650 485 650 q 480 647 482 648 q 477 646 478 646 q 467 655 471 646 q 458 680 462 664 q 451 716 453 697 q 449 753 449 735 q 450 753 450 753 q 450 755 450 753 q 448 755 448 755 q 448 756 448 756 q 448 761 448 759 q 448 764 448 763 q 448 767 448 765 q 448 770 448 768 q 449 772 448 771 q 450 775 450 774 q 453 781 451 778 q 458 789 455 785 q 468 790 463 790 q 476 791 473 791 q 481 791 478 791 q 487 791 484 791 q 505 791 495 791 q 524 788 514 791 q 545 783 534 786 q 568 774 556 779 q 568 771 568 772 q 569 770 568 770 q 569 767 569 768 q 569 764 569 765 q 571 759 570 761 q 572 756 572 757 q 572 748 572 755 q 573 729 572 741 q 573 719 573 724 q 575 710 573 714 q 575 701 575 706 q 575 693 575 697 q 571 664 575 676 q 561 645 568 651 q 543 632 555 637 q 516 623 531 627 q 506 627 510 625 q 499 633 502 629 q 492 640 495 636 q 487 650 489 644 l 487 651 m 144 739 l 156 765 l 166 768 q 170 781 167 774 q 176 795 173 788 q 185 810 180 801 q 196 826 191 818 q 210 831 203 829 q 222 835 216 833 q 228 836 224 835 q 236 837 231 837 q 242 838 238 838 q 248 838 245 838 q 249 838 248 838 q 251 838 251 838 q 254 837 252 837 q 256 837 255 837 q 261 837 259 837 q 263 837 262 837 q 283 818 274 827 q 300 797 292 808 q 317 776 309 788 q 332 752 325 764 q 330 733 330 743 q 330 710 330 722 q 326 676 330 689 q 318 658 323 662 l 321 650 q 315 637 318 643 q 307 629 311 632 q 298 624 303 625 q 288 623 294 623 q 285 623 287 623 q 280 624 283 623 q 275 627 279 625 q 268 631 272 628 l 241 651 q 236 647 238 648 q 231 645 234 646 q 229 644 230 644 q 227 642 229 644 q 221 639 223 640 q 216 639 219 639 q 206 645 212 639 q 191 661 199 651 q 171 692 183 672 q 144 738 159 711 l 144 739 "},"¯":{"x_min":201,"x_max":585.609375,"ha":694,"o":"m 212 785 l 232 785 l 249 776 q 272 772 262 774 q 291 770 282 770 q 307 770 299 770 q 323 770 316 770 q 359 770 338 770 q 406 775 380 770 q 455 781 434 781 q 491 781 477 781 q 507 781 498 781 q 528 781 516 781 q 555 779 541 779 q 585 779 568 779 l 580 758 l 570 753 l 555 681 l 525 681 q 481 677 510 677 q 412 677 452 677 q 337 677 370 677 q 281 677 305 677 q 245 679 260 677 q 220 686 230 682 q 205 701 210 693 q 201 722 201 710 q 201 736 201 729 q 203 750 202 743 q 207 765 205 757 q 212 783 209 774 l 212 785 "},"Z":{"x_min":25,"x_max":829,"ha":836,"o":"m 718 602 q 596 511 655 557 q 480 417 537 466 q 370 320 425 370 q 264 217 316 270 q 330 175 298 193 q 390 142 361 156 q 443 122 419 129 q 485 116 466 116 q 558 123 521 116 q 636 145 596 131 q 697 166 676 160 q 719 173 718 173 q 722 173 720 173 q 727 170 724 173 q 734 166 730 168 q 741 161 737 164 q 761 147 751 154 q 784 132 772 139 q 803 120 797 125 q 810 114 810 115 q 806 108 810 111 q 796 100 803 104 q 777 93 790 97 q 744 81 764 88 q 625 40 683 58 q 511 10 567 22 q 411 -5 455 0 q 330 -12 366 -12 q 282 -8 305 -12 q 236 0 258 -5 q 193 21 213 8 q 151 50 172 33 q 99 99 122 74 q 58 152 76 125 q 33 201 41 178 q 25 243 25 224 q 42 300 25 267 q 94 375 59 332 q 177 465 130 420 q 283 560 223 511 l 290 567 q 381 627 339 606 q 463 653 424 649 l 463 663 q 361 676 415 669 q 248 684 307 684 q 157 690 188 684 q 120 704 126 697 l 47 810 q 46 809 47 809 q 46 811 46 810 q 45 812 46 811 q 44 813 44 813 q 44 815 44 814 q 44 817 44 816 q 66 833 44 825 q 135 850 89 842 q 235 857 181 857 q 348 857 289 857 q 369 857 360 857 q 387 857 378 857 q 405 860 397 860 q 422 860 414 860 q 439 859 431 860 q 454 859 447 859 q 470 858 463 859 q 485 858 478 858 q 491 878 487 869 q 497 889 494 887 q 506 895 500 894 q 522 897 512 897 l 551 897 q 561 897 557 897 q 568 895 565 897 q 574 892 571 894 q 580 888 578 891 l 629 858 q 728 838 688 846 q 787 822 768 829 q 818 806 808 815 q 829 784 829 796 q 822 713 829 745 q 801 659 815 682 q 766 621 787 636 q 718 600 745 606 l 718 602 "},"u":{"x_min":26,"x_max":529,"ha":623,"o":"m 227 538 q 232 545 229 542 q 241 549 236 548 q 241 549 241 549 q 241 549 241 549 l 289 555 q 289 553 289 553 q 289 555 289 553 q 289 555 289 555 q 290 555 290 555 q 292 555 291 555 q 292 555 292 555 q 294 555 294 555 q 296 553 295 555 q 298 551 298 552 q 298 549 298 550 q 295 540 298 548 q 289 518 292 532 q 227 335 254 429 q 184 143 201 242 q 285 255 237 196 q 377 381 332 314 q 397 409 389 399 q 407 421 405 420 q 422 427 410 424 q 453 435 434 431 q 491 442 473 440 q 524 445 509 445 q 528 445 527 445 q 529 445 529 445 q 529 441 529 443 q 529 436 529 439 q 529 433 529 435 q 529 429 529 432 q 527 425 527 428 q 527 418 527 422 q 519 303 519 363 q 519 182 519 243 q 519 119 519 149 q 519 63 519 89 q 522 13 519 36 q 529 -31 525 -9 l 474 -45 l 438 -1 l 396 -1 l 395 -1 q 377 5 386 -1 q 357 29 368 12 q 335 72 348 47 q 310 132 323 97 q 274 104 292 117 q 238 81 257 90 q 204 63 222 71 q 169 52 187 56 l 142 52 q 115 53 128 52 q 88 56 101 54 q 64 60 76 57 q 41 67 52 63 q 34 93 37 79 q 28 121 31 107 q 26 150 26 135 q 26 182 26 165 q 29 255 26 218 q 38 329 32 292 q 55 406 45 367 q 78 489 64 446 q 81 495 80 492 q 84 499 83 497 q 88 501 85 500 q 95 503 91 502 l 227 538 l 227 538 "},"Ó":{"x_min":37,"x_max":740,"ha":778,"o":"m 347 623 q 305 488 323 549 q 276 375 287 427 q 259 283 265 324 q 254 210 254 242 q 254 192 254 201 q 255 172 254 183 q 255 163 255 167 q 256 157 255 160 q 256 152 256 154 q 256 150 256 150 l 256 144 q 314 162 285 150 q 371 193 343 175 q 428 235 399 211 q 487 289 456 258 q 531 339 510 314 q 565 389 551 364 q 588 434 580 415 q 597 465 597 453 q 580 513 597 491 q 528 557 563 536 q 449 594 495 578 q 347 621 403 610 l 347 623 m 145 827 q 152 826 148 826 q 162 827 156 826 q 195 830 181 830 q 217 832 209 830 l 251 893 q 490 876 394 893 q 638 827 587 859 q 714 740 688 796 q 740 604 740 684 q 727 481 740 545 q 688 350 714 417 q 628 221 663 283 q 548 101 592 158 q 499 46 524 71 q 449 7 474 22 q 399 -14 424 -6 q 347 -22 373 -22 q 314 -17 333 -22 q 273 -2 295 -12 q 228 17 251 4 q 183 47 206 30 q 117 103 145 75 q 71 160 89 132 q 46 219 55 187 q 37 286 37 251 q 45 353 37 314 q 67 439 53 392 q 104 541 82 486 q 153 657 126 596 q 140 659 146 659 q 128 662 134 660 q 117 662 123 662 q 106 664 112 663 q 88 666 96 665 q 71 667 80 667 l 145 827 l 145 827 m 275 989 l 288 1017 l 322 1031 l 327 1054 q 372 1067 351 1060 q 413 1084 392 1074 q 456 1108 434 1095 q 502 1138 478 1121 q 560 1174 531 1157 q 617 1202 589 1191 q 668 1219 645 1213 q 709 1226 691 1226 q 716 1224 713 1226 q 720 1220 718 1223 q 723 1213 723 1217 q 723 1203 723 1209 q 721 1192 723 1198 q 717 1181 720 1187 q 709 1170 714 1175 q 698 1159 704 1164 q 699 1156 698 1157 q 700 1153 700 1155 q 700 1150 700 1152 q 701 1148 701 1149 q 701 1145 701 1146 q 702 1142 701 1143 q 702 1141 702 1142 q 702 1139 702 1139 q 672 1100 702 1121 q 582 1057 642 1079 q 446 1018 523 1035 q 275 988 369 1002 l 275 989 "},"k":{"x_min":29,"x_max":557,"ha":590,"o":"m 30 334 l 86 368 q 108 469 96 415 q 137 579 121 523 q 173 698 152 636 q 219 825 194 759 l 282 836 l 301 878 q 304 882 304 880 q 307 885 305 885 q 312 887 309 886 q 319 889 315 889 l 387 889 q 390 891 388 891 q 393 891 391 891 q 395 889 394 889 q 397 889 395 889 q 397 888 397 889 q 398 888 398 888 q 400 887 400 888 q 400 886 400 886 q 388 832 400 874 q 355 721 377 790 q 304 568 333 651 q 240 391 276 486 l 268 352 q 371 492 323 429 q 458 604 419 555 q 519 678 496 654 q 546 703 541 703 q 550 699 548 703 q 553 689 552 696 q 556 675 555 683 q 557 658 557 666 q 557 655 557 657 q 555 650 557 652 q 553 646 555 648 q 549 639 552 643 l 510 582 l 523 554 q 468 479 494 515 q 419 409 442 443 q 376 343 397 375 q 338 281 355 312 q 379 227 356 254 q 427 174 401 199 q 483 126 453 149 q 545 83 512 102 l 485 22 l 469 27 l 440 -3 l 405 -3 l 391 -15 q 337 3 365 -7 q 282 27 309 13 q 223 62 254 42 q 159 106 193 81 l 108 -30 l 43 -54 q 39 -56 41 -56 q 36 -56 37 -56 q 35 -56 36 -56 q 35 -57 35 -56 q 32 -57 33 -57 q 32 -57 32 -57 q 30 -55 31 -55 q 29 -51 30 -54 q 29 -45 29 -50 q 29 -30 29 -40 q 29 11 29 -10 q 29 58 29 33 q 37 108 32 81 q 47 160 41 134 l 29 174 l 29 334 l 30 334 "},"Ù":{"x_min":68,"x_max":804,"ha":815,"o":"m 231 839 l 249 881 q 272 882 261 881 q 297 885 284 883 q 320 889 308 887 q 342 895 331 891 q 346 895 345 895 q 349 896 348 895 q 352 896 351 896 q 353 896 353 896 q 357 896 356 896 q 359 895 357 896 q 359 894 359 895 q 360 893 360 893 q 362 892 362 893 q 362 891 362 891 l 375 762 q 375 757 375 759 q 375 752 375 755 q 375 748 375 751 q 375 744 375 746 q 371 725 375 738 q 360 691 367 712 q 303 453 322 571 q 284 217 284 334 q 284 198 284 208 q 286 179 284 188 q 286 160 286 169 q 288 143 286 151 q 385 227 336 174 q 487 352 434 280 q 584 501 540 424 q 662 662 628 578 q 667 673 665 666 q 673 688 669 680 q 683 711 679 703 q 691 720 687 719 q 728 734 711 727 q 762 746 746 741 q 788 755 779 753 q 798 758 797 758 q 800 757 800 758 q 803 755 801 756 q 803 752 803 753 q 804 749 803 751 q 804 746 804 748 q 804 742 804 745 q 797 671 804 714 q 776 566 790 627 q 762 506 769 535 q 744 447 754 476 q 724 386 734 416 q 703 326 714 356 q 656 211 680 263 q 608 116 632 159 q 560 40 584 73 q 511 -15 536 7 q 498 -17 504 -16 q 484 -18 491 -18 q 479 -19 482 -18 q 473 -20 476 -20 q 465 -20 469 -20 q 458 -21 461 -20 q 450 -21 454 -21 q 443 -21 447 -21 q 417 -21 432 -21 q 386 -16 402 -21 q 350 -13 369 -15 q 308 -6 331 -11 q 246 16 277 0 q 184 58 215 33 q 131 108 154 81 q 91 163 108 134 q 81 189 86 176 q 74 216 76 202 q 69 250 71 230 q 68 297 68 270 q 68 418 68 358 q 77 538 68 478 q 93 659 84 599 q 115 778 102 719 q 119 797 118 790 q 122 805 120 804 q 128 810 123 808 q 141 813 133 812 l 231 839 l 231 839 m 617 979 q 573 1001 598 988 q 516 1030 548 1014 q 367 1118 416 1083 q 318 1170 318 1152 q 327 1184 318 1175 q 355 1208 337 1194 q 384 1229 373 1222 q 398 1236 394 1236 q 429 1214 402 1236 q 507 1148 457 1193 q 609 1065 558 1105 q 712 988 661 1025 q 707 988 710 988 q 701 988 704 988 q 694 988 698 988 q 685 988 690 988 q 666 988 675 988 q 648 986 657 988 q 632 983 640 985 q 617 978 623 981 l 617 979 "},"¢":{"x_min":122,"x_max":523,"ha":699,"o":"m 508 189 l 499 137 q 479 113 491 125 q 453 89 468 101 q 420 62 438 76 q 377 33 401 48 q 374 4 374 19 q 374 -30 374 -10 q 366 -87 374 -67 q 342 -107 358 -106 l 329 -130 l 291 -135 q 294 -113 294 -126 q 294 -85 294 -101 q 297 -49 297 -71 q 297 1 297 -26 q 293 0 297 0 q 287 0 289 0 q 282 -1 284 -1 q 277 -1 280 -1 q 253 5 267 -1 q 220 27 239 12 q 184 65 202 44 q 148 112 166 86 q 137 135 142 124 q 128 160 131 147 q 124 188 126 174 q 122 221 122 203 q 136 315 122 268 q 178 408 151 361 q 248 497 208 456 q 341 574 288 538 l 341 620 q 341 623 341 621 q 341 627 341 625 q 341 632 341 630 q 341 637 341 634 q 345 656 341 648 q 355 670 348 664 q 372 680 362 677 q 393 683 381 683 q 402 680 398 683 q 408 676 407 678 q 411 669 411 673 q 412 657 412 664 q 412 655 412 656 q 412 650 412 653 q 411 648 412 649 q 411 645 411 646 q 410 641 411 642 q 410 638 410 639 q 410 634 410 637 q 411 631 410 632 q 411 626 411 628 q 411 621 411 624 q 411 612 411 616 q 411 606 411 609 q 411 597 411 602 q 411 586 411 592 q 411 577 411 581 q 410 568 411 572 q 473 532 450 547 q 506 506 497 517 q 519 481 516 496 q 523 450 523 467 q 523 419 523 436 q 517 382 523 401 q 507 338 513 361 q 494 287 502 315 l 446 271 q 446 275 446 272 q 447 280 447 278 q 449 291 448 286 q 450 298 450 296 q 452 309 451 304 q 453 316 453 314 q 451 328 453 323 q 447 337 450 333 q 442 343 446 341 q 436 346 439 346 q 400 330 422 346 q 348 282 379 314 q 294 211 319 250 q 251 128 270 172 q 317 132 284 128 q 383 143 351 136 q 446 162 415 151 q 508 187 477 174 l 508 189 "},"ß":{"x_min":-25.5,"x_max":552,"ha":598,"o":"m 293 729 q 232 496 260 605 q 181 293 205 387 q 137 109 157 197 q 96 -59 116 20 l 12 -146 l -25 -146 l -11 -49 q 73 530 41 330 q 118 750 106 730 q 161 801 138 778 q 211 846 184 825 q 261 877 239 867 q 298 888 282 888 q 339 885 317 888 q 386 878 360 882 q 436 868 413 874 q 478 856 459 862 q 498 843 489 850 q 511 825 506 836 q 520 801 518 815 q 523 769 523 786 q 514 709 523 739 q 488 651 506 679 q 440 594 470 625 q 369 528 410 562 q 448 459 413 493 q 504 393 482 426 q 540 330 528 361 q 552 270 552 300 q 528 195 552 234 q 456 116 504 156 q 345 43 409 76 q 205 -11 282 11 l 212 36 q 212 36 212 36 q 213 38 212 37 q 213 40 213 40 q 213 43 213 41 q 216 54 213 49 q 225 62 219 58 l 239 76 q 321 146 288 115 q 373 200 355 177 q 345 238 360 218 q 310 283 330 259 q 280 325 291 307 q 270 352 270 343 q 272 396 270 373 q 280 446 275 419 q 293 498 285 471 q 310 554 301 525 q 349 602 333 580 q 374 640 364 623 q 389 673 384 658 q 394 699 394 687 q 389 708 394 704 q 376 714 384 711 q 345 720 366 717 q 293 728 324 724 l 293 729 "},"é":{"x_min":-12,"x_max":528,"ha":475,"o":"m 185 238 q 221 284 204 262 q 252 330 239 307 q 279 369 268 350 q 298 401 290 387 q 259 389 276 401 q 226 357 241 378 q 202 307 212 337 q 185 237 191 277 l 185 238 m -12 120 l -12 138 q -7 209 -12 173 q 4 280 -2 245 q 27 348 14 316 q 57 406 40 380 q 87 450 72 430 q 117 485 103 470 q 143 510 132 502 q 160 519 154 519 q 174 516 164 519 q 200 512 185 514 q 234 505 216 509 q 271 494 252 500 q 309 483 291 488 q 343 471 327 478 q 368 461 358 466 q 383 453 377 456 q 387 447 384 452 q 394 431 390 442 q 403 410 398 420 q 414 392 409 401 q 350 315 384 357 q 277 224 316 273 q 218 150 239 177 q 191 120 197 124 l 218 48 q 260 60 240 53 q 301 74 280 67 q 321 81 311 77 q 341 88 332 85 q 385 105 370 99 q 401 112 400 112 q 405 110 404 112 q 407 106 406 109 q 409 98 409 103 q 409 85 409 92 q 409 73 409 80 q 407 59 409 66 q 406 46 407 53 q 404 32 405 39 q 358 -3 377 10 q 323 -25 339 -17 q 295 -37 308 -33 q 269 -42 282 -42 q 201 -30 237 -42 q 121 2 164 -19 q 45 55 78 25 q -10 118 11 84 l -12 120 m 80 624 l 92 652 l 126 664 l 132 690 q 176 701 155 694 q 218 719 197 709 q 261 742 239 730 q 307 773 283 755 q 365 809 336 792 q 422 837 394 826 q 473 854 450 848 q 514 861 496 861 q 521 859 518 861 q 525 855 523 858 q 528 848 528 852 q 528 837 528 844 q 526 826 528 831 q 522 815 525 822 q 514 804 519 809 q 503 794 509 799 q 503 788 503 791 q 506 783 504 785 q 506 778 506 780 q 507 774 506 776 q 477 735 507 756 q 387 692 447 715 q 251 653 328 670 q 80 623 174 635 l 80 624 "},"s":{"x_min":8,"x_max":393,"ha":442,"o":"m 84 -51 l 84 12 q 93 20 84 12 q 121 47 103 29 q 154 82 141 63 q 175 119 168 101 q 155 125 167 122 q 128 134 143 129 q 65 156 88 145 q 37 177 42 166 q 25 211 31 191 q 16 258 20 232 q 8 316 8 286 q 8 380 8 347 q 69 441 36 412 q 141 491 102 469 q 226 534 181 515 q 319 568 270 554 q 328 562 323 565 q 337 557 333 559 q 346 550 341 554 q 355 543 351 547 q 373 527 363 536 q 393 507 383 518 q 331 468 359 487 q 280 430 303 450 q 237 392 258 412 q 202 351 217 372 q 239 334 221 343 q 271 316 256 325 q 300 299 287 308 q 324 282 313 290 q 356 247 345 263 q 368 218 368 232 q 348 157 368 190 q 288 84 329 125 q 198 12 249 45 q 84 -51 146 -20 l 84 -51 "},"B":{"x_min":32,"x_max":792.734375,"ha":822,"o":"m 182 425 l 536 655 q 486 689 514 673 q 427 715 459 705 q 356 732 393 726 q 279 738 320 738 l 259 738 l 182 425 l 182 425 m 146 735 q 97 762 115 735 q 80 845 80 790 q 80 883 80 865 q 80 913 80 900 q 96 916 88 914 q 115 918 105 917 q 131 921 123 920 q 148 923 140 923 q 183 925 166 925 q 219 925 201 925 q 383 908 305 925 q 533 858 462 892 q 663 776 602 825 q 776 661 724 726 l 753 510 q 725 484 741 496 q 689 461 709 472 q 670 449 680 455 q 649 437 660 443 q 579 401 618 419 q 491 364 539 383 q 581 355 541 360 q 652 346 621 351 q 702 334 682 340 q 727 321 721 328 q 751 294 739 310 q 773 260 763 279 q 787 227 783 240 q 792 207 792 214 q 780 183 792 197 q 744 150 769 169 q 689 115 720 132 q 623 85 659 99 q 522 50 573 65 q 420 23 471 35 q 324 7 368 14 q 240 1 279 1 q 218 3 228 1 q 200 7 207 4 q 188 12 192 10 q 184 19 185 15 q 197 51 184 32 q 238 97 211 71 q 286 135 264 122 q 327 148 309 148 q 332 145 329 148 q 336 141 335 143 q 340 131 339 136 q 341 118 341 125 q 424 135 385 125 q 498 157 463 145 q 557 182 531 168 q 600 210 582 196 q 552 224 578 218 q 499 233 527 230 q 436 237 470 237 q 363 237 403 237 q 316 237 341 237 q 267 237 292 237 q 217 234 242 237 q 163 228 191 231 q 155 178 159 200 q 148 136 151 156 q 145 119 147 128 q 143 103 144 110 q 140 87 141 95 q 137 72 138 79 l 78 44 q 68 80 72 61 q 62 117 65 99 q 60 156 62 136 q 58 197 58 177 l 58 229 q 45 239 49 235 q 37 247 40 244 q 34 253 36 250 q 32 258 32 257 q 34 292 32 278 q 40 319 36 307 q 49 338 44 332 q 60 346 55 344 q 80 444 70 394 q 99 541 89 493 q 122 639 110 590 q 146 735 133 687 l 146 735 "},"?":{"x_min":53.171875,"x_max":568,"ha":636,"o":"m 149 82 q 155 95 149 89 q 171 105 161 101 q 201 110 182 108 q 244 113 219 113 q 247 113 246 113 q 249 113 247 113 q 251 111 250 111 q 254 111 253 111 q 260 110 257 110 q 264 110 263 110 q 277 115 271 110 q 288 130 283 121 q 288 135 288 133 q 290 139 289 137 q 299 150 293 146 q 310 157 304 154 q 328 160 317 160 q 358 160 340 160 q 373 159 367 160 q 380 155 379 158 q 384 147 383 153 q 385 135 385 142 q 382 119 385 129 q 378 96 380 110 q 375 84 376 90 q 374 76 374 79 q 355 64 365 71 q 333 47 346 57 q 259 0 290 15 q 210 -15 228 -15 q 203 -13 206 -13 q 198 -9 200 -12 q 197 -7 198 -8 q 195 -7 196 -7 l 163 22 q 158 26 160 23 q 154 33 156 29 q 151 40 153 36 q 149 48 149 44 l 149 82 l 149 82 m 287 210 q 256 248 270 228 q 233 287 243 268 q 218 326 223 308 q 214 358 214 344 q 225 417 214 378 q 260 518 237 457 q 295 632 282 579 q 311 728 307 684 l 279 728 l 260 703 q 205 718 232 708 q 151 741 178 728 q 101 772 125 755 q 53 810 76 789 q 128 852 89 833 q 208 885 167 871 q 286 906 250 899 q 353 913 322 913 q 357 913 355 913 q 360 912 358 913 q 362 911 361 912 q 364 909 362 910 l 376 899 q 382 899 379 899 q 389 899 386 899 q 398 899 391 899 q 411 899 404 899 q 475 888 447 899 q 523 855 502 878 q 556 805 545 833 q 568 742 568 778 q 546 632 568 698 q 480 474 525 565 l 475 463 l 448 463 q 427 420 439 440 q 407 381 416 400 q 385 345 396 362 q 364 311 375 328 q 324 253 343 279 q 287 208 304 228 l 287 210 "},"H":{"x_min":15,"x_max":821,"ha":822,"o":"m 75 474 q 87 550 79 511 q 105 629 95 589 q 129 710 116 669 q 157 794 141 751 q 183 807 168 800 q 216 825 198 815 q 266 850 248 841 q 288 860 284 860 q 296 857 291 860 q 306 847 301 854 q 315 837 312 841 q 318 829 318 832 q 315 817 318 826 q 311 793 313 808 q 296 712 302 753 q 284 630 290 671 q 273 548 277 589 q 264 468 268 508 l 439 468 q 505 596 466 515 q 596 789 545 676 q 622 846 612 821 q 641 887 633 871 q 692 904 667 897 q 740 917 718 912 q 779 926 763 924 q 805 929 795 929 q 816 911 812 929 q 821 857 821 893 q 821 837 821 846 q 821 823 821 829 q 768 601 794 710 q 716 390 741 493 q 670 193 692 289 q 628 8 648 97 l 555 -16 q 548 -30 552 -22 q 542 -48 545 -39 q 531 -71 537 -64 q 521 -78 525 -78 q 499 -70 507 -78 q 488 -47 491 -62 q 487 -40 487 -43 q 487 -34 487 -37 q 470 46 478 6 q 458 122 463 86 q 458 186 458 158 q 458 233 458 215 l 458 257 q 399 259 427 257 q 345 268 371 262 q 294 282 319 273 q 246 300 270 290 q 243 272 245 286 q 241 243 241 258 q 239 211 239 227 q 239 179 239 195 q 239 174 239 176 q 241 170 240 172 q 245 168 243 169 q 250 168 247 168 q 258 170 252 168 q 269 177 263 172 q 280 191 276 184 q 291 206 285 197 q 299 206 295 206 q 306 208 302 207 q 313 210 309 209 q 320 211 316 211 q 331 214 327 214 q 337 214 335 214 q 339 214 338 214 q 341 214 339 214 q 341 213 341 214 q 342 212 342 212 q 342 212 342 212 q 342 212 342 212 q 343 211 342 212 q 344 209 344 211 q 341 204 344 208 q 335 193 339 200 q 326 174 333 186 q 312 147 320 162 q 302 130 308 140 q 290 109 297 120 q 251 45 266 66 q 230 25 237 25 q 206 29 220 25 q 173 41 193 33 q 144 56 155 48 q 130 69 133 63 q 109 118 119 88 q 90 188 99 148 q 77 272 82 229 q 72 361 72 315 q 50 371 58 365 q 40 384 42 378 q 40 385 40 384 q 40 386 40 386 q 38 387 38 387 q 38 387 38 387 l 16 442 q 15 442 15 442 q 15 444 15 443 q 15 447 15 446 q 15 450 15 448 q 17 456 15 453 q 23 464 19 459 q 26 468 24 466 q 30 471 28 471 q 33 473 31 472 q 37 474 35 474 q 42 474 38 474 q 51 474 45 474 q 56 473 53 474 q 63 472 59 472 q 69 472 66 472 q 75 472 72 472 l 75 474 "},"î":{"x_min":-5,"x_max":425.4375,"ha":385,"o":"m 210 -14 l 124 26 q 94 62 108 32 q 65 147 79 92 q 62 162 64 155 q 58 174 60 169 l -5 174 l -5 263 q -4 267 -4 264 q -4 273 -4 270 q -2 273 -2 273 q -2 275 -2 274 q 5 294 -2 278 q 31 338 13 310 q 69 390 50 365 q 111 436 89 415 q 151 473 129 455 q 201 504 174 490 q 248 528 229 519 q 275 537 267 537 q 277 534 275 537 q 281 529 279 532 q 281 527 281 528 q 283 527 282 527 l 306 496 q 308 491 307 493 q 309 489 309 490 q 309 488 309 489 q 310 486 310 487 q 310 483 310 484 q 312 482 310 482 q 312 479 312 480 q 312 476 312 477 q 309 461 312 472 q 303 432 307 451 q 268 222 283 328 q 253 10 253 117 l 210 -14 l 210 -14 m 34 611 q 31 617 32 614 q 31 622 31 621 q 31 624 31 624 q 31 626 31 625 q 30 628 30 628 q 30 631 30 629 q 30 633 30 632 q 31 636 30 635 q 31 638 31 636 q 31 640 31 639 q 31 644 31 643 q 31 647 31 646 l 47 660 l 56 689 q 73 714 58 699 q 117 752 88 729 q 144 772 132 763 q 165 789 155 782 q 187 807 175 798 q 212 828 198 817 q 257 858 236 848 q 294 869 278 869 q 322 852 306 869 q 361 804 339 836 q 390 763 377 782 q 414 729 403 745 l 404 682 l 419 660 q 421 655 421 657 q 424 650 422 653 q 425 645 425 649 q 425 639 425 642 q 423 628 425 633 q 418 617 421 622 q 411 608 415 611 q 403 606 407 606 l 268 718 q 195 684 229 699 q 133 657 161 670 q 81 633 106 644 q 34 610 56 621 l 34 611 "},"c":{"x_min":0,"x_max":381,"ha":450,"o":"m 126 107 q 248 119 191 107 q 356 157 305 132 q 367 161 363 159 q 372 164 371 164 q 373 164 372 164 q 374 162 374 164 q 374 161 374 162 q 375 161 375 161 q 375 158 375 159 q 375 154 375 157 q 374 146 375 151 q 372 132 373 140 q 369 121 371 126 q 368 112 368 115 q 313 58 341 82 q 255 15 284 33 q 202 -9 226 0 q 159 -19 178 -19 q 130 -11 145 -19 q 96 8 115 -3 q 61 44 78 24 q 27 89 44 64 q 15 112 20 100 q 6 139 9 125 q 2 166 4 151 q 0 196 0 180 q 6 254 0 225 q 23 313 12 283 q 50 369 34 341 q 88 424 66 397 q 128 468 108 447 q 167 506 148 488 q 201 531 188 522 q 220 541 215 541 q 241 536 226 541 q 280 520 256 531 q 322 501 304 510 q 352 482 340 492 q 360 476 356 479 q 366 470 363 472 q 371 462 369 466 q 375 456 373 459 q 379 440 378 449 q 381 420 381 431 q 379 392 381 407 q 375 357 378 377 q 366 317 371 339 q 354 270 361 295 l 318 258 q 318 267 318 261 q 319 281 318 274 q 319 293 319 288 q 319 299 319 297 q 319 310 319 306 q 316 317 319 314 q 313 321 315 320 q 308 323 311 323 q 272 306 294 323 q 219 258 249 290 q 166 187 190 225 q 126 106 142 150 l 126 107 "},"¶":{"x_min":27.390625,"x_max":665,"ha":694,"o":"m 665 1003 l 665 927 l 588 927 l 588 0 l 487 0 l 487 927 l 378 927 l 378 0 l 276 0 l 276 531 q 173 548 219 531 q 94 597 128 565 q 44 671 60 629 q 27 763 27 712 q 45 861 27 818 q 99 936 63 904 q 183 985 135 968 q 291 1002 231 1002 l 665 1002 l 665 1003 "},"¥":{"x_min":51,"x_max":656,"ha":699,"o":"m 346 0 q 342 0 345 0 q 336 -1 339 0 q 283 -21 306 -14 q 248 -28 261 -28 q 237 -26 242 -28 q 231 -21 232 -25 q 228 -9 229 -16 q 227 6 227 -1 l 227 343 l 125 343 q 122 341 124 341 q 118 341 121 341 q 115 340 117 340 q 110 340 113 340 q 103 340 106 340 q 97 340 100 340 q 94 339 97 340 q 85 337 92 338 q 74 334 79 335 q 64 334 69 334 q 61 335 62 334 q 58 338 60 337 q 56 344 57 341 q 56 353 56 348 q 58 381 56 369 q 64 399 60 392 q 72 411 67 408 q 85 415 78 415 l 108 415 q 119 415 114 415 q 131 416 125 415 q 140 416 135 416 q 149 416 144 416 q 154 417 151 416 q 160 418 157 418 q 171 418 165 418 q 181 420 176 419 q 150 476 164 448 q 124 531 136 504 q 102 587 111 559 q 84 643 92 615 q 59 754 67 700 q 51 862 51 808 q 51 869 51 867 q 52 872 51 871 q 52 874 52 874 q 54 874 53 874 q 55 874 54 874 q 56 874 56 874 q 106 870 83 874 q 144 858 128 867 q 174 839 161 851 q 195 810 186 826 q 208 771 197 804 q 238 677 220 739 q 278 561 257 616 q 322 458 299 506 q 461 643 400 549 q 570 833 522 737 q 581 858 577 850 q 588 867 586 867 q 595 864 590 867 q 609 855 600 861 q 626 845 618 850 q 639 835 633 840 q 645 823 642 833 q 652 794 649 812 q 656 757 656 776 q 656 716 656 737 q 645 665 656 694 q 613 600 634 636 q 562 518 592 562 q 490 426 531 474 q 495 426 493 426 q 500 426 497 426 q 506 426 503 426 q 511 426 508 426 q 522 426 518 426 q 528 426 526 426 q 561 426 545 426 q 596 426 578 426 q 599 426 597 426 q 602 429 600 426 q 604 429 603 429 q 606 429 604 429 q 611 428 608 429 q 615 426 614 427 q 617 423 617 424 q 617 419 617 422 q 617 415 617 417 q 617 412 617 413 q 616 408 617 409 q 616 403 616 406 q 611 397 614 401 q 606 388 609 392 l 599 356 q 587 352 593 354 q 574 349 581 351 q 549 346 561 348 q 524 343 538 344 q 504 340 514 340 q 486 340 495 340 q 467 340 476 340 q 447 340 457 340 q 440 340 444 340 q 429 340 435 340 q 424 340 426 340 q 418 341 421 340 q 411 341 415 341 q 404 341 407 341 l 404 120 q 404 103 404 110 q 403 88 403 95 q 406 78 406 81 q 406 74 406 74 q 401 64 406 72 q 385 45 396 56 q 364 22 374 34 q 346 0 354 11 l 346 0 "},"(":{"x_min":122,"x_max":494,"ha":540,"o":"m 378 894 l 488 894 l 493 861 q 493 859 493 860 q 494 859 493 859 q 494 856 494 857 q 494 856 494 856 q 494 856 494 856 q 494 856 494 856 q 494 854 494 854 q 494 854 494 854 q 483 836 494 853 q 451 788 473 820 q 419 729 430 756 q 408 682 408 703 q 408 676 408 679 q 410 670 408 672 q 410 663 410 667 q 410 656 410 660 q 411 645 411 649 q 411 639 411 640 q 411 634 411 638 q 410 628 411 631 q 409 622 410 625 q 405 614 408 618 l 324 388 q 301 314 312 350 q 284 243 291 278 q 273 178 277 208 q 269 124 269 149 q 279 49 269 85 q 310 -20 289 12 q 314 -27 313 -24 q 319 -31 316 -30 q 319 -34 319 -32 q 319 -37 319 -35 q 319 -41 319 -39 q 319 -46 319 -43 l 319 -124 q 319 -133 319 -130 q 319 -138 319 -137 q 317 -142 318 -141 q 317 -144 317 -144 q 303 -135 312 -144 q 278 -110 293 -127 q 250 -73 264 -93 q 220 -28 235 -53 q 196 9 207 -9 q 176 47 185 28 q 158 86 166 67 q 145 125 151 106 q 128 206 134 165 q 122 289 122 246 q 139 466 122 381 q 189 632 156 551 q 271 779 224 714 q 378 895 317 845 l 378 894 "},"U":{"x_min":68,"x_max":804,"ha":815,"o":"m 231 839 l 249 881 q 272 882 261 881 q 297 885 284 883 q 319 889 308 887 q 342 895 331 891 q 346 895 345 895 q 349 896 348 895 q 352 896 350 896 q 353 896 353 896 q 357 896 356 896 q 359 895 357 896 q 359 894 359 895 q 360 893 360 893 q 362 892 362 893 q 362 891 362 891 l 375 762 q 375 757 375 759 q 375 752 375 755 q 375 748 375 751 q 375 744 375 746 q 371 725 375 738 q 360 691 367 712 q 303 453 321 571 q 284 217 284 334 q 284 198 284 208 q 286 179 284 188 q 286 160 286 169 q 288 143 286 151 q 385 227 336 174 q 487 352 434 280 q 584 501 540 424 q 662 662 627 578 q 667 673 665 666 q 673 688 669 680 q 683 711 679 703 q 691 720 687 719 q 728 734 711 727 q 762 746 746 741 q 788 755 779 753 q 798 758 797 758 q 800 757 800 758 q 803 755 801 756 q 803 752 803 753 q 804 749 803 751 q 804 746 804 748 q 804 742 804 745 q 797 671 804 714 q 776 566 790 627 q 761 506 769 535 q 744 447 754 476 q 724 386 734 416 q 702 326 714 356 q 656 211 680 263 q 608 116 632 159 q 560 40 584 73 q 511 -15 536 7 q 497 -17 504 -16 q 484 -18 491 -18 q 479 -19 482 -18 q 473 -20 476 -20 q 465 -20 469 -20 q 458 -21 461 -20 q 450 -21 454 -21 q 443 -21 447 -21 q 417 -21 431 -21 q 386 -16 402 -21 q 350 -13 369 -15 q 308 -6 331 -11 q 246 16 277 0 q 184 58 215 33 q 131 108 154 81 q 91 163 108 134 q 81 189 86 176 q 74 216 76 202 q 69 250 71 230 q 68 297 68 270 q 68 418 68 358 q 77 538 68 478 q 93 659 84 599 q 115 778 102 719 q 119 797 118 790 q 122 805 120 804 q 128 810 123 808 q 141 813 133 812 l 231 839 l 231 839 "},"Ñ":{"x_min":31,"x_max":846.328125,"ha":869,"o":"m 31 84 q 42 282 31 183 q 69 479 53 382 q 108 672 86 576 q 157 862 130 768 l 225 897 q 315 880 278 887 q 373 865 353 872 q 405 853 394 860 q 416 840 416 847 q 416 838 416 839 q 416 836 416 837 q 414 833 414 835 q 414 830 414 832 l 400 768 l 472 705 q 493 562 482 630 q 518 432 504 493 q 547 316 532 369 q 578 220 563 263 q 636 335 610 272 q 685 473 663 398 q 725 631 708 547 q 753 808 742 715 q 761 819 757 814 q 769 830 765 825 q 778 841 774 836 q 786 853 782 847 q 806 876 796 864 q 831 903 817 889 l 846 898 q 790 510 819 680 q 724 216 760 340 q 655 32 689 93 q 586 -28 621 -28 q 583 -28 585 -28 q 579 -28 582 -28 q 577 -27 578 -28 q 575 -26 577 -26 q 573 -25 574 -26 q 571 -25 572 -25 l 509 5 q 458 58 485 15 q 401 173 432 101 q 346 333 371 247 q 301 519 321 419 q 281 411 296 476 q 239 258 265 347 q 197 108 214 169 q 171 11 180 47 q 169 6 170 9 q 169 0 169 2 q 157 -21 164 -13 q 138 -29 149 -29 q 122 -21 132 -29 q 97 0 113 -13 q 66 36 83 15 q 31 83 49 56 l 31 84 m 788 1192 q 765 1106 778 1143 q 733 1046 751 1069 q 694 1010 715 1022 q 646 999 672 999 q 616 1008 636 999 q 567 1037 596 1018 q 511 1073 536 1057 q 465 1099 486 1089 q 443 1078 454 1089 q 421 1054 432 1067 q 399 1028 410 1042 q 379 1000 389 1015 l 343 1012 l 347 1026 l 322 1036 q 345 1075 332 1054 q 376 1117 358 1096 q 404 1150 394 1138 q 416 1167 414 1163 q 438 1177 427 1172 q 461 1184 449 1181 q 484 1188 474 1186 q 503 1191 495 1191 q 541 1181 518 1191 q 595 1152 564 1171 q 651 1119 626 1133 q 695 1097 676 1104 q 705 1114 699 1104 q 719 1136 711 1124 q 739 1165 731 1156 q 756 1177 747 1175 q 763 1184 760 1181 q 769 1188 767 1186 q 778 1190 774 1189 q 788 1191 782 1191 l 788 1192 "},"F":{"x_min":31,"x_max":713,"ha":721,"o":"m 116 -114 l 95 -107 l 95 12 l 86 12 l 68 -11 l 39 -9 q 37 -9 37 -9 q 35 -7 36 -9 q 33 -5 33 -6 q 31 -2 32 -4 q 33 14 31 0 q 39 56 35 30 q 80 357 63 205 q 98 663 98 509 l 64 720 l 76 784 l 204 829 q 212 843 207 836 q 224 858 217 851 q 239 872 231 865 q 257 889 247 880 q 291 911 277 904 q 315 919 306 919 q 330 918 324 919 q 342 914 336 917 q 349 909 346 913 q 353 899 351 905 l 360 876 q 401 884 381 880 q 440 889 421 889 q 460 892 450 892 q 479 892 469 892 q 497 894 487 894 q 517 894 507 894 q 604 888 567 894 q 665 867 642 881 q 701 831 689 853 q 713 778 713 809 q 706 722 713 752 q 687 660 700 692 q 657 597 675 628 q 615 534 639 566 l 597 542 q 599 561 599 552 q 602 578 599 570 q 602 586 602 583 q 603 592 602 589 q 603 600 603 596 q 603 606 603 603 q 603 618 603 613 q 603 627 603 623 q 602 636 602 633 q 602 644 602 640 q 599 658 600 651 q 597 670 599 665 q 587 672 592 672 q 578 672 582 672 q 565 672 572 672 q 549 672 558 672 q 507 669 529 672 q 461 663 485 667 q 414 651 438 658 q 367 634 390 644 l 361 619 q 329 497 343 549 q 304 411 315 445 q 321 413 313 413 q 339 416 329 414 q 356 416 347 416 q 375 419 365 416 q 412 419 393 419 q 450 419 431 419 q 542 419 503 419 q 604 409 582 419 q 640 393 628 403 q 652 370 652 384 q 649 353 652 363 q 643 329 647 343 q 636 306 639 316 q 632 289 633 296 q 536 276 585 285 q 438 252 487 267 q 339 220 389 238 q 238 179 289 203 q 208 100 225 143 q 168 9 190 57 q 133 -69 146 -38 q 116 -114 120 -100 l 116 -114 "},"­":{"x_min":26,"x_max":391.28125,"ha":475,"o":"m 26 329 l 56 353 q 73 348 64 350 q 91 344 81 346 q 109 343 99 343 q 130 343 119 343 q 158 343 142 343 q 192 343 174 343 q 223 348 212 348 q 241 348 235 348 q 272 348 256 348 q 305 344 288 348 q 339 341 320 343 q 373 336 357 339 l 373 241 l 391 199 l 367 179 q 350 187 359 183 q 331 193 341 192 q 321 196 326 194 q 312 199 316 197 q 301 199 306 199 q 291 200 296 200 q 263 198 280 200 q 223 192 246 196 q 182 187 199 189 q 153 185 164 185 q 102 193 126 185 q 60 218 78 201 q 34 257 42 235 q 26 305 26 279 l 26 329 l 26 329 "},":":{"x_min":25,"x_max":271,"ha":349,"o":"m 50 436 q 66 476 52 460 q 105 497 80 492 q 111 499 108 499 q 118 502 115 500 q 123 502 120 502 q 129 504 126 503 q 135 512 131 507 q 144 522 138 517 q 163 539 154 533 q 180 546 172 546 q 220 543 204 546 q 248 539 237 541 q 265 532 259 536 q 271 521 271 528 l 271 521 l 268 497 l 268 472 l 251 430 q 242 417 248 423 q 229 404 236 411 q 213 389 222 397 q 194 373 204 382 q 187 370 191 372 q 179 366 183 369 q 144 348 158 354 q 122 343 130 343 q 111 343 116 343 q 99 345 106 344 q 94 347 97 347 q 88 349 91 348 q 83 352 86 351 q 77 355 80 354 l 50 436 l 50 436 m 25 36 l 25 83 q 27 94 25 89 q 31 101 30 98 q 38 107 34 105 q 47 111 41 110 l 95 117 q 107 118 102 117 q 113 121 112 119 q 118 126 116 123 q 120 130 119 128 l 130 150 l 169 164 l 183 159 l 224 153 q 236 148 231 150 q 243 141 240 146 q 247 130 245 137 q 251 111 249 122 q 244 83 248 97 q 234 55 240 69 q 221 30 229 43 q 202 7 213 18 l 180 2 l 147 -11 q 134 -13 141 -11 q 116 -17 126 -15 q 99 -24 106 -22 q 86 -26 91 -26 q 83 -26 84 -26 q 81 -26 81 -26 q 79 -25 80 -25 q 76 -25 77 -25 q 72 -22 74 -23 q 69 -22 70 -22 l 36 8 q 31 14 33 11 q 26 21 29 18 q 25 28 25 25 q 25 34 25 32 l 25 36 "},"Û":{"x_min":68,"x_max":804,"ha":815,"o":"m 231 839 l 249 881 q 272 882 261 881 q 297 885 284 883 q 320 889 308 887 q 342 895 332 891 q 347 895 345 895 q 349 896 348 895 q 352 896 351 896 q 353 896 353 896 q 357 896 356 896 q 359 895 357 896 q 359 894 359 895 q 360 893 360 893 q 362 892 362 893 q 362 891 362 891 l 375 762 q 375 757 375 759 q 375 752 375 755 q 375 748 375 751 q 375 744 375 746 q 371 725 375 738 q 360 691 367 712 q 303 453 322 571 q 284 217 284 334 q 284 198 284 208 q 286 179 284 188 q 286 160 286 169 q 288 143 286 151 q 385 227 336 174 q 487 352 434 280 q 583 501 540 424 q 662 662 627 578 q 667 673 665 666 q 673 688 669 680 q 683 711 679 703 q 691 720 687 719 q 728 734 711 727 q 762 746 745 741 q 788 755 779 753 q 798 758 797 758 q 800 757 800 758 q 803 755 801 756 q 803 752 803 753 q 804 749 803 751 q 804 746 804 748 q 804 742 804 745 q 797 671 804 714 q 776 566 790 627 q 761 506 769 535 q 744 447 754 476 q 724 386 734 416 q 702 326 713 356 q 656 211 680 263 q 608 116 631 159 q 560 40 584 73 q 511 -15 536 7 q 497 -17 504 -16 q 484 -18 491 -18 q 479 -19 481 -18 q 473 -20 476 -20 q 465 -20 469 -20 q 458 -21 461 -20 q 450 -21 454 -21 q 443 -21 447 -21 q 417 -21 431 -21 q 386 -16 402 -21 q 350 -13 369 -15 q 308 -6 331 -11 q 246 16 277 0 q 184 58 215 33 q 131 108 154 81 q 91 163 108 134 q 81 189 86 176 q 74 216 76 202 q 69 250 71 230 q 68 297 68 270 q 68 418 68 358 q 77 538 68 478 q 93 659 84 599 q 115 778 102 719 q 119 797 118 790 q 122 805 120 804 q 128 810 123 808 q 141 813 133 812 l 231 839 l 231 839 m 332 976 q 329 979 330 977 q 329 983 329 980 q 328 984 329 983 q 328 986 328 986 q 328 991 328 989 q 328 994 328 993 q 328 997 328 996 q 328 1000 328 998 q 328 1001 328 1000 q 328 1004 328 1003 q 328 1008 328 1007 q 329 1011 328 1009 l 345 1023 l 352 1053 q 370 1078 355 1062 q 415 1117 385 1094 q 441 1137 430 1128 q 462 1154 452 1146 q 484 1171 473 1161 q 509 1192 495 1181 q 554 1223 533 1213 q 593 1234 574 1234 q 619 1217 602 1234 q 658 1168 636 1200 q 687 1128 673 1146 q 712 1094 701 1110 l 702 1046 l 718 1023 q 718 1021 718 1022 q 719 1019 719 1021 q 720 1017 719 1018 q 721 1015 721 1016 q 721 1012 721 1014 q 722 1009 722 1011 q 722 1007 722 1008 q 722 1004 722 1005 q 720 991 722 997 q 715 980 719 986 q 708 973 712 975 q 699 971 704 971 l 566 1082 q 492 1048 526 1064 q 430 1021 458 1033 q 378 997 402 1008 q 332 975 353 986 l 332 976 "},"*":{"x_min":132,"x_max":598,"ha":694,"o":"m 258 405 l 220 489 l 271 590 q 228 586 249 586 q 187 582 208 586 q 154 580 165 582 q 144 579 144 579 q 137 580 140 579 q 133 583 134 581 q 132 590 132 586 q 132 605 132 595 q 138 644 132 629 q 158 669 144 659 q 197 685 170 679 q 266 691 224 691 q 226 748 242 725 q 203 784 210 772 q 193 809 196 798 q 190 826 190 819 q 195 843 190 834 q 213 862 201 852 q 237 877 226 872 q 258 882 248 882 q 271 868 262 882 q 292 827 280 855 q 321 777 306 801 q 351 729 335 753 l 410 844 q 421 866 416 854 q 433 891 427 877 q 442 909 438 902 q 449 916 446 915 l 456 918 q 476 911 468 916 q 488 897 485 907 q 491 870 491 887 q 491 827 491 852 q 483 784 491 809 q 456 725 474 758 q 451 716 453 719 q 448 709 449 712 q 488 716 467 712 q 531 725 509 719 q 567 732 555 730 q 581 735 579 735 q 589 733 586 735 q 593 728 592 732 q 597 718 596 725 q 598 702 598 712 q 596 686 598 694 q 592 670 595 677 q 585 656 589 662 q 577 645 581 651 q 548 631 567 637 q 496 622 528 626 q 478 619 487 620 q 462 618 470 618 q 448 615 455 616 q 435 612 441 613 q 458 585 445 599 q 485 551 470 570 q 523 503 510 520 q 537 481 537 485 q 534 468 537 474 q 525 459 531 462 q 513 453 520 455 q 496 451 506 451 q 469 455 482 451 q 442 467 455 459 q 410 497 430 476 q 363 553 391 519 q 335 508 349 530 q 308 469 320 487 q 281 434 294 451 q 258 403 269 417 l 258 405 "},"°":{"x_min":24,"x_max":434,"ha":458,"o":"m 230 903 q 183 894 204 903 q 144 868 163 886 q 118 830 126 851 q 110 784 110 809 q 118 739 110 759 q 144 700 126 718 q 182 674 161 683 q 229 665 203 665 q 274 674 253 665 q 313 701 295 683 q 338 740 329 719 q 347 784 347 761 q 338 830 347 809 q 313 868 329 851 q 274 894 295 886 q 230 903 253 903 l 230 903 m 230 990 q 308 975 273 990 q 374 930 343 961 q 419 863 404 900 q 434 783 434 826 q 419 705 434 741 q 374 639 404 669 q 307 593 343 608 q 228 578 271 578 q 149 593 185 578 q 82 637 112 608 q 38 704 53 668 q 24 783 24 740 q 38 864 24 828 q 83 930 53 900 q 150 975 114 961 q 230 990 186 990 l 230 990 "},"V":{"x_min":46,"x_max":722.390625,"ha":752,"o":"m 184 162 q 146 268 164 211 q 113 390 128 326 q 90 525 99 455 q 82 672 82 595 l 56 672 l 51 672 q 49 671 50 671 q 49 672 49 671 q 46 672 47 672 q 46 672 46 672 q 46 675 46 673 q 46 680 46 677 q 49 714 46 694 q 58 761 53 734 q 69 803 65 788 q 76 822 73 818 q 86 829 79 824 q 107 838 93 833 q 132 847 122 845 q 148 850 143 850 q 164 806 151 850 q 197 674 176 762 q 241 499 216 586 q 296 326 266 412 l 621 905 q 623 909 622 907 q 626 912 625 911 q 630 914 627 914 q 633 917 632 915 q 643 907 636 917 q 665 877 651 897 q 679 858 672 868 q 694 840 686 848 q 708 823 701 831 q 722 806 715 815 q 711 775 716 791 q 704 743 707 759 q 699 709 701 726 q 697 672 697 691 q 699 640 697 655 q 702 609 701 625 q 709 581 705 595 q 719 551 714 566 q 638 386 683 466 q 540 233 593 307 q 426 90 489 159 q 293 -40 364 22 q 240 -1 265 -20 q 194 40 215 18 q 161 74 172 62 q 150 91 150 87 q 150 94 150 93 q 153 97 151 95 q 153 101 153 99 q 155 104 154 102 l 184 162 l 184 162 "},"å":{"x_min":-5,"x_max":529.390625,"ha":547,"o":"m 200 786 q 199 787 199 786 q 199 790 199 788 q 193 810 194 802 q 191 824 191 819 q 205 879 191 852 q 247 932 219 905 q 304 972 275 959 q 366 985 334 985 q 430 973 401 985 q 483 939 459 962 q 518 886 507 915 q 529 825 529 858 q 516 757 529 788 q 478 698 504 726 q 422 656 451 670 q 358 643 393 643 q 303 652 329 643 q 254 679 277 661 q 216 722 232 698 q 194 774 201 745 l 200 786 l 200 786 m 450 779 q 452 782 452 780 q 452 786 452 784 q 453 791 453 788 q 453 798 453 794 q 445 839 453 822 q 422 870 437 856 q 388 890 408 884 q 342 897 368 897 q 329 896 336 897 q 318 896 323 896 q 311 894 315 894 q 305 892 308 894 q 288 886 297 889 q 269 876 279 882 q 286 814 276 841 q 311 767 297 787 q 343 739 326 749 q 382 729 361 729 q 405 732 394 729 q 425 741 416 736 q 439 757 433 748 q 450 777 445 766 l 450 779 m 268 188 q 176 120 218 149 q 103 70 135 91 q 52 37 71 48 q 28 26 33 26 q 12 32 18 26 q 0 48 6 38 q -2 75 0 59 q -5 113 -5 91 q 5 202 -5 156 q 38 297 15 248 q 96 400 61 345 q 177 511 130 454 q 177 513 177 512 q 177 515 177 514 q 175 517 175 516 q 175 518 175 518 q 175 518 175 518 q 175 521 175 519 q 174 521 174 521 q 174 522 174 522 q 174 527 174 525 q 177 530 175 529 q 177 532 177 532 q 178 534 178 533 q 178 535 178 534 q 179 537 179 536 l 241 591 l 251 601 q 255 598 252 599 q 261 594 258 597 q 272 586 265 593 q 288 573 279 580 q 299 577 293 575 q 313 583 305 579 q 327 590 322 587 q 334 593 333 593 q 356 581 341 593 q 390 548 370 570 q 430 498 411 526 q 466 438 448 470 q 452 395 458 419 q 441 343 445 370 q 435 283 435 316 q 435 213 435 251 q 439 110 435 162 q 453 10 444 59 q 455 0 454 5 q 457 -4 455 -3 q 456 -8 457 -7 q 454 -9 455 -9 q 453 -9 454 -9 q 451 -10 453 -10 q 449 -10 450 -10 q 448 -10 448 -10 q 440 -8 447 -10 q 419 -3 433 -6 q 393 2 405 0 q 368 7 380 5 q 349 17 358 10 q 337 34 341 24 q 336 36 336 35 q 336 38 336 37 l 268 188 l 268 188 m 199 436 q 160 388 178 413 q 126 333 142 362 q 99 274 111 305 q 79 210 87 242 l 225 340 l 199 436 l 199 436 "}," ":{"x_min":0,"x_max":0,"ha":349},"0":{"x_min":36,"x_max":633.265625,"ha":700,"o":"m 408 713 q 341 589 373 652 q 281 460 309 526 q 232 327 255 395 q 190 190 209 259 q 316 258 260 219 q 412 344 372 296 q 472 443 452 392 q 493 547 493 494 q 488 591 493 570 q 472 633 483 612 q 446 672 462 652 q 408 712 430 692 l 408 713 m 397 788 l 426 822 q 523 759 483 791 q 588 692 563 727 q 621 615 610 658 q 633 520 633 572 q 633 392 633 447 q 623 305 633 338 q 605 244 617 271 q 576 194 593 216 q 555 169 566 181 q 531 144 544 156 q 519 131 526 137 q 505 119 512 126 q 459 84 483 101 q 408 52 435 67 q 355 21 380 34 q 306 0 330 9 q 265 -12 284 -7 q 234 -17 247 -17 q 201 -12 216 -17 q 172 1 185 -7 q 143 27 158 10 q 113 67 129 44 q 78 128 92 99 q 54 180 63 156 q 40 230 45 205 q 36 280 36 255 q 42 368 36 320 q 59 467 48 416 q 86 569 70 520 q 120 665 102 619 q 151 724 134 697 q 185 777 167 752 q 227 827 204 802 q 281 877 251 852 q 314 861 298 870 q 344 840 330 851 q 372 816 359 830 q 397 787 385 802 l 397 788 "},"¾":{"x_min":20.390625,"x_max":1091.453125,"ha":1115,"o":"m 1005 110 q 1026 104 1016 106 q 1047 99 1037 102 q 1058 97 1052 98 q 1069 97 1063 97 q 1080 94 1074 95 q 1091 92 1085 94 l 1077 69 q 1060 64 1069 66 q 1040 59 1051 62 q 1019 56 1030 58 q 995 54 1007 55 l 971 -47 q 969 -52 970 -50 q 967 -55 969 -54 q 964 -57 966 -57 q 960 -57 963 -57 q 953 -52 959 -57 q 938 -36 947 -47 q 920 -14 929 -26 q 901 9 910 -1 l 906 55 q 867 64 884 59 q 837 73 849 69 q 814 81 824 77 q 796 87 803 84 q 750 124 769 108 q 721 152 731 141 q 706 176 712 165 q 701 199 701 188 q 707 239 701 215 q 728 294 714 263 q 767 378 742 326 q 831 501 792 430 l 884 477 q 909 460 899 467 q 924 447 919 454 q 933 433 931 441 q 936 416 936 426 q 925 374 936 404 q 892 299 915 345 q 855 215 870 255 q 828 142 840 176 q 850 135 840 138 q 872 130 860 133 q 895 125 883 127 q 922 120 908 123 l 953 287 q 965 340 960 313 q 974 397 970 367 q 982 439 980 424 q 987 454 985 454 q 1005 445 995 454 q 1024 422 1014 437 q 1041 388 1035 406 q 1047 348 1047 369 q 1044 311 1047 334 q 1035 256 1042 288 q 1022 189 1030 226 q 1005 109 1014 152 l 1005 110 m 762 866 l 813 866 l 830 879 l 902 879 l 365 47 q 359 37 362 40 q 353 32 356 34 q 347 29 351 30 q 341 28 344 28 l 319 28 l 270 -17 l 207 -17 l 762 866 l 762 866 m 45 866 q 183 854 119 866 q 301 823 248 843 q 347 803 327 813 q 380 782 368 792 q 400 761 394 771 q 407 740 407 752 q 397 721 407 732 q 368 694 387 710 q 307 652 348 679 q 205 588 266 626 q 282 549 249 566 q 333 517 314 531 q 362 493 352 504 q 372 473 372 483 q 361 451 372 463 q 330 423 351 438 q 285 395 309 408 q 231 372 260 381 q 194 359 213 365 q 157 351 175 354 q 123 345 139 347 q 89 343 106 343 q 66 354 77 347 q 46 370 56 361 q 31 391 38 380 q 20 415 24 402 q 94 426 60 420 q 150 438 127 433 q 191 452 174 445 q 220 466 209 459 q 189 491 205 480 q 156 510 173 502 q 123 525 139 519 q 87 536 106 531 q 71 552 78 542 q 56 574 63 562 q 47 597 50 587 q 44 613 44 606 q 65 646 44 626 q 130 693 87 666 q 156 708 145 701 q 175 720 167 715 q 193 734 185 727 q 206 745 200 740 q 216 756 213 751 q 219 763 219 761 q 207 780 219 772 q 175 797 196 788 q 126 811 153 805 q 64 820 99 816 l 45 868 l 45 866 "},"@":{"x_min":60,"x_max":1329.390625,"ha":1389,"o":"m 791 183 q 751 134 772 154 q 704 99 729 113 q 651 79 681 85 q 589 72 622 72 q 495 87 536 72 q 426 131 454 102 q 384 203 398 160 q 371 303 371 246 q 394 452 371 385 q 465 575 418 519 q 571 657 512 629 q 697 685 629 685 q 749 679 725 685 q 792 663 772 674 q 829 635 813 652 q 858 596 844 618 l 894 664 l 1013 664 l 915 258 q 913 249 913 253 q 911 242 912 244 q 911 235 911 237 q 910 229 911 232 q 914 208 910 217 q 926 193 918 200 q 946 184 934 187 q 974 181 958 181 q 992 183 983 181 q 1011 187 1001 185 q 1020 191 1015 189 q 1029 194 1025 193 q 1057 211 1044 201 q 1083 232 1070 221 q 1134 292 1112 260 q 1172 360 1157 324 q 1195 436 1187 396 q 1203 519 1203 476 q 1171 668 1203 601 q 1076 786 1140 735 q 932 865 1013 839 q 751 892 851 892 q 659 885 704 892 q 573 868 615 879 q 496 839 533 857 q 425 800 458 822 q 323 712 366 761 q 247 605 279 664 q 200 485 216 549 q 185 351 185 421 q 220 165 185 247 q 325 19 255 82 q 489 -71 396 -39 q 700 -102 583 -102 q 809 -94 755 -102 q 915 -69 863 -85 q 1016 -28 968 -52 q 1109 25 1065 -5 l 1165 -52 q 1059 -120 1114 -91 q 946 -169 1004 -149 q 827 -198 887 -188 q 702 -208 766 -208 q 578 -199 639 -208 q 464 -176 518 -191 q 361 -135 409 -159 q 269 -78 312 -110 q 178 8 218 -37 q 112 108 139 54 q 73 221 86 161 q 60 350 60 282 q 69 461 60 407 q 96 567 78 515 q 140 664 114 618 q 201 753 166 711 q 311 861 251 814 q 441 939 372 908 q 591 987 512 971 q 755 1003 669 1003 q 866 994 812 1003 q 970 971 920 986 q 1066 935 1022 957 q 1147 885 1109 912 q 1227 809 1193 850 q 1283 722 1261 768 q 1318 625 1307 676 q 1329 517 1329 574 q 1318 409 1329 461 q 1284 310 1307 357 q 1230 222 1262 263 q 1157 148 1198 182 q 1107 115 1133 129 q 1053 90 1080 100 q 996 75 1025 81 q 936 70 967 70 q 874 77 901 70 q 828 99 847 85 q 800 134 809 113 q 791 182 791 156 l 791 183 m 825 473 q 811 521 821 500 q 786 557 801 543 q 751 578 771 571 q 706 585 731 585 q 633 564 667 585 q 572 501 600 543 q 529 408 543 458 q 515 299 515 358 q 521 244 515 268 q 541 204 527 221 q 576 180 557 188 q 622 173 596 173 q 676 183 650 173 q 725 214 701 193 q 764 263 749 236 q 788 325 779 290 l 825 473 l 825 473 "},"ö":{"x_min":29,"x_max":514,"ha":500,"o":"m 143 342 q 138 317 140 329 q 134 295 136 306 q 132 276 132 285 q 132 256 132 266 q 134 226 132 238 q 141 205 136 213 q 153 194 145 198 q 172 190 161 190 q 200 194 186 190 q 229 208 215 198 q 257 231 244 217 q 281 259 269 244 q 252 283 267 272 q 219 304 237 294 q 196 317 208 310 q 170 329 184 323 q 156 335 163 331 q 143 341 149 338 l 143 342 m 64 368 q 55 374 59 370 q 48 384 51 379 q 44 394 46 390 q 42 402 42 398 q 48 417 42 406 q 69 444 55 427 q 99 475 83 459 q 137 508 116 491 q 163 527 152 519 q 182 537 175 534 q 199 543 190 541 q 218 546 208 546 q 293 532 254 546 q 371 490 332 518 q 431 436 411 462 q 452 387 452 411 q 447 363 452 379 q 433 324 443 348 q 414 278 425 302 q 388 227 403 253 q 356 169 374 198 q 319 113 339 141 q 282 64 300 87 q 247 23 264 41 q 222 5 237 14 q 184 -9 207 -2 q 142 -21 162 -17 q 104 -26 122 -26 q 72 -17 86 -26 q 48 7 58 -8 q 33 51 38 25 q 29 112 29 77 q 31 176 29 144 q 39 241 34 208 q 50 306 43 274 q 64 366 57 337 l 64 368 m 427 651 q 425 650 425 650 q 425 650 425 650 q 420 647 422 648 q 417 646 418 646 q 406 655 411 646 q 397 680 401 664 q 391 715 393 697 q 389 752 389 734 q 389 752 389 752 q 389 754 389 752 q 388 754 388 754 q 388 755 388 755 q 388 760 388 758 q 388 764 388 762 q 388 767 388 765 q 388 769 388 768 q 388 772 388 771 q 389 775 389 774 q 392 781 390 778 q 397 789 394 784 q 407 791 403 790 q 415 792 412 792 q 421 792 418 792 q 426 792 424 792 q 438 791 432 792 q 452 791 445 791 q 458 789 454 789 q 464 787 461 789 q 485 782 474 786 q 507 774 496 779 q 507 771 507 772 q 508 770 507 770 q 508 767 508 768 q 508 764 508 765 q 510 759 509 761 q 511 755 511 756 q 511 747 511 754 q 513 729 511 740 q 513 718 513 723 q 514 709 513 713 q 514 701 514 705 q 514 693 514 697 q 510 663 514 676 q 500 644 507 651 q 482 631 494 637 q 456 622 471 626 q 446 626 450 624 q 439 633 442 629 q 432 640 435 636 q 427 650 429 644 l 427 651 m 83 738 l 95 765 l 105 768 q 109 780 106 774 q 115 794 112 787 q 124 810 119 801 q 136 826 130 818 q 149 831 143 829 q 161 835 155 833 q 167 835 163 835 q 175 836 170 836 q 181 838 177 838 q 187 838 184 838 q 189 838 187 838 q 190 838 190 838 q 193 836 191 836 q 196 836 194 836 q 200 836 198 836 q 203 836 201 836 q 223 817 214 826 q 240 797 232 808 q 257 775 249 787 q 272 751 265 763 q 270 732 270 742 q 270 709 270 722 q 266 675 270 688 q 258 658 263 662 l 261 650 q 256 637 260 643 q 247 629 251 631 q 243 626 246 627 q 239 623 240 624 q 234 622 236 622 q 229 622 232 622 q 224 622 226 622 q 219 623 222 622 q 214 626 218 624 q 207 630 211 627 l 180 651 q 175 647 177 648 q 170 644 173 646 q 168 643 169 643 q 166 641 168 643 q 160 639 162 640 q 155 639 158 639 q 145 645 151 639 q 130 661 138 651 q 110 691 122 672 q 83 737 98 711 l 83 738 "},"i":{"x_min":-5,"x_max":339.78125,"ha":386,"o":"m 210 -15 l 124 21 q 94 55 108 27 q 65 134 79 83 q 62 146 64 141 q 59 155 60 151 l -5 160 l -5 240 q -4 241 -4 240 q -4 244 -4 242 q -4 245 -4 244 q -4 248 -4 246 q -2 248 -2 248 q -2 250 -2 249 q 5 268 -2 253 q 31 307 13 282 q 70 357 50 334 q 111 400 89 380 q 152 432 129 417 q 203 462 175 448 q 249 483 231 477 q 275 490 267 490 q 277 489 275 490 q 281 485 279 488 q 281 483 281 484 q 283 483 282 483 l 308 452 q 308 448 308 449 q 310 445 309 448 q 310 442 310 444 q 312 439 310 441 q 312 437 312 438 q 312 434 312 435 q 310 422 312 432 q 303 394 308 412 q 271 203 285 299 q 249 7 257 106 l 210 -15 l 210 -15 m 303 762 l 339 687 q 279 630 304 653 q 235 591 253 606 q 201 561 217 576 q 170 535 185 546 l 68 601 l 165 710 q 206 732 175 720 q 289 758 238 744 q 297 760 293 759 q 303 761 301 761 l 303 762 "},"Õ":{"x_min":37,"x_max":740,"ha":778,"o":"m 347 623 q 305 488 323 549 q 276 375 287 427 q 259 283 265 324 q 254 210 254 242 q 254 192 254 201 q 255 172 254 183 q 255 163 255 167 q 256 157 255 160 q 256 152 256 154 q 256 150 256 150 l 256 144 q 314 162 285 150 q 371 193 343 175 q 428 235 399 211 q 487 289 456 258 q 531 339 510 314 q 565 389 551 364 q 588 434 580 415 q 597 465 597 453 q 580 513 597 491 q 528 557 563 536 q 449 594 495 578 q 347 621 403 610 l 347 623 m 145 827 q 152 826 148 826 q 162 827 156 826 q 195 830 181 830 q 217 832 209 830 l 251 893 q 490 876 394 893 q 638 827 587 859 q 714 740 688 796 q 740 604 740 684 q 727 481 740 545 q 688 350 714 417 q 627 221 663 283 q 548 101 592 158 q 499 46 524 71 q 449 7 474 22 q 398 -14 424 -6 q 346 -22 373 -22 q 314 -17 332 -22 q 272 -2 295 -12 q 228 17 251 4 q 183 47 206 30 q 117 103 145 75 q 71 160 89 132 q 46 219 55 187 q 37 286 37 251 q 45 353 37 314 q 67 439 53 392 q 104 541 82 486 q 153 657 126 596 q 140 659 146 659 q 128 662 134 660 q 117 662 123 662 q 106 664 112 663 q 88 666 96 665 q 71 667 80 667 l 145 827 l 145 827 m 706 1192 q 683 1106 696 1143 q 652 1046 670 1069 q 612 1010 634 1022 q 564 999 591 999 q 535 1008 555 999 q 485 1037 515 1018 q 430 1073 455 1057 q 384 1099 405 1089 q 362 1078 373 1089 q 339 1054 351 1067 q 318 1028 328 1042 q 298 1000 307 1015 l 260 1012 l 265 1026 l 241 1036 q 264 1075 251 1054 q 295 1117 277 1096 q 323 1150 313 1138 q 334 1167 333 1163 q 356 1177 345 1172 q 380 1184 367 1181 q 403 1188 392 1186 q 421 1191 413 1191 q 460 1181 437 1191 q 513 1152 483 1171 q 569 1119 545 1133 q 612 1097 594 1104 q 623 1114 617 1104 q 637 1136 630 1124 q 657 1165 648 1156 q 674 1177 665 1175 q 681 1184 678 1181 q 688 1188 685 1186 q 695 1190 690 1189 q 706 1191 700 1191 l 706 1192 "},"þ":{"x_min":0,"x_max":488,"ha":532,"o":"m 178 40 q 203 70 188 52 q 236 110 217 88 q 310 208 285 172 q 336 257 336 245 q 331 269 336 263 q 317 277 327 275 q 294 282 309 280 q 256 285 279 285 q 254 285 255 285 q 251 285 252 285 q 248 283 250 283 q 245 283 247 283 q 238 283 243 283 q 230 283 234 283 q 214 210 222 244 q 201 147 206 176 q 189 92 195 119 q 178 38 183 65 l 178 40 m 22 -305 q 42 -153 29 -237 q 56 26 56 -70 q 56 184 56 125 q 56 261 56 242 l 16 261 l 9 261 q 5 261 7 259 q 2 263 4 262 q 0 270 1 266 q 0 280 0 273 q 4 303 0 285 q 14 352 8 321 q 25 417 21 386 q 32 477 29 448 l 94 495 q 104 555 98 522 q 117 623 110 587 q 132 710 123 660 q 154 825 141 761 l 203 836 l 219 879 q 219 879 219 878 q 221 881 219 879 q 222 883 221 882 q 225 884 223 884 q 231 888 227 886 q 237 889 234 889 l 323 889 q 328 890 326 890 q 331 888 330 889 q 332 887 331 888 q 333 886 333 886 q 334 884 333 885 q 335 882 335 884 q 328 847 335 878 q 309 757 321 815 q 286 639 297 697 q 266 522 276 580 q 293 525 281 525 q 315 528 305 525 q 333 528 324 528 q 351 528 342 528 q 409 523 384 528 q 453 508 434 519 q 478 484 469 498 q 488 451 488 471 q 483 390 488 422 q 472 322 479 358 q 458 263 465 287 q 441 226 450 238 q 414 192 436 213 q 355 138 391 170 q 272 70 318 106 q 171 -4 226 34 l 128 -219 l 49 -308 l 22 -305 l 22 -305 "},"]":{"x_min":-19.765625,"x_max":388.640625,"ha":540,"o":"m 296 902 q 306 901 300 900 q 321 903 313 902 q 345 905 336 905 q 359 905 354 905 q 377 904 370 905 q 386 899 385 903 q 388 885 389 896 q 386 856 386 874 l 386 831 q 386 731 386 797 q 372 564 386 664 q 363 459 367 506 q 356 380 359 413 l 346 377 q 318 169 332 260 q 288 12 303 78 q 260 -83 274 -51 q 235 -116 246 -116 q 235 -116 235 -116 q 235 -116 235 -116 q 234 -116 234 -116 q 234 -116 234 -116 q 233 -116 234 -116 q 233 -116 233 -116 q 232 -115 233 -116 q 231 -114 231 -114 q 231 -115 231 -114 q 233 -116 231 -116 q 233 -116 233 -116 q 233 -117 233 -117 q 233 -119 233 -119 q 233 -119 233 -119 q 220 -131 233 -126 q 180 -140 207 -137 q 110 -143 153 -143 q 7 -143 67 -143 l -18 -143 q -17 -142 -17 -144 q -17 -138 -17 -141 q -17 -133 -17 -137 q -19 -124 -18 -130 q -17 -116 -18 -120 q -15 -109 -17 -112 q -12 -103 -14 -105 q -7 -100 -10 -101 q -3 -99 -5 -100 q 3 -97 0 -98 q 55 -86 30 -91 q 102 -73 79 -80 q 126 10 114 -33 q 149 103 138 54 q 169 206 160 153 q 185 319 178 260 q 185 319 185 319 q 185 319 185 319 q 178 321 180 319 q 176 327 176 323 l 176 337 q 182 386 176 342 q 202 511 189 430 q 224 674 215 593 q 234 834 234 754 q 233 834 235 834 q 229 834 231 834 q 225 834 226 834 q 221 834 224 834 q 218 834 220 834 q 214 835 217 834 q 211 835 213 835 q 207 835 210 835 l 170 835 q 151 835 159 835 q 140 837 143 836 q 136 843 138 840 q 135 850 135 846 q 139 872 135 862 q 152 885 143 881 q 182 893 160 890 q 239 895 204 895 q 256 895 249 895 q 267 895 263 895 q 272 895 270 895 q 277 895 274 895 q 281 895 278 895 q 285 895 284 895 l 296 902 l 296 902 "},"m":{"x_min":32,"x_max":761,"ha":836,"o":"m 75 461 q 106 478 88 468 q 145 503 123 489 q 193 531 176 522 q 211 541 209 541 q 216 541 214 541 q 219 539 218 541 q 221 539 221 539 q 223 539 222 539 l 258 528 q 258 527 258 527 q 260 525 259 527 q 262 524 262 525 q 263 523 263 523 q 265 521 265 522 q 265 519 265 520 q 264 516 265 518 q 262 509 263 513 q 236 417 245 467 q 228 310 228 367 q 238 327 233 318 q 251 346 244 336 q 263 365 256 356 q 277 382 270 373 q 310 419 292 400 q 346 459 327 438 q 384 456 364 459 q 424 447 403 453 q 470 435 445 442 q 521 417 495 428 q 551 439 537 429 q 579 456 565 449 q 605 466 594 463 q 626 470 616 470 q 650 467 637 470 q 680 460 663 465 q 713 449 695 456 q 748 432 730 442 q 754 413 751 422 q 758 393 756 403 q 761 374 761 383 q 761 357 761 365 q 756 280 761 318 q 744 204 752 242 q 727 145 736 165 q 712 121 719 125 l 656 98 q 654 87 655 91 q 649 75 652 82 q 647 71 648 73 q 645 68 647 69 q 642 59 644 64 q 637 51 640 55 l 549 27 q 551 38 551 32 q 554 50 552 44 q 556 62 555 55 q 557 73 557 68 q 557 98 557 86 q 557 122 557 111 q 557 167 557 146 q 551 207 557 189 q 546 242 551 225 q 537 276 542 260 q 486 198 513 233 q 427 135 459 162 q 372 91 396 105 q 330 78 348 78 q 310 83 319 78 q 294 98 301 89 q 285 125 288 109 q 283 164 283 141 q 283 182 283 172 q 285 205 283 193 q 289 234 287 219 q 294 267 291 249 q 254 214 276 244 q 209 147 233 185 q 163 64 187 108 q 113 -27 138 21 l 37 -40 q 33 -10 35 -26 q 32 22 32 4 q 32 60 32 40 q 32 100 32 79 q 32 189 32 144 q 38 278 32 233 q 46 324 42 301 q 55 370 50 346 q 64 415 59 392 q 75 460 69 438 l 75 461 "},"8":{"x_min":62,"x_max":655,"ha":699,"o":"m 334 292 q 303 258 315 274 q 281 226 291 241 q 268 196 272 210 q 263 169 263 181 q 265 149 263 159 q 271 130 267 140 q 282 110 275 120 q 296 91 288 101 q 328 63 313 73 q 357 54 343 54 q 376 57 368 54 q 389 69 384 60 q 398 88 395 76 q 401 113 401 99 q 396 149 401 128 q 382 192 391 169 q 373 217 378 205 q 360 242 367 230 q 347 266 354 253 q 334 291 340 278 l 334 292 m 62 754 l 121 820 q 188 838 154 830 q 254 852 221 847 q 321 862 288 859 q 388 865 354 865 q 495 853 448 865 q 581 822 543 842 q 636 772 617 799 q 655 712 655 745 q 643 669 655 694 q 607 612 631 644 q 539 528 584 580 q 430 405 495 475 q 466 348 450 374 q 491 299 481 323 q 505 256 500 277 q 510 216 510 235 q 495 126 510 169 q 449 45 480 84 q 384 -9 418 8 q 310 -28 349 -28 q 222 -10 264 -28 q 145 42 181 6 q 91 122 109 80 q 73 212 73 165 q 80 269 73 240 q 103 330 88 299 q 148 402 120 362 q 218 492 176 442 q 197 530 208 512 q 171 564 185 548 q 150 592 157 582 q 144 603 144 602 q 144 604 144 603 q 145 606 144 605 q 145 607 145 606 q 145 607 145 607 q 146 609 145 609 q 147 612 147 610 q 147 612 147 612 q 148 614 148 613 l 166 657 q 166 658 166 657 q 167 660 166 659 q 167 661 167 660 q 168 662 167 662 q 169 663 168 662 q 169 664 169 664 q 183 657 172 664 q 213 636 194 650 q 250 605 231 622 q 288 569 268 588 q 335 618 314 596 q 371 656 356 641 q 402 687 387 672 q 431 716 417 703 q 366 732 403 724 q 285 744 330 739 q 185 749 241 749 q 62 749 130 749 l 62 754 "},"R":{"x_min":62,"x_max":816,"ha":860,"o":"m 288 485 q 404 493 349 485 q 511 513 460 501 q 604 540 563 525 q 675 571 645 554 q 620 606 653 590 q 547 635 588 622 q 454 658 509 647 q 329 679 399 669 l 288 483 l 288 485 m 66 773 l 84 860 q 154 864 122 860 q 211 874 186 868 q 257 886 236 880 q 295 898 278 893 q 452 874 379 889 q 584 840 524 860 q 693 800 645 822 q 775 753 741 779 q 793 682 785 715 q 806 616 800 648 q 813 563 811 586 q 816 525 816 540 q 813 499 816 511 q 809 479 811 487 q 797 465 804 471 q 779 455 791 460 q 738 442 766 450 q 667 435 710 435 q 572 435 625 435 q 454 435 520 435 q 411 435 432 435 q 368 435 389 435 q 329 435 347 435 q 295 435 311 435 q 402 330 346 379 q 521 240 459 280 q 654 163 584 199 q 803 97 724 128 l 797 65 q 742 49 767 58 q 695 26 717 39 q 656 1 674 14 q 624 -30 639 -12 q 519 3 571 -16 q 417 49 467 22 q 318 109 367 76 q 222 180 270 142 q 217 140 220 160 q 211 103 214 121 q 206 69 209 85 q 200 40 203 54 q 189 0 195 12 q 179 -12 184 -12 q 166 -9 174 -12 q 146 -2 157 -7 q 119 10 135 0 q 79 36 103 21 q 72 44 75 39 q 66 54 68 49 q 63 69 64 60 q 62 90 62 78 q 62 96 62 93 q 63 103 62 99 q 63 111 63 107 q 63 121 63 115 q 63 142 63 132 q 63 160 63 151 q 69 306 63 233 q 85 451 75 379 q 97 526 90 489 q 113 598 104 562 q 131 671 121 635 q 152 746 141 708 q 143 749 147 747 q 132 753 138 751 q 122 756 127 754 q 111 760 117 758 q 90 766 102 762 q 66 772 78 769 l 66 773 "},"á":{"x_min":-5,"x_max":570,"ha":548,"o":"m 199 436 q 160 388 178 413 q 126 333 142 362 q 99 274 111 305 q 79 210 88 242 l 225 340 l 199 436 l 199 436 m 268 188 q 177 120 218 149 q 103 70 135 91 q 52 37 71 48 q 28 26 33 26 q 12 32 18 26 q 0 48 6 38 q -2 75 0 59 q -5 113 -5 91 q 5 202 -5 156 q 38 297 15 248 q 96 400 61 345 q 177 511 131 454 q 177 513 177 512 q 177 515 177 514 q 176 517 176 516 q 176 518 176 518 q 176 518 176 518 q 176 521 176 519 q 174 521 174 521 q 174 522 174 522 q 175 527 174 525 q 177 530 176 529 q 177 532 177 532 q 178 534 178 533 q 179 535 178 534 q 180 537 180 536 l 242 591 l 252 601 q 256 598 253 599 q 261 594 259 597 q 273 586 266 593 q 289 573 280 580 q 300 577 293 575 q 314 583 306 579 q 328 590 323 587 q 335 593 334 593 q 357 581 342 593 q 390 548 371 570 q 430 498 411 526 q 467 438 449 470 q 452 395 459 419 q 442 343 446 370 q 435 283 435 316 q 435 213 435 251 q 439 110 435 162 q 453 10 444 59 q 455 0 455 5 q 458 -4 456 -3 q 457 -8 458 -7 q 455 -9 456 -9 q 454 -9 455 -9 q 452 -10 453 -10 q 450 -10 450 -10 q 449 -10 449 -10 q 440 -8 447 -10 q 419 -3 433 -6 q 393 2 406 0 q 368 7 381 5 q 350 17 359 10 q 338 34 342 24 q 337 36 337 35 q 337 38 337 37 l 268 188 l 268 188 m 120 624 l 133 652 l 168 665 l 174 690 q 218 702 196 694 q 260 719 239 709 q 302 742 280 730 q 348 773 325 755 q 407 809 378 792 q 464 837 436 826 q 515 854 492 848 q 554 861 538 861 q 562 859 558 861 q 567 855 565 858 q 569 848 568 852 q 570 837 570 844 q 568 826 570 831 q 564 815 567 822 q 556 804 560 809 q 545 794 551 799 q 545 791 545 792 q 546 788 545 790 q 546 786 546 787 q 546 783 546 784 q 547 780 546 781 q 548 777 548 779 q 548 776 548 777 q 549 774 549 774 q 519 736 549 756 q 428 692 489 715 q 291 653 368 670 q 120 623 214 636 l 120 624 "},"×":{"x_min":186.109375,"x_max":987.5,"ha":1157,"o":"m 281 814 l 586 509 l 893 814 l 987 721 l 683 412 l 987 108 l 893 12 l 586 318 l 281 12 l 186 108 l 491 412 l 186 721 l 281 814 l 281 814 "},"o":{"x_min":29,"x_max":451,"ha":500,"o":"m 143 342 q 138 317 140 329 q 134 295 136 306 q 132 276 132 285 q 132 256 132 266 q 134 226 132 238 q 141 205 136 213 q 153 194 145 198 q 172 190 161 190 q 200 194 186 190 q 229 208 215 198 q 256 231 244 217 q 280 259 269 244 q 251 283 266 272 q 219 304 237 294 q 196 317 208 310 q 170 329 184 323 q 156 335 163 331 q 143 341 149 338 l 143 342 m 64 368 q 55 374 59 370 q 48 384 51 379 q 44 394 46 390 q 42 402 42 398 q 48 417 42 406 q 69 444 55 427 q 100 475 83 459 q 137 508 116 491 q 163 527 152 519 q 181 537 174 534 q 199 543 190 541 q 217 546 208 546 q 292 532 254 546 q 370 490 331 518 q 430 436 410 462 q 451 387 451 411 q 446 363 451 379 q 432 324 442 348 q 413 278 424 302 q 387 227 402 253 q 355 169 373 198 q 319 113 338 141 q 281 64 299 87 q 247 23 263 41 q 222 5 237 14 q 184 -9 206 -2 q 142 -21 162 -17 q 104 -26 122 -26 q 72 -17 86 -26 q 48 7 58 -8 q 33 51 38 25 q 29 112 29 77 q 31 176 29 144 q 39 241 34 208 q 50 306 43 274 q 64 366 57 337 l 64 368 "},"5":{"x_min":73.671875,"x_max":636,"ha":700,"o":"m 207 892 q 237 882 222 886 q 271 874 253 878 q 289 870 279 872 q 310 867 299 868 q 331 863 319 865 q 353 860 342 861 l 365 832 q 434 828 401 832 q 498 822 468 825 q 556 815 529 819 q 607 807 583 811 l 635 665 q 635 663 635 664 q 635 661 635 662 q 635 659 635 660 q 635 658 635 658 q 635 658 635 658 q 636 655 635 657 q 636 655 636 655 q 636 652 636 654 q 617 631 636 638 q 563 624 599 624 q 547 624 554 624 q 536 624 540 624 l 333 624 q 324 582 328 601 q 317 547 319 563 q 314 519 315 533 q 313 493 313 505 q 333 423 313 458 q 393 351 353 387 q 411 334 403 341 q 425 322 419 327 q 431 316 427 320 q 440 308 434 312 q 512 227 488 262 q 536 165 536 191 q 481 70 536 123 q 318 -47 426 16 l 313 -48 q 283 -35 299 -41 q 251 -25 268 -29 q 218 -21 236 -21 q 180 -21 200 -21 q 156 -21 168 -21 q 133 -22 144 -21 q 111 -25 122 -23 q 90 -29 101 -27 l 73 0 q 182 75 137 41 q 253 134 226 109 q 292 182 279 161 q 306 222 306 204 q 290 256 306 234 q 244 307 275 277 q 226 325 234 316 q 212 339 218 333 q 152 407 177 375 q 112 469 127 440 q 89 528 97 500 q 82 585 82 557 q 89 643 82 611 q 113 714 97 675 q 152 796 129 753 q 207 890 176 840 l 207 892 "},"õ":{"x_min":29,"x_max":530,"ha":500,"o":"m 143 342 q 138 317 140 329 q 134 295 136 306 q 132 276 132 285 q 132 256 132 266 q 134 226 132 238 q 141 205 136 213 q 153 194 145 198 q 172 190 161 190 q 200 194 186 190 q 229 208 215 198 q 256 231 244 217 q 280 259 269 244 q 251 283 266 272 q 219 304 237 294 q 196 317 208 310 q 170 329 184 323 q 156 335 163 331 q 143 341 149 338 l 143 342 m 64 368 q 55 374 59 370 q 48 384 51 379 q 44 394 46 390 q 42 402 42 398 q 48 417 42 406 q 69 444 55 427 q 100 475 83 459 q 137 508 116 491 q 163 527 152 519 q 181 537 174 534 q 199 543 190 541 q 217 546 208 546 q 292 532 254 546 q 370 490 331 518 q 430 436 410 462 q 451 387 451 411 q 446 363 451 379 q 432 324 442 348 q 413 278 424 302 q 387 227 402 253 q 355 169 373 198 q 319 113 338 141 q 281 64 299 87 q 247 23 263 41 q 222 5 237 14 q 184 -9 206 -2 q 142 -21 162 -17 q 104 -26 122 -26 q 72 -17 86 -26 q 48 7 58 -8 q 33 51 38 25 q 29 112 29 77 q 31 176 29 144 q 39 241 34 208 q 50 306 43 274 q 64 366 57 337 l 64 368 m 530 828 q 507 742 520 778 q 475 682 493 705 q 436 646 457 658 q 388 635 414 635 q 358 644 378 635 q 309 673 338 654 q 254 709 278 693 q 208 735 229 725 q 186 714 197 725 q 163 690 174 703 q 142 664 152 678 q 122 635 132 650 l 86 648 l 90 662 l 65 671 q 88 711 75 690 q 119 753 101 732 q 147 785 137 772 q 158 803 156 797 q 180 813 169 808 q 204 820 191 817 q 226 824 216 822 q 245 827 237 827 q 283 817 260 827 q 337 788 306 807 q 393 754 369 768 q 435 732 417 740 q 447 749 441 739 q 462 772 453 760 q 481 801 473 792 q 498 811 489 810 q 505 818 502 815 q 511 822 509 821 q 519 826 514 825 q 530 827 524 827 l 530 828 "},"7":{"x_min":57,"x_max":606,"ha":700,"o":"m 57 738 l 74 859 q 74 859 74 858 q 74 861 74 859 q 76 868 74 865 q 79 871 78 871 q 86 870 80 871 q 104 868 92 869 q 205 853 154 861 q 308 845 256 845 q 311 845 309 845 q 316 845 313 845 q 322 838 319 838 q 327 838 325 838 q 466 830 414 838 q 537 812 518 821 q 558 789 547 808 q 580 738 569 770 q 599 682 593 706 q 606 640 606 658 q 582 572 606 622 q 510 441 558 523 q 400 266 462 360 q 259 62 337 172 q 232 49 245 58 q 206 26 219 41 q 190 7 198 17 q 173 -16 181 -2 q 165 -31 169 -23 q 156 -47 161 -38 l 110 -57 l 106 -57 q 103 -57 105 -57 q 101 -57 102 -57 q 101 -54 101 -55 q 101 -52 101 -54 q 101 -49 101 -51 q 102 -43 101 -47 q 104 -40 104 -41 q 105 -37 104 -38 q 108 -31 106 -34 q 110 -23 109 -27 l 366 622 l 211 622 l 237 549 l 212 512 q 169 576 190 545 q 129 635 148 608 q 91 689 109 663 q 57 737 74 715 l 57 738 "},"K":{"x_min":32,"x_max":753,"ha":739,"o":"m 213 133 q 199 100 207 117 q 183 59 192 83 q 144 -27 158 1 q 128 -56 130 -56 q 125 -55 126 -56 q 123 -54 123 -54 q 121 -51 122 -53 q 118 -49 119 -50 q 109 -38 115 -46 q 97 -19 104 -30 q 86 -5 93 -14 q 73 12 80 2 q 52 45 59 33 q 46 62 46 58 q 48 84 46 63 q 57 145 51 105 q 67 230 62 187 q 77 316 72 273 q 75 316 76 316 q 75 318 75 317 q 42 366 52 343 q 32 410 32 389 q 36 438 32 424 q 48 466 40 452 q 70 501 55 481 q 107 546 84 521 q 139 718 119 637 q 185 871 158 799 q 190 887 188 881 q 192 894 192 892 q 191 899 192 896 q 188 902 190 901 q 185 906 188 905 q 182 909 183 908 q 181 910 182 909 q 179 911 181 911 l 186 933 q 189 932 188 932 q 192 933 190 932 q 194 933 193 933 q 197 933 196 933 q 205 933 201 933 q 210 933 208 933 q 258 918 233 933 q 309 874 283 903 q 315 868 312 870 q 319 864 318 866 q 326 856 322 860 q 336 848 330 852 q 367 803 356 826 q 379 759 379 780 q 374 698 379 734 q 359 616 370 662 q 336 516 349 568 q 304 402 322 463 l 337 375 q 433 495 390 438 q 510 603 476 552 q 562 686 545 655 q 579 730 579 717 q 577 737 579 734 q 572 744 576 741 q 564 748 569 746 q 554 752 559 750 q 590 803 572 780 q 626 845 608 827 q 660 873 645 864 q 684 883 674 883 q 689 882 687 883 q 694 880 691 881 q 700 878 697 878 q 706 874 704 877 l 741 849 q 746 844 744 846 q 750 838 748 841 q 753 832 753 835 q 753 827 753 830 q 729 756 753 806 q 657 625 705 706 q 549 464 609 545 q 420 297 490 382 q 522 209 470 250 q 629 128 574 167 q 708 71 681 90 q 736 51 736 52 q 736 49 736 49 q 736 47 736 48 q 733 44 734 45 q 731 43 733 43 l 665 -26 l 629 -11 q 608 -30 619 -22 q 587 -46 598 -39 q 565 -60 577 -53 q 538 -74 552 -68 q 442 -32 488 -55 q 356 12 397 -9 q 280 67 316 38 q 213 131 244 96 l 213 133 "},",":{"x_min":-1.109375,"x_max":231,"ha":349,"o":"m 42 134 q 53 147 47 140 q 67 161 60 155 q 81 173 73 168 q 97 184 89 179 q 114 182 104 182 q 137 180 125 182 q 207 167 183 175 q 231 148 231 159 q 217 98 231 130 q 176 19 204 66 q 114 -76 150 -26 q 35 -180 79 -126 l -1 -143 q 14 -70 7 -105 q 28 0 22 -34 q 32 31 30 15 q 35 66 35 48 q 38 100 36 83 q 42 133 40 116 l 42 134 "},"d":{"x_min":-5,"x_max":595.5,"ha":632,"o":"m 305 482 q 211 393 249 430 q 151 327 173 355 q 118 279 128 301 q 108 239 108 257 q 109 227 108 233 q 112 218 110 222 q 117 208 114 212 q 123 200 119 204 q 177 248 152 220 q 224 307 202 275 q 265 382 245 339 q 305 480 285 425 l 305 482 m 269 141 q 206 79 237 105 q 146 36 176 54 q 94 9 119 18 q 47 0 68 0 q 22 5 34 0 q 4 20 11 11 q -2 49 0 31 q -5 88 -5 66 q 83 311 -5 189 q 348 579 171 434 l 357 589 q 411 718 389 667 q 443 793 434 769 q 461 831 455 817 q 470 850 467 844 q 484 863 474 857 q 513 875 495 869 q 546 885 531 882 q 573 888 560 888 q 578 887 576 888 q 581 883 580 886 q 583 879 583 882 q 583 872 583 876 q 575 811 583 856 q 552 693 567 767 q 537 626 544 655 q 527 576 531 597 q 507 471 516 519 q 495 383 499 422 q 487 307 487 344 q 487 237 487 271 q 490 163 487 198 q 498 98 493 129 q 514 47 505 69 q 534 11 523 26 l 584 44 l 595 25 q 558 -20 577 0 q 520 -55 539 -40 q 484 -79 500 -70 q 457 -90 468 -88 q 397 -52 425 -75 q 343 0 368 -29 q 300 66 318 31 q 269 140 281 101 l 269 141 "},"¨":{"x_min":178,"x_max":609,"ha":695,"o":"m 521 651 q 521 650 521 650 q 521 650 521 650 q 516 647 518 648 q 512 646 514 646 q 502 655 507 646 q 493 680 497 664 q 487 715 489 697 q 485 752 485 734 q 485 752 485 752 q 485 754 485 752 q 484 754 484 754 q 484 755 484 755 q 484 760 484 758 q 484 763 484 762 q 484 766 484 765 q 484 769 484 767 q 484 772 484 770 q 485 774 485 773 q 488 781 486 777 q 491 788 490 784 q 503 789 498 789 q 509 790 508 790 q 516 790 512 790 q 521 790 519 790 q 540 790 530 790 q 559 787 550 790 q 580 782 569 785 q 603 773 591 778 q 603 770 603 772 q 603 769 603 769 q 603 766 603 767 q 604 763 604 765 q 606 758 605 760 q 607 755 607 756 q 607 747 607 754 q 607 729 607 740 q 609 709 609 719 q 609 693 609 700 q 606 664 609 676 q 596 644 603 651 q 578 631 590 637 q 550 622 566 626 q 541 626 546 624 q 534 633 537 629 q 527 640 530 636 q 521 650 523 644 l 521 651 m 178 738 l 191 765 l 201 767 q 205 780 203 773 q 211 794 208 787 q 220 809 215 801 q 230 826 225 817 q 244 831 237 829 q 257 834 251 833 q 270 836 264 835 q 283 837 276 837 q 284 837 283 837 q 286 837 285 837 q 288 836 288 836 q 290 836 289 836 q 295 836 293 836 q 299 836 297 836 q 319 817 310 826 q 336 796 328 808 q 353 775 345 787 q 368 751 361 763 q 366 732 366 742 q 366 709 366 722 q 362 675 366 688 q 354 658 359 662 l 357 650 q 351 637 354 643 q 343 629 347 631 q 334 623 339 624 q 324 622 329 622 q 320 622 322 622 q 315 623 318 622 q 310 626 314 624 q 303 630 307 627 l 276 651 q 273 647 275 648 q 269 646 271 646 q 267 644 268 644 q 267 644 267 644 q 264 643 265 643 q 261 641 262 643 q 256 639 258 640 q 251 639 254 639 q 241 645 247 639 q 226 661 235 651 q 206 691 218 672 q 178 737 194 711 l 178 738 "},"Ô":{"x_min":37,"x_max":740,"ha":778,"o":"m 347 623 q 305 488 323 549 q 276 375 287 427 q 259 283 265 324 q 254 210 254 242 q 254 192 254 201 q 255 172 254 183 q 255 163 255 167 q 256 157 255 160 q 256 152 256 154 q 256 150 256 150 l 256 144 q 314 162 285 150 q 371 193 343 175 q 428 235 399 211 q 487 289 456 258 q 531 339 510 314 q 565 389 551 364 q 588 434 580 415 q 597 465 597 453 q 580 513 597 491 q 528 557 563 536 q 449 594 495 578 q 347 621 403 610 l 347 623 m 145 827 q 152 826 147 826 q 161 827 156 826 q 195 830 181 830 q 217 832 208 830 l 251 893 q 490 876 394 893 q 638 827 587 859 q 714 740 688 796 q 740 604 740 684 q 727 481 740 545 q 688 350 715 417 q 628 221 663 283 q 548 101 592 158 q 499 46 524 71 q 449 7 474 22 q 398 -14 424 -6 q 346 -22 373 -22 q 314 -17 332 -22 q 272 -2 295 -12 q 228 17 251 4 q 182 47 206 30 q 117 103 145 75 q 71 160 89 132 q 46 219 55 187 q 37 286 37 251 q 45 353 37 314 q 67 439 53 392 q 104 541 82 486 q 153 657 125 596 q 140 659 146 659 q 128 662 134 660 q 117 662 122 662 q 106 664 111 663 q 88 666 96 665 q 71 667 79 667 l 145 827 l 145 827 m 250 976 q 247 979 248 977 q 247 983 247 980 q 246 984 247 983 q 245 986 245 986 q 245 991 245 989 q 245 994 245 993 q 245 997 245 996 q 245 1000 245 998 q 245 1001 245 1000 q 245 1004 245 1003 q 245 1008 245 1007 q 247 1011 245 1009 l 261 1023 l 270 1053 q 288 1078 272 1062 q 333 1117 303 1094 q 359 1137 348 1128 q 380 1154 370 1146 q 402 1171 391 1161 q 427 1192 413 1181 q 472 1223 451 1213 q 510 1234 492 1234 q 537 1217 520 1234 q 576 1168 553 1200 q 604 1128 591 1146 q 630 1094 617 1110 l 620 1046 l 636 1023 q 636 1019 636 1021 q 638 1015 637 1018 q 639 1012 638 1014 q 640 1009 640 1011 q 640 1007 640 1008 q 640 1004 640 1005 q 638 991 640 997 q 633 980 637 986 q 626 973 630 975 q 617 971 622 971 l 484 1082 q 409 1048 444 1064 q 348 1021 375 1033 q 295 997 320 1008 q 250 975 271 986 l 250 976 "},"E":{"x_min":43,"x_max":704,"ha":721,"o":"m 580 180 q 553 150 566 165 q 529 118 540 134 q 509 84 519 101 q 493 47 500 66 q 411 15 448 29 q 343 -3 373 1 q 287 -17 312 -12 q 243 -22 262 -22 q 196 -16 218 -22 q 158 0 174 -10 q 127 27 141 9 q 104 66 113 44 l 84 46 l 59 46 q 51 50 54 44 q 45 68 48 55 q 43 109 43 80 q 43 183 43 137 q 51 350 43 266 q 78 517 60 433 q 122 679 96 600 q 180 834 147 759 q 251 861 213 849 q 331 881 288 873 q 418 893 373 889 q 509 898 462 898 q 577 898 545 898 q 637 894 609 898 q 661 890 651 893 q 679 886 672 888 q 691 882 687 884 q 696 878 696 881 q 698 875 697 877 q 700 871 698 874 q 700 865 700 868 q 703 857 701 861 q 704 842 704 850 q 704 824 704 834 q 704 818 704 821 q 703 813 704 816 q 702 807 703 810 q 698 800 701 803 l 658 706 q 577 695 615 700 q 505 685 538 691 q 442 673 472 679 q 387 660 412 667 q 356 614 370 635 q 329 573 341 593 q 305 535 316 554 q 284 498 294 517 q 320 498 304 498 q 348 498 337 498 q 371 498 359 498 q 394 498 383 498 q 485 493 443 498 q 565 478 527 489 q 621 459 602 468 q 640 440 640 449 q 640 438 640 439 q 640 436 640 436 q 639 434 639 435 q 639 431 639 432 l 616 354 q 499 325 555 342 q 390 289 443 308 q 293 246 338 269 q 208 197 248 223 q 222 164 212 179 q 245 140 231 150 q 281 125 261 130 q 329 121 302 121 q 385 125 356 121 q 444 140 413 130 q 507 163 476 150 q 570 194 538 176 l 580 180 l 580 180 "},"Y":{"x_min":79,"x_max":720.65625,"ha":714,"o":"m 355 301 q 311 255 332 276 q 266 216 289 234 q 231 191 244 200 q 210 182 217 182 q 194 188 205 182 q 165 209 183 195 q 127 242 147 225 q 85 281 108 259 q 81 326 83 301 q 79 381 79 351 q 79 450 79 411 q 79 540 79 490 q 79 683 79 618 q 79 801 79 748 q 84 880 79 854 q 95 907 90 907 q 99 907 97 907 q 102 905 101 907 q 103 904 102 905 q 105 904 104 904 q 107 901 106 902 q 108 901 108 901 l 244 780 l 244 748 q 244 596 244 661 q 251 488 244 531 q 269 409 259 447 q 295 340 280 372 q 352 404 323 366 q 412 491 381 443 q 479 607 444 541 q 555 755 515 673 q 575 795 566 775 q 591 836 583 815 q 604 866 600 855 q 610 877 608 877 q 612 877 611 877 q 614 877 612 877 q 614 876 614 877 q 615 875 615 875 q 617 874 617 875 q 617 873 617 873 l 672 822 l 672 736 l 720 684 q 666 463 704 570 q 566 251 628 355 q 417 39 506 147 q 212 -182 329 -68 q 201 -176 206 -179 q 190 -170 195 -173 q 176 -165 183 -168 q 162 -159 169 -162 q 133 -149 148 -154 q 101 -140 117 -144 q 167 -40 134 -91 q 230 63 199 11 q 293 178 262 119 q 355 300 324 237 l 355 301 "},"\"":{"x_min":54,"x_max":404,"ha":460,"o":"m 274 975 l 404 975 l 404 596 l 274 596 l 274 975 l 274 975 m 54 975 l 183 975 l 183 596 l 54 596 l 54 975 l 54 975 "},"ê":{"x_min":-12,"x_max":445,"ha":476,"o":"m 185 238 q 221 284 204 262 q 252 330 239 307 q 279 369 268 350 q 298 401 290 387 q 259 389 276 401 q 226 357 241 378 q 202 307 212 337 q 185 237 191 277 l 185 238 m -12 120 l -12 138 q -7 209 -12 173 q 4 280 -2 245 q 27 348 14 316 q 57 406 40 380 q 87 450 72 430 q 117 485 103 470 q 143 510 132 502 q 160 519 154 519 q 174 516 164 519 q 200 512 185 514 q 234 505 216 509 q 271 494 252 500 q 309 483 291 488 q 343 471 327 478 q 368 461 358 466 q 383 453 377 456 q 387 447 384 452 q 394 431 390 442 q 403 410 398 420 q 414 392 409 401 q 350 315 384 357 q 277 224 316 273 q 218 150 239 177 q 191 120 197 124 l 218 48 q 260 60 240 53 q 301 74 280 67 q 321 81 311 77 q 341 88 332 85 q 385 105 370 99 q 401 112 400 112 q 405 110 404 112 q 407 106 406 109 q 409 98 409 103 q 409 85 409 92 q 409 73 409 80 q 407 59 409 66 q 406 46 407 53 q 404 32 405 39 q 358 -3 377 10 q 323 -25 339 -17 q 295 -37 308 -33 q 269 -42 282 -42 q 201 -30 237 -42 q 121 2 164 -19 q 45 55 78 25 q -10 118 11 84 l -12 120 m 55 610 q 52 616 53 613 q 51 621 51 620 q 51 626 51 624 q 51 630 51 628 q 51 632 51 631 q 51 635 51 634 q 51 637 51 635 q 51 639 51 638 q 51 643 51 642 q 52 646 51 645 l 67 659 l 75 688 q 93 713 78 698 q 137 751 108 728 q 164 771 153 762 q 185 788 175 781 q 206 806 194 797 q 232 827 218 816 q 276 857 255 847 q 315 868 297 868 q 341 851 325 868 q 380 803 358 835 q 409 762 395 781 q 433 728 422 744 l 425 681 l 439 659 q 441 654 440 656 q 443 649 442 652 q 445 644 445 648 q 445 638 445 641 q 443 627 445 632 q 438 616 442 621 q 431 607 435 610 q 422 605 427 605 l 289 717 q 214 683 248 698 q 153 656 180 669 q 100 632 125 643 q 55 609 75 620 l 55 610 "},"Ï":{"x_min":57.828125,"x_max":509,"ha":416,"o":"m 57 600 q 70 633 64 615 q 84 667 76 650 q 99 701 91 683 q 115 735 107 718 q 151 801 132 769 q 188 862 170 832 l 189 868 q 214 890 200 882 q 242 899 227 899 l 274 899 q 290 899 284 899 q 301 896 296 899 q 305 893 303 894 q 309 890 306 892 q 312 887 310 889 q 316 883 314 886 q 347 832 333 858 q 374 776 361 805 q 392 727 386 747 q 399 696 399 707 q 381 629 399 692 q 327 447 363 567 q 292 327 309 387 q 259 207 274 267 q 229 85 244 146 q 200 -33 214 25 l 192 -33 q 144 -20 167 -33 q 101 17 121 -8 q 72 75 82 43 q 62 144 62 107 q 65 194 62 164 q 75 267 69 225 q 91 355 82 308 q 114 458 101 403 l 57 600 l 57 600 m 422 1016 q 420 1014 420 1014 q 420 1014 420 1014 q 415 1012 417 1013 q 412 1012 413 1012 q 401 1020 406 1012 q 392 1045 396 1028 q 386 1081 388 1063 q 384 1119 384 1099 q 384 1119 384 1119 q 384 1119 384 1119 q 383 1119 383 1119 q 383 1120 383 1120 q 383 1125 383 1123 q 383 1128 383 1127 q 383 1131 383 1129 q 383 1134 383 1132 q 383 1136 383 1135 q 384 1139 384 1138 q 387 1145 385 1142 q 392 1155 389 1148 q 403 1156 399 1156 q 410 1156 407 1156 q 415 1156 412 1156 q 421 1156 418 1156 q 433 1155 426 1156 q 446 1155 439 1155 q 452 1153 449 1153 q 458 1151 456 1153 q 479 1146 468 1150 q 502 1138 490 1143 q 502 1135 502 1136 q 503 1134 502 1134 q 504 1131 503 1132 q 505 1128 505 1129 q 505 1125 505 1127 q 506 1123 505 1124 q 506 1122 506 1123 q 506 1121 506 1121 q 506 1112 506 1119 q 508 1095 506 1106 q 508 1084 508 1089 q 509 1074 508 1078 q 509 1066 509 1070 q 509 1057 509 1062 q 505 1029 509 1041 q 495 1010 502 1017 q 477 996 489 1002 q 450 987 465 991 q 440 992 444 989 q 433 998 436 995 q 428 1003 430 1000 q 424 1009 426 1006 q 423 1011 424 1010 q 422 1014 423 1013 l 422 1016 m 78 1103 l 90 1129 l 100 1132 q 104 1144 101 1138 q 111 1158 107 1151 q 119 1174 114 1165 q 131 1190 125 1182 q 139 1194 135 1193 q 147 1196 143 1194 q 152 1198 150 1197 q 157 1199 154 1199 q 170 1201 164 1201 q 182 1202 177 1202 q 186 1202 184 1202 q 191 1201 188 1202 q 195 1201 193 1201 q 199 1201 198 1201 q 218 1182 209 1192 q 235 1161 227 1172 q 253 1140 245 1151 q 267 1116 260 1128 q 265 1097 265 1107 q 265 1074 265 1087 q 261 1040 265 1053 q 253 1023 258 1027 l 258 1014 q 251 1002 255 1007 q 242 993 246 996 q 238 990 241 992 q 234 988 235 989 q 229 987 231 988 q 224 987 227 987 q 219 987 221 987 q 214 988 217 987 q 209 991 213 989 q 202 995 206 993 l 175 1016 q 168 1011 171 1013 q 161 1007 164 1009 q 155 1005 157 1006 q 150 1005 153 1005 q 140 1010 146 1005 q 125 1025 133 1016 q 105 1056 117 1037 q 78 1102 93 1075 l 78 1103 "},"Â":{"x_min":-25,"x_max":686.28125,"ha":739,"o":"m 206 382 l 396 416 q 396 498 396 456 q 389 580 396 540 q 382 661 389 620 q 369 744 376 702 q 323 650 347 702 q 272 534 300 597 q 229 433 245 472 q 206 381 212 395 l 206 382 m 343 829 l 336 873 q 335 875 336 873 q 335 877 335 876 q 334 879 335 877 q 333 882 333 880 q 333 886 333 884 q 333 889 333 887 q 347 897 333 891 q 392 908 362 903 q 450 918 421 915 q 509 922 479 922 q 517 921 514 922 q 522 917 521 920 q 525 915 523 916 q 528 912 526 913 q 529 908 528 910 q 532 904 530 906 l 576 904 q 579 904 578 904 q 582 904 581 904 q 585 903 583 904 q 587 903 586 903 q 592 900 590 901 q 594 897 593 900 l 607 880 q 618 854 612 873 q 623 800 623 834 q 623 723 623 765 q 623 629 623 680 q 623 592 623 615 q 621 537 623 569 q 621 483 621 506 q 618 442 621 459 l 666 450 l 674 450 q 677 447 676 448 q 678 447 678 447 q 682 446 681 447 q 683 444 683 445 q 685 440 684 442 q 686 431 686 437 q 682 374 686 401 q 672 327 679 348 q 657 296 665 306 q 637 286 648 286 l 634 287 q 622 268 629 276 q 608 253 615 260 q 596 242 603 248 q 581 228 589 235 q 580 223 581 227 q 578 212 579 219 q 567 143 572 173 q 557 93 561 113 l 439 24 l 430 -29 l 389 -49 q 388 -49 389 -49 q 388 -50 388 -49 q 385 -50 386 -50 q 385 -50 385 -50 q 384 -50 385 -50 q 382 -52 383 -50 q 381 -52 382 -52 q 379 -52 381 -52 q 377 -52 378 -52 q 377 -50 377 -52 q 377 -50 377 -50 q 377 -50 377 -50 q 375 -50 375 -50 q 375 -50 375 -50 q 376 -46 375 -48 q 378 -39 377 -43 q 389 40 385 -2 q 393 132 393 82 q 393 161 393 149 q 392 180 393 173 q 392 193 392 187 q 390 201 392 199 q 324 201 356 201 q 260 201 291 201 q 200 201 229 201 q 143 201 171 201 q 111 121 126 162 q 84 39 97 81 q 61 -20 70 0 q 47 -41 52 -41 l 44 -41 l 29 -80 q 24 -80 27 -80 q 15 -80 20 -80 q 10 -80 12 -80 q 6 -81 8 -80 q 2 -81 4 -81 q 0 -81 1 -81 q -3 -81 -1 -81 q -8 -80 -5 -81 q -12 -79 -9 -80 q -16 -78 -15 -78 q -19 -77 -18 -78 q -21 -75 -21 -76 q -24 -73 -23 -73 q -25 -69 -25 -72 q -20 -40 -25 -62 q -5 17 -15 -18 q 13 101 1 56 q 40 199 26 146 q 23 221 30 210 q 11 238 16 231 q 4 254 6 246 q 0 269 1 262 q -8 288 -4 279 q -15 306 -12 297 q -20 326 -18 317 q -22 342 -22 334 q -20 348 -22 345 q -15 352 -18 350 q -9 354 -14 353 q 0 355 -4 355 l 83 366 q 117 483 98 421 q 158 608 136 544 q 193 709 180 673 q 207 751 206 744 l 218 759 q 301 806 270 789 q 343 827 333 823 l 343 829 m 260 976 q 257 981 258 977 q 257 986 257 984 q 257 991 257 989 q 257 994 257 993 q 257 997 257 995 q 257 1000 257 998 q 257 1001 257 1000 q 257 1004 257 1002 q 257 1008 257 1007 q 258 1011 257 1009 l 273 1023 l 282 1052 q 300 1078 284 1062 q 344 1116 315 1094 q 371 1136 359 1127 q 392 1153 382 1145 q 413 1170 401 1160 q 439 1191 425 1180 q 483 1222 462 1212 q 521 1233 504 1233 q 548 1216 532 1233 q 587 1167 565 1199 q 616 1127 603 1145 q 640 1094 629 1109 l 632 1045 l 645 1023 q 647 1019 647 1020 q 650 1015 648 1018 q 651 1012 650 1013 q 652 1009 652 1011 q 652 1007 652 1008 q 652 1004 652 1005 q 650 991 652 997 q 644 980 648 986 q 637 973 641 975 q 629 971 633 971 l 494 1081 q 421 1048 455 1063 q 359 1020 388 1033 q 306 997 331 1008 q 260 975 282 986 l 260 976 "},"Í":{"x_min":57.828125,"x_max":544,"ha":416,"o":"m 57 600 q 71 633 64 615 q 85 667 77 650 q 100 701 92 683 q 116 735 107 718 q 151 801 132 769 q 188 862 170 832 l 189 868 q 214 890 201 882 q 242 899 227 899 l 274 899 q 290 899 284 899 q 301 896 297 899 q 305 893 304 894 q 309 890 306 892 q 313 887 310 889 q 316 883 315 886 q 347 832 333 858 q 374 776 362 805 q 393 727 387 747 q 400 696 400 707 q 381 629 400 692 q 327 447 363 567 q 292 327 309 387 q 259 207 274 267 q 229 85 244 146 q 201 -33 215 25 l 192 -33 q 144 -20 167 -33 q 102 17 121 -8 q 72 75 82 43 q 62 144 62 107 q 66 194 62 164 q 75 267 70 225 q 92 355 82 308 q 114 458 102 403 l 57 600 l 57 600 m 94 989 l 107 1017 l 142 1031 l 146 1054 q 192 1067 170 1060 q 233 1084 213 1074 q 276 1108 253 1095 q 322 1138 298 1121 q 380 1174 351 1157 q 437 1202 409 1191 q 487 1219 464 1213 q 528 1226 510 1226 q 535 1224 532 1226 q 539 1220 538 1223 q 543 1213 542 1217 q 544 1203 544 1209 q 541 1192 544 1198 q 537 1181 539 1187 q 529 1170 534 1175 q 518 1159 524 1164 q 518 1156 518 1157 q 519 1153 519 1155 q 519 1150 519 1152 q 520 1148 520 1149 q 520 1145 520 1146 q 522 1142 520 1143 q 522 1141 522 1142 q 522 1139 522 1139 q 492 1100 522 1121 q 402 1057 462 1079 q 265 1018 342 1035 q 94 988 188 1001 l 94 989 "},"´":{"x_min":194,"x_max":643,"ha":694,"o":"m 194 624 l 206 652 l 241 665 l 246 690 q 291 701 270 694 q 333 719 312 709 q 376 742 353 730 q 421 773 398 755 q 480 809 451 792 q 537 837 509 826 q 588 854 565 848 q 629 861 611 861 q 636 859 633 861 q 640 855 638 858 q 643 848 643 852 q 643 837 643 844 q 641 826 643 831 q 637 815 640 822 q 629 804 634 809 q 618 794 624 799 q 618 788 618 791 q 620 783 619 785 q 620 778 620 780 q 622 774 620 776 q 592 735 622 756 q 502 692 562 715 q 365 653 442 670 q 194 623 288 635 l 194 624 "},"ì":{"x_min":-5,"x_max":414.828125,"ha":386,"o":"m 209 -14 l 123 26 q 93 62 108 32 q 65 147 79 92 q 61 162 64 155 q 58 174 59 169 l -5 174 l -5 263 q -4 267 -4 264 q -4 273 -4 270 q -2 273 -2 273 q -2 275 -2 274 q 5 294 -2 278 q 30 338 13 310 q 69 390 50 365 q 111 436 89 415 q 151 473 129 455 q 201 504 173 490 q 248 528 229 519 q 275 537 267 537 q 277 534 275 537 q 281 529 279 532 q 281 527 281 528 q 283 527 282 527 l 306 496 q 308 491 307 493 q 309 489 309 490 q 309 488 309 489 q 310 486 310 487 q 310 483 310 484 q 312 482 310 482 q 312 479 312 480 q 312 476 312 477 q 309 461 312 472 q 303 432 307 451 q 268 222 283 328 q 253 10 253 117 l 209 -14 l 209 -14 m 319 614 q 276 637 300 624 q 219 667 251 650 q 70 754 119 719 q 21 807 21 789 q 30 820 21 811 q 57 843 39 829 q 86 864 76 858 q 100 871 97 871 q 132 850 104 871 q 209 784 159 829 q 277 729 243 757 q 346 675 312 701 q 380 648 363 661 q 414 624 398 636 q 409 624 413 624 q 403 624 406 624 q 398 624 402 624 q 387 624 394 624 q 368 624 377 624 q 350 622 359 624 q 342 620 346 621 q 335 618 338 619 q 327 615 331 617 q 319 612 323 614 l 319 614 "},"±":{"x_min":172,"x_max":983.109375,"ha":1157,"o":"m 172 133 l 983 133 l 983 0 l 172 0 l 172 133 l 172 133 m 509 829 l 646 829 l 646 607 l 983 607 l 983 472 l 646 472 l 646 253 l 509 253 l 509 472 l 172 472 l 172 607 l 509 607 l 509 829 l 509 829 "},"Ú":{"x_min":68,"x_max":807,"ha":815,"o":"m 231 839 l 249 881 q 272 882 261 881 q 297 885 284 883 q 320 889 308 887 q 343 895 331 891 q 347 895 345 895 q 350 896 348 895 q 352 896 351 896 q 354 896 354 896 q 357 896 356 896 q 359 895 358 896 q 360 894 359 895 q 360 893 360 893 q 362 892 362 893 q 362 891 362 891 l 375 762 q 375 757 375 759 q 375 752 375 755 q 375 748 375 751 q 375 744 375 746 q 371 725 375 738 q 360 691 367 712 q 303 453 322 571 q 284 217 284 334 q 284 198 284 208 q 286 179 284 188 q 286 160 286 169 q 288 143 286 151 q 385 227 336 174 q 487 352 434 280 q 584 501 540 424 q 662 662 628 578 q 667 673 665 666 q 673 688 669 680 q 683 711 679 703 q 692 720 687 719 q 728 734 711 727 q 762 746 746 741 q 788 755 779 753 q 798 758 797 758 q 800 757 800 758 q 803 755 801 756 q 803 752 803 753 q 804 749 803 751 q 804 746 804 748 q 804 742 804 745 q 797 671 804 714 q 776 566 790 627 q 762 506 769 535 q 744 447 754 476 q 724 386 735 416 q 703 326 714 356 q 656 211 680 263 q 608 116 632 159 q 560 40 584 73 q 511 -15 536 7 q 498 -17 504 -16 q 484 -18 491 -18 q 479 -19 482 -18 q 473 -20 476 -20 q 465 -20 469 -20 q 458 -21 461 -20 q 450 -21 454 -21 q 443 -21 447 -21 q 417 -21 432 -21 q 386 -16 402 -21 q 350 -13 369 -15 q 308 -6 331 -11 q 246 16 277 0 q 184 58 215 33 q 131 108 154 81 q 91 163 108 134 q 81 189 86 176 q 74 216 76 202 q 69 250 71 230 q 68 297 68 270 q 68 418 68 358 q 77 538 68 478 q 93 659 84 599 q 115 778 102 719 q 119 797 118 790 q 122 805 120 804 q 128 810 123 808 q 141 813 133 812 l 231 839 l 231 839 m 357 989 l 370 1016 l 404 1030 l 409 1054 q 454 1066 433 1059 q 495 1083 475 1073 q 539 1107 516 1094 q 584 1137 561 1120 q 643 1173 614 1156 q 700 1201 672 1190 q 750 1218 728 1212 q 791 1225 773 1225 q 798 1223 796 1225 q 803 1219 801 1222 q 806 1212 805 1216 q 807 1202 807 1208 q 804 1191 807 1197 q 800 1180 802 1186 q 792 1169 797 1175 q 781 1158 787 1163 q 781 1155 781 1156 q 782 1152 782 1154 q 782 1150 782 1151 q 783 1147 783 1148 q 783 1144 783 1145 q 785 1141 783 1143 q 785 1140 785 1141 q 785 1138 785 1138 q 755 1100 785 1120 q 665 1057 725 1079 q 528 1018 605 1034 q 357 987 451 1001 l 357 989 "},"|":{"x_min":278,"x_max":416.890625,"ha":695,"o":"m 278 1061 l 416 1061 l 416 -326 l 278 -326 l 278 1061 l 278 1061 "},"§":{"x_min":-2.671875,"x_max":652.453125,"ha":694,"o":"m 221 498 q 195 472 207 484 q 177 449 184 460 q 171 438 174 444 q 167 427 169 432 q 165 416 166 421 q 165 405 165 410 q 193 370 165 388 q 280 332 222 352 q 363 302 325 316 q 431 275 401 288 q 454 296 444 285 q 474 320 465 307 q 492 347 484 332 q 508 378 501 362 q 444 408 481 392 q 358 442 406 424 q 275 474 309 460 q 221 496 240 488 l 221 498 m 86 -142 l 54 -42 q 36 -39 44 -40 q 20 -35 27 -37 q 13 -32 16 -33 q 7 -31 9 -31 q 1 -28 4 -29 q -2 -25 -1 -26 l 0 7 q 10 5 5 6 q 20 5 15 5 q 31 4 26 5 q 40 4 36 4 q 49 4 44 4 q 58 4 54 4 q 66 2 62 2 q 75 2 70 2 q 157 8 115 2 q 243 27 200 14 q 327 57 286 39 q 408 99 369 75 q 328 134 370 117 q 239 168 286 152 q 167 196 193 185 q 134 207 141 206 q 90 234 108 220 q 61 264 72 249 q 44 302 50 281 q 39 349 39 323 q 47 404 39 378 q 72 452 55 430 q 113 493 88 474 q 172 528 138 512 q 136 553 149 542 q 116 571 122 563 q 109 590 111 578 q 107 616 107 602 q 133 735 107 682 q 211 823 159 787 q 354 890 263 859 q 576 943 445 920 l 588 918 l 618 918 q 622 915 620 916 q 625 915 623 915 q 626 914 625 915 q 627 913 627 913 q 628 912 627 913 q 630 910 629 912 q 632 908 631 909 q 633 905 633 906 l 652 813 q 499 786 567 802 q 374 749 430 770 q 291 709 319 728 q 263 671 263 689 q 290 646 263 660 q 369 616 316 632 q 435 593 405 603 q 488 574 465 582 q 556 544 529 559 q 599 513 583 528 q 623 480 615 498 q 632 439 632 462 q 622 391 632 416 q 595 339 613 366 q 553 289 577 313 q 497 245 528 266 q 528 227 516 237 q 549 207 541 218 q 560 182 556 196 q 565 148 565 167 q 558 105 565 130 q 535 50 551 80 q 522 23 528 35 q 508 2 515 11 q 494 -13 501 -6 q 480 -25 487 -20 q 406 -63 448 -44 q 311 -97 363 -82 q 202 -124 258 -112 q 86 -142 145 -136 l 86 -142 "},"Ý":{"x_min":79,"x_max":720.765625,"ha":714,"o":"m 355 301 q 311 255 332 276 q 266 216 289 234 q 231 191 244 200 q 210 182 217 182 q 194 188 205 182 q 165 209 183 195 q 127 242 147 225 q 85 281 108 259 q 81 326 83 301 q 79 381 79 351 q 79 450 79 411 q 79 540 79 490 q 79 683 79 618 q 79 801 79 748 q 84 880 79 854 q 95 907 90 907 q 99 907 97 907 q 102 905 101 907 q 103 904 102 905 q 105 904 104 904 q 107 901 106 902 q 108 901 108 901 l 244 780 l 244 748 q 244 596 244 661 q 251 488 244 531 q 269 409 259 447 q 295 340 280 372 q 352 404 323 366 q 412 491 381 443 q 479 607 444 541 q 555 755 515 673 q 575 795 566 775 q 591 836 583 815 q 604 866 600 855 q 610 877 608 877 q 612 877 611 877 q 614 877 612 877 q 614 876 614 877 q 615 875 615 875 q 617 874 617 875 q 617 873 617 873 l 672 822 l 672 736 l 720 684 q 666 463 704 570 q 566 251 628 355 q 418 39 506 147 q 212 -182 329 -68 q 201 -176 206 -179 q 190 -170 195 -173 q 176 -165 183 -168 q 162 -159 169 -162 q 133 -149 148 -154 q 101 -140 117 -144 q 167 -40 134 -91 q 230 63 199 11 q 293 178 262 119 q 355 300 324 237 l 355 301 m 243 988 l 256 1016 l 289 1030 l 295 1054 q 339 1066 319 1059 q 381 1083 360 1073 q 424 1107 402 1094 q 470 1137 446 1120 q 529 1173 499 1156 q 585 1201 558 1190 q 636 1218 613 1212 q 677 1225 659 1225 q 684 1223 681 1225 q 688 1219 687 1222 q 692 1212 691 1216 q 693 1202 693 1208 q 690 1191 693 1197 q 686 1180 688 1186 q 678 1169 683 1175 q 667 1158 673 1163 q 667 1155 667 1156 q 668 1152 668 1154 q 668 1150 668 1151 q 669 1147 669 1148 q 669 1144 669 1145 q 671 1141 669 1143 q 671 1140 671 1141 q 671 1138 671 1138 q 641 1100 671 1120 q 551 1056 611 1079 q 414 1018 491 1034 q 243 987 337 1001 l 243 988 "},"b":{"x_min":11,"x_max":421,"ha":482,"o":"m 228 839 l 329 869 q 333 873 332 870 q 336 877 334 876 q 341 880 339 880 q 346 880 343 880 q 352 880 348 880 q 362 878 357 880 q 369 877 366 878 q 375 877 372 877 q 380 876 377 877 q 383 876 382 876 q 344 716 372 809 q 272 502 316 623 q 207 295 229 382 q 185 151 185 207 q 185 146 185 149 q 186 140 185 143 q 186 134 186 138 q 186 126 186 131 q 186 120 186 124 q 189 114 187 117 q 189 106 189 110 q 190 100 190 103 q 217 135 205 117 q 241 172 230 153 q 263 213 252 192 q 283 257 273 233 l 251 289 l 261 327 q 285 342 271 332 q 318 365 300 352 q 353 391 337 381 q 379 409 369 402 q 398 400 390 404 q 411 393 405 396 q 418 387 415 390 q 421 381 421 384 q 414 344 421 371 q 391 274 407 317 q 360 190 377 231 q 322 111 343 149 q 282 38 300 69 q 250 -10 265 7 q 225 -40 236 -30 q 207 -51 214 -51 q 191 -46 201 -51 q 165 -31 180 -41 q 136 -10 151 -21 q 109 11 122 0 q 65 65 84 37 q 36 121 47 92 q 17 181 23 150 q 11 247 11 213 q 24 352 11 292 q 65 485 38 411 q 132 647 93 559 q 228 838 172 735 l 228 839 "},"q":{"x_min":1,"x_max":539,"ha":604,"o":"m 94 307 l 170 307 q 172 305 171 305 q 174 303 173 304 q 176 301 176 302 q 176 298 176 300 q 175 294 176 297 q 173 286 174 291 q 160 234 164 259 q 156 183 156 208 q 215 234 188 207 q 265 293 241 262 q 309 358 288 323 q 347 432 329 393 q 261 402 299 418 q 192 372 223 387 q 137 339 162 357 q 94 302 113 322 l 94 307 m 389 559 l 454 659 l 522 598 q 524 593 523 595 q 525 589 525 591 q 525 584 525 587 q 525 576 525 580 q 506 490 525 558 q 451 305 488 422 q 388 82 415 190 q 345 -122 361 -25 q 391 -52 368 -89 q 436 20 413 -16 q 484 105 459 61 q 535 198 509 150 q 535 166 535 180 q 535 143 535 152 q 539 124 539 133 q 539 108 539 115 q 490 -13 515 42 q 440 -120 465 -69 q 388 -214 413 -172 q 340 -291 363 -257 q 329 -296 334 -294 q 319 -300 325 -298 q 309 -305 313 -302 q 297 -311 304 -307 q 276 -305 288 -308 q 247 -298 263 -301 q 240 -296 243 -297 q 234 -296 237 -296 q 220 -230 227 -269 q 209 -143 213 -191 q 200 -33 200 -94 q 200 104 200 27 q 152 69 173 85 q 111 40 131 52 q 76 21 90 27 q 54 15 61 15 q 32 25 42 15 q 14 58 21 35 q 4 110 7 80 q 1 176 1 140 q 1 241 1 216 q 6 273 1 265 q 16 287 9 283 q 34 292 24 292 q 114 400 73 352 q 198 480 155 447 q 290 532 243 512 q 389 558 337 552 l 389 559 "},"Ö":{"x_min":37,"x_max":740,"ha":778,"o":"m 347 623 q 305 488 323 549 q 276 375 287 427 q 259 283 265 324 q 254 210 254 242 q 254 192 254 201 q 255 172 254 183 q 255 163 255 167 q 257 157 255 160 q 257 152 257 154 q 257 150 257 150 l 257 144 q 315 162 286 150 q 372 193 344 175 q 428 235 400 211 q 487 289 457 258 q 531 339 511 314 q 565 389 551 364 q 588 434 580 415 q 597 465 597 453 q 580 513 597 491 q 529 557 564 536 q 450 594 495 578 q 347 621 404 610 l 347 623 m 145 827 q 152 826 148 826 q 162 827 156 826 q 195 830 181 830 q 217 832 209 830 l 251 893 q 490 876 394 893 q 638 827 587 859 q 714 740 689 796 q 740 604 740 684 q 727 481 740 545 q 689 350 715 417 q 628 221 663 283 q 548 101 592 158 q 500 46 524 71 q 450 7 475 22 q 399 -14 425 -6 q 346 -22 373 -22 q 314 -17 332 -22 q 272 -2 295 -12 q 228 17 251 4 q 183 47 206 30 q 117 103 145 75 q 71 160 89 132 q 46 219 55 187 q 37 286 37 251 q 45 353 37 314 q 67 439 53 392 q 104 541 82 486 q 153 657 126 596 q 140 659 146 659 q 128 662 134 660 q 117 662 123 662 q 106 664 112 663 q 88 666 96 665 q 71 667 80 667 l 145 827 l 145 827 m 603 1016 q 601 1014 601 1014 q 601 1014 601 1014 q 596 1012 598 1013 q 593 1012 594 1012 q 582 1020 587 1012 q 573 1045 577 1028 q 567 1081 569 1063 q 565 1119 565 1099 q 565 1119 565 1119 q 565 1119 565 1119 q 564 1119 564 1119 q 564 1120 564 1120 q 564 1125 564 1123 q 564 1128 564 1127 q 564 1131 564 1129 q 564 1134 564 1132 q 564 1136 564 1135 q 565 1139 565 1138 q 568 1145 566 1142 q 573 1155 570 1149 q 583 1155 578 1155 q 591 1155 588 1155 q 596 1155 594 1155 q 602 1155 599 1155 q 620 1155 610 1155 q 639 1152 630 1155 q 660 1147 649 1150 q 683 1138 671 1143 q 683 1135 683 1136 q 684 1134 683 1134 q 684 1131 684 1132 q 684 1128 684 1129 q 686 1123 685 1125 q 687 1121 687 1121 q 687 1112 687 1119 q 689 1095 687 1106 q 689 1084 689 1089 q 690 1074 689 1078 q 690 1066 690 1070 q 690 1057 690 1062 q 686 1029 690 1041 q 676 1010 683 1017 q 658 996 670 1002 q 631 987 646 991 q 621 992 625 989 q 614 998 617 995 q 609 1003 611 1000 q 605 1009 607 1006 q 604 1011 605 1010 q 603 1014 604 1013 l 603 1016 m 259 1103 l 271 1129 l 281 1132 q 285 1145 282 1138 q 291 1159 288 1152 q 300 1174 295 1165 q 312 1190 306 1182 q 320 1194 316 1193 q 328 1196 324 1194 q 333 1198 331 1197 q 337 1199 335 1199 q 343 1200 340 1199 q 351 1201 347 1201 q 357 1202 353 1202 q 363 1202 360 1202 q 367 1202 365 1202 q 372 1201 369 1202 q 376 1201 374 1201 q 379 1201 377 1201 q 399 1182 390 1192 q 416 1161 408 1172 q 433 1140 425 1152 q 448 1116 441 1128 q 446 1097 446 1107 q 446 1074 446 1087 q 442 1040 446 1053 q 434 1023 439 1027 l 437 1014 q 431 1002 434 1007 q 423 993 427 996 q 414 989 419 991 q 404 987 409 987 q 400 987 402 987 q 395 988 398 987 q 390 991 394 989 q 383 995 387 993 l 356 1016 q 349 1011 352 1013 q 342 1007 345 1009 q 336 1005 338 1006 q 331 1005 334 1005 q 321 1010 327 1005 q 306 1025 314 1016 q 286 1056 298 1037 q 259 1102 274 1075 l 259 1103 "},"z":{"x_min":6,"x_max":478,"ha":532,"o":"m 478 23 l 467 -3 l 427 -3 l 402 -29 q 246 7 317 -15 q 118 65 175 30 q 34 133 63 99 q 6 201 6 167 q 19 238 6 219 q 57 278 32 258 q 143 340 82 301 q 302 436 204 380 q 287 435 295 435 q 271 435 279 435 q 254 435 264 435 q 234 435 245 435 q 138 435 186 435 q 42 424 90 435 q 26 422 32 423 q 19 422 21 422 q 15 422 17 422 q 13 422 14 422 q 13 424 13 422 q 12 427 13 426 q 16 442 12 430 q 29 472 21 454 q 35 483 32 478 q 40 494 38 489 q 52 512 46 504 q 63 525 58 519 q 79 535 68 530 q 107 540 90 539 q 167 544 125 544 q 275 544 209 544 l 307 544 q 340 544 327 544 q 360 543 353 544 q 372 538 367 541 q 378 532 377 535 q 394 506 385 522 q 413 466 403 490 q 437 411 424 443 q 463 341 449 380 q 466 332 466 335 q 469 326 467 328 q 469 323 469 324 q 469 322 469 322 q 469 319 469 320 q 469 316 469 317 q 450 285 469 303 q 391 241 431 266 q 302 194 352 216 q 195 149 253 172 q 260 98 227 120 q 328 60 293 76 q 401 34 364 45 q 478 23 437 23 l 478 23 "},"™":{"x_min":140,"x_max":980,"ha":1156,"o":"m 544 990 l 675 990 l 762 765 l 845 990 l 980 990 l 980 620 l 888 620 l 888 897 l 782 620 l 742 620 l 635 897 l 635 620 l 544 620 l 544 991 l 544 990 m 140 991 l 467 991 l 467 915 l 354 915 l 354 620 l 254 620 l 254 915 l 140 915 l 140 991 l 140 991 "},"ã":{"x_min":-5,"x_max":552,"ha":548,"o":"m 199 436 q 160 388 178 413 q 126 333 142 362 q 99 274 111 305 q 79 210 87 242 l 225 340 l 199 436 l 199 436 m 268 188 q 177 120 218 149 q 103 70 135 91 q 52 37 71 48 q 28 26 33 26 q 12 32 18 26 q 0 48 6 38 q -2 75 0 59 q -5 113 -5 91 q 5 202 -5 156 q 38 297 15 248 q 96 400 61 345 q 177 511 130 454 q 177 513 177 512 q 177 515 177 514 q 176 517 176 516 q 176 518 176 518 q 176 518 176 518 q 176 521 176 519 q 174 521 174 521 q 174 522 174 522 q 175 527 174 525 q 177 530 176 529 q 177 532 177 532 q 178 534 178 533 q 179 535 178 534 q 180 537 180 536 l 242 591 l 252 601 q 256 598 253 600 q 261 594 259 597 q 273 586 266 593 q 289 573 280 580 q 300 577 293 575 q 314 583 306 579 q 328 590 323 587 q 335 593 334 593 q 357 581 342 593 q 390 548 371 570 q 430 498 411 526 q 467 438 449 470 q 452 395 459 419 q 442 343 446 370 q 435 283 435 316 q 435 213 435 251 q 439 110 435 162 q 453 10 444 59 q 455 0 455 5 q 458 -4 456 -3 q 457 -8 458 -7 q 455 -9 456 -9 q 454 -9 455 -9 q 452 -10 453 -10 q 450 -10 450 -10 q 449 -10 449 -10 q 440 -8 447 -10 q 419 -3 433 -6 q 393 2 406 0 q 368 7 381 5 q 350 17 359 10 q 338 34 342 24 q 337 36 337 35 q 337 38 337 37 l 268 188 l 268 188 m 552 827 q 529 741 542 777 q 497 682 515 705 q 458 646 479 658 q 410 635 436 635 q 381 644 400 635 q 331 673 361 654 q 277 709 302 693 q 231 734 252 724 q 215 720 223 727 q 200 705 207 713 q 193 698 196 702 q 185 690 189 694 q 165 664 175 677 q 144 635 154 650 l 107 648 l 112 662 l 86 670 q 110 711 97 690 q 142 752 124 731 q 168 784 158 772 q 180 802 178 796 q 202 812 191 808 q 227 819 214 816 q 250 823 239 821 q 267 826 260 826 q 306 816 282 826 q 360 787 330 806 q 416 754 392 767 q 459 731 441 740 q 471 749 464 738 q 484 772 477 759 q 504 800 495 791 q 521 810 513 809 q 529 817 525 814 q 535 821 532 820 q 542 825 538 824 q 552 826 546 826 l 552 827 "},"æ":{"x_min":-7,"x_max":826,"ha":879,"o":"m 597 222 q 640 274 620 248 q 677 323 660 300 q 706 367 694 347 q 724 404 719 388 q 717 403 721 404 q 710 403 713 403 q 696 400 703 401 q 683 398 689 400 q 662 395 673 397 q 642 390 652 393 q 621 350 630 369 q 605 316 612 332 q 596 284 599 300 q 594 254 594 269 q 594 241 594 247 q 594 233 594 236 q 594 226 594 229 q 597 220 595 223 l 597 222 m 196 270 l 167 371 q 132 315 146 341 q 106 265 117 289 q 91 222 97 243 q 86 181 86 201 q 86 176 86 178 q 88 173 87 174 q 92 172 90 172 q 97 172 94 172 q 101 172 99 172 q 105 174 103 172 q 107 174 106 174 q 109 175 108 175 q 110 175 109 175 q 112 176 110 176 l 196 270 l 196 270 m 152 459 l 151 466 l 151 472 q 160 492 151 479 q 189 523 170 505 q 220 551 209 543 q 236 560 231 560 q 239 559 238 560 q 242 557 241 558 l 264 537 q 282 544 274 540 q 295 548 289 547 q 307 552 302 551 q 314 553 312 553 q 333 545 321 553 q 362 521 345 537 q 392 486 379 505 q 413 444 405 466 q 402 404 408 423 q 392 365 397 384 q 388 329 390 347 q 386 294 386 311 q 388 250 386 269 q 394 215 390 230 q 404 195 398 201 q 415 189 409 189 q 422 209 416 189 q 438 268 428 229 q 469 350 449 308 q 520 434 490 391 q 523 440 521 437 q 528 448 526 444 q 555 481 544 469 q 577 497 567 493 q 632 516 606 508 q 684 530 659 525 q 730 539 709 536 q 770 542 752 542 q 791 537 782 542 q 805 525 801 533 q 811 500 809 516 q 813 460 813 483 q 813 450 813 454 q 813 444 813 447 q 813 441 813 443 q 812 436 813 439 q 778 379 798 408 q 735 319 759 350 q 682 256 713 290 q 610 181 651 222 q 624 159 616 169 q 645 142 633 149 q 673 132 658 135 q 705 129 688 129 q 737 131 721 129 q 766 140 752 134 q 796 156 781 147 q 826 177 810 165 l 826 153 q 825 147 826 149 q 823 141 824 144 q 820 138 823 140 q 814 133 818 135 l 771 87 l 763 56 q 748 28 762 41 q 710 5 734 16 q 662 -10 687 -4 q 614 -17 638 -17 q 560 -10 585 -17 q 510 6 534 -3 q 470 38 488 20 q 441 80 452 56 q 410 56 424 66 q 381 39 395 46 q 357 30 367 34 q 338 26 347 26 q 307 32 321 26 q 280 51 292 38 q 257 80 267 62 q 238 123 246 99 l 234 120 q 88 5 138 42 q 36 -32 38 -32 q 36 -32 36 -32 q 36 -32 36 -32 q 34 -32 34 -32 q 34 -32 34 -32 q 31 -31 33 -32 q 27 -29 30 -30 l 15 -25 q 5 -14 9 -23 q 0 6 1 -5 q -4 39 -2 21 q -7 74 -7 56 q 1 159 -7 115 q 30 251 9 204 q 81 351 49 300 q 152 458 112 403 l 152 459 "},"®":{"x_min":75,"x_max":1081.953125,"ha":1157,"o":"m 504 699 l 504 537 l 572 537 q 623 541 601 537 q 659 555 646 545 q 680 580 673 564 q 687 614 687 595 q 680 652 687 636 q 657 678 672 668 q 620 693 643 689 q 565 698 597 698 l 504 698 l 504 699 m 369 784 l 587 784 q 693 774 648 784 q 766 743 737 764 q 812 694 797 724 q 828 624 828 664 q 819 572 828 596 q 794 528 811 548 q 756 496 779 509 q 704 475 733 482 l 830 227 l 678 227 l 572 456 l 504 456 l 504 227 l 369 227 l 369 785 l 369 784 m 578 918 q 495 910 534 918 q 418 887 455 902 q 348 849 382 872 q 286 798 315 827 q 231 732 255 767 q 190 658 206 697 q 165 578 173 619 q 156 495 156 537 q 165 414 156 453 q 188 335 173 374 q 226 264 204 298 q 279 200 248 231 q 343 146 309 170 q 416 106 377 123 q 495 82 455 91 q 577 74 534 74 q 657 82 618 74 q 736 106 697 89 q 809 144 773 121 q 875 197 844 167 q 928 258 905 225 q 966 329 951 292 q 991 407 983 368 q 1000 488 1000 446 q 992 574 1000 532 q 969 653 984 616 q 932 725 955 692 q 879 789 909 759 q 814 845 848 821 q 741 885 780 869 q 663 909 704 901 q 578 918 622 918 l 578 918 m 578 1001 q 679 991 630 1001 q 773 962 728 981 q 861 914 821 943 q 938 848 902 885 q 1001 773 975 813 q 1045 687 1027 732 q 1072 593 1063 641 q 1081 493 1081 545 q 1072 393 1081 442 q 1044 299 1063 345 q 997 213 1026 253 q 933 138 969 172 q 857 75 898 102 q 768 28 815 48 q 674 2 722 10 q 577 -6 626 -6 q 478 2 526 -6 q 383 30 430 10 q 296 77 337 49 q 219 142 255 106 q 157 218 184 178 q 111 305 130 259 q 84 397 93 349 q 75 494 75 445 q 79 563 75 530 q 93 628 83 596 q 115 694 102 662 q 147 756 129 726 q 227 860 181 815 q 329 937 273 905 q 447 985 386 969 q 578 1001 509 1001 l 578 1001 "},"É":{"x_min":43,"x_max":714,"ha":721,"o":"m 580 180 q 553 150 566 165 q 529 118 540 134 q 509 84 519 101 q 493 47 500 66 q 411 15 448 29 q 343 -3 373 1 q 287 -17 312 -12 q 243 -22 262 -22 q 196 -16 218 -22 q 158 0 175 -10 q 127 27 141 9 q 104 66 113 44 l 84 46 l 59 46 q 51 50 54 44 q 45 68 48 55 q 43 109 43 80 q 43 183 43 137 q 51 350 43 266 q 78 517 60 433 q 122 679 96 600 q 180 834 147 759 q 251 861 213 849 q 331 881 288 873 q 418 893 373 889 q 509 898 462 898 q 577 898 545 898 q 637 894 609 898 q 661 890 651 893 q 679 886 672 888 q 691 882 687 884 q 696 878 696 881 q 698 875 697 877 q 700 871 698 874 q 700 865 700 868 q 703 857 701 861 q 704 842 704 850 q 704 824 704 834 q 704 818 704 821 q 703 813 704 816 q 702 807 703 810 q 698 800 701 803 l 658 706 q 577 695 615 700 q 505 685 539 691 q 442 673 472 679 q 387 660 412 667 q 356 614 370 635 q 329 573 341 593 q 305 535 316 554 q 284 498 294 517 q 320 498 304 498 q 348 498 337 498 q 371 498 359 498 q 394 498 383 498 q 485 493 443 498 q 565 478 527 489 q 621 459 602 468 q 640 440 640 449 q 640 438 640 439 q 640 436 640 436 q 639 434 639 435 q 639 431 639 432 l 616 354 q 499 325 555 342 q 390 289 443 308 q 293 246 338 269 q 208 197 248 223 q 222 164 212 179 q 245 140 232 150 q 282 125 261 130 q 329 121 302 121 q 385 125 357 121 q 444 140 414 130 q 507 163 476 150 q 570 194 539 176 l 580 180 l 580 180 m 264 989 l 277 1017 l 312 1031 l 318 1055 q 361 1067 340 1060 q 404 1084 383 1074 q 446 1108 423 1095 q 491 1138 469 1121 q 551 1174 522 1157 q 608 1202 580 1191 q 659 1219 636 1213 q 698 1226 682 1226 q 706 1224 702 1226 q 711 1220 709 1223 q 713 1213 712 1217 q 714 1203 714 1209 q 712 1192 714 1198 q 708 1181 711 1187 q 700 1170 704 1175 q 689 1159 696 1164 q 689 1156 689 1157 q 690 1153 689 1155 q 690 1150 690 1152 q 690 1148 690 1149 q 691 1145 690 1146 q 692 1142 692 1144 q 692 1141 692 1142 q 693 1139 693 1139 q 663 1100 693 1121 q 572 1057 633 1080 q 435 1018 512 1035 q 264 988 358 1002 l 264 989 "},"~":{"x_min":119,"x_max":1037.0625,"ha":1157,"o":"m 1037 544 l 1037 394 q 968 351 1002 369 q 903 322 935 333 q 841 305 873 311 q 780 299 810 299 q 748 301 764 299 q 717 304 732 303 q 686 311 702 307 q 655 319 670 315 q 634 327 646 322 q 606 337 621 332 q 475 375 531 362 q 380 388 418 388 q 322 381 352 388 q 260 362 292 375 q 194 330 230 350 q 119 282 159 310 l 119 433 q 189 474 155 456 q 257 504 224 492 q 321 522 291 517 q 381 528 352 528 q 471 518 421 528 q 578 489 520 508 q 580 489 580 489 q 581 489 581 489 q 597 483 588 487 q 618 475 606 479 q 712 447 671 457 q 781 437 752 437 q 840 444 810 437 q 900 462 870 450 q 965 496 931 476 q 1037 543 999 517 l 1037 544 "},"³":{"x_min":22,"x_max":428,"ha":463,"o":"m 48 867 q 193 854 126 867 q 316 820 261 841 q 400 776 372 797 q 428 731 428 754 q 417 710 428 722 q 386 682 407 697 q 322 638 365 665 q 215 571 280 610 q 297 526 263 546 q 351 493 331 507 q 379 468 370 479 q 389 447 389 457 q 378 424 389 437 q 345 392 368 410 q 299 362 325 375 q 242 337 273 349 q 206 324 224 329 q 167 314 187 318 q 131 308 149 310 q 94 306 112 306 q 69 319 80 311 q 48 336 58 326 q 32 358 38 347 q 22 383 26 369 q 97 395 63 389 q 156 407 130 401 q 199 422 181 414 q 230 437 217 429 q 198 464 215 453 q 165 485 181 475 q 128 501 147 494 q 91 513 110 508 q 74 531 81 521 q 59 556 66 542 q 50 579 53 568 q 47 597 47 589 q 69 632 47 611 q 137 682 91 653 q 164 699 152 690 q 184 713 176 707 q 203 726 195 720 q 216 738 210 732 q 226 749 223 745 q 229 757 229 754 q 217 775 229 767 q 183 792 206 783 q 132 806 160 800 q 67 817 103 813 l 48 868 l 48 867 "},"¡":{"x_min":-1.5625,"x_max":325,"ha":344,"o":"m 260 685 q 260 675 260 679 q 258 665 260 671 q 258 654 258 660 q 258 640 258 647 q 258 615 258 626 q 258 596 258 603 q 258 431 258 508 q 247 285 258 354 q 237 167 247 217 q 219 85 228 117 l 230 33 l 138 -16 q 102 -3 120 -10 q 66 12 84 3 q 32 40 49 23 q -1 79 15 57 q 40 243 20 167 q 77 383 60 319 q 103 495 92 449 q 116 571 113 542 l 170 599 l 183 661 l 260 685 l 260 685 m 325 799 q 324 787 325 792 q 320 781 323 783 q 315 776 319 778 q 309 772 312 774 l 237 758 l 222 736 q 215 728 219 731 q 208 722 212 725 q 197 720 203 721 q 180 720 190 720 l 160 720 q 134 721 145 720 q 116 726 123 722 q 107 737 110 731 q 104 750 104 743 q 111 798 104 775 q 134 843 119 821 q 168 878 149 864 q 209 897 187 891 l 260 913 q 260 912 260 912 q 262 912 261 912 q 264 913 264 913 q 266 913 265 913 q 271 912 269 913 q 273 912 272 912 q 274 912 273 912 q 275 912 275 912 q 277 911 276 912 q 279 910 277 910 q 283 907 282 908 q 286 904 284 907 l 318 864 q 318 861 318 861 q 318 861 318 861 q 323 851 322 857 q 325 837 325 844 l 325 833 l 325 799 l 325 799 "},"[":{"x_min":115,"x_max":526,"ha":540,"o":"m 159 374 l 153 374 q 150 372 152 372 q 148 374 148 372 q 146 378 147 375 q 146 383 146 380 q 150 433 146 400 q 165 515 155 465 q 187 619 174 565 q 213 730 199 673 q 231 793 223 767 q 245 835 240 819 q 258 859 252 851 q 268 867 264 867 q 270 867 269 867 q 271 867 271 867 q 272 867 272 867 q 272 867 272 867 q 272 867 272 867 q 272 868 272 867 q 271 869 271 869 q 271 869 271 869 q 284 882 271 877 q 324 890 298 887 q 394 893 352 893 q 495 893 436 893 l 523 893 q 523 892 523 893 q 525 890 523 891 q 525 888 525 888 q 525 886 525 887 q 525 882 525 884 q 526 879 525 880 q 526 876 526 877 q 526 873 526 875 q 514 853 526 861 q 482 842 503 846 q 440 833 460 837 q 403 823 420 829 q 365 682 384 768 q 327 483 346 597 q 291 227 309 369 q 255 -83 273 85 q 260 -83 258 -83 q 265 -85 262 -83 q 267 -85 266 -85 q 269 -85 268 -85 q 272 -85 271 -85 q 276 -85 274 -85 q 283 -85 278 -85 q 291 -86 287 -85 q 301 -86 295 -86 q 312 -86 306 -86 l 346 -86 q 357 -86 353 -86 q 363 -88 362 -87 q 366 -92 366 -90 q 369 -101 367 -95 q 366 -115 369 -108 q 362 -129 364 -122 q 356 -139 360 -136 q 348 -143 352 -143 q 346 -143 348 -143 q 344 -143 345 -143 q 340 -143 342 -143 q 335 -143 338 -143 q 326 -143 330 -143 q 317 -143 321 -143 q 301 -143 312 -143 q 274 -144 290 -143 q 249 -146 261 -146 q 230 -146 237 -146 q 191 -146 209 -146 q 157 -144 173 -146 q 133 -141 141 -143 q 122 -138 124 -140 q 119 -131 120 -137 q 116 -116 117 -126 q 115 -91 115 -106 q 115 -52 115 -76 q 115 23 115 -18 q 121 115 115 65 q 137 229 127 165 q 159 372 147 292 l 159 374 "},"L":{"x_min":10,"x_max":582,"ha":604,"o":"m 49 259 l 18 281 q 16 280 17 280 q 16 282 16 281 q 13 284 14 284 q 13 285 13 285 q 12 286 13 285 q 11 286 11 286 q 10 287 11 286 q 10 288 10 288 q 12 295 10 291 q 17 305 14 299 l 234 832 q 234 830 234 830 q 235 832 234 830 q 235 832 235 832 q 235 832 235 832 q 240 839 236 836 q 252 844 245 843 l 299 858 l 310 884 q 342 889 326 886 q 373 893 358 891 q 404 896 389 896 q 433 896 419 896 q 453 894 445 896 q 462 889 461 893 q 466 877 465 886 q 468 852 468 868 l 468 818 l 450 809 q 376 628 407 711 q 328 479 346 545 q 300 353 310 413 q 291 238 291 292 q 291 216 291 227 q 292 195 291 205 q 295 176 294 185 q 299 159 297 167 q 315 154 307 156 q 332 149 324 152 q 353 147 342 147 q 379 147 365 147 q 470 157 425 147 q 558 189 515 167 q 572 195 566 193 q 579 198 577 198 q 581 197 580 198 q 582 193 582 196 q 580 180 582 189 q 575 153 579 170 q 570 133 572 142 q 566 113 568 123 q 564 105 565 109 q 562 96 563 101 q 465 39 513 64 q 368 -1 416 14 q 278 -29 320 -21 q 202 -38 236 -38 q 132 -24 163 -38 q 82 14 102 -11 q 51 85 61 43 q 41 181 41 127 q 41 198 41 189 q 43 217 41 207 q 45 236 43 225 q 49 257 47 246 l 49 259 "}," ":{"x_min":0,"x_max":0,"ha":349},"%":{"x_min":37,"x_max":893,"ha":954,"o":"m 746 405 q 703 333 723 369 q 665 260 683 298 q 632 183 647 223 q 605 104 618 144 q 685 142 650 120 q 747 192 721 165 q 786 251 773 222 q 799 310 799 280 q 796 335 799 323 q 786 359 793 348 q 768 383 779 371 q 746 403 758 394 l 746 405 m 735 451 l 754 469 q 818 432 791 451 q 859 392 844 413 q 884 346 876 371 q 893 292 893 321 q 890 215 893 248 q 881 163 887 183 q 865 125 876 142 q 840 92 855 108 q 791 50 818 70 q 732 13 764 31 q 676 -8 701 0 q 636 -17 651 -17 q 591 -3 614 -17 q 548 38 569 9 q 517 96 527 67 q 507 153 507 126 q 518 256 507 205 q 551 355 529 306 q 602 442 573 405 q 665 501 630 479 q 685 492 676 497 q 703 480 694 487 q 711 474 707 477 q 719 466 715 470 q 726 458 722 462 q 735 449 730 453 l 735 451 m 267 828 l 285 846 q 349 807 321 826 q 391 769 376 789 q 416 725 408 750 q 424 670 424 700 q 422 593 424 626 q 413 540 419 559 q 398 502 408 520 q 373 469 388 484 q 323 427 351 447 q 263 391 295 408 q 207 366 231 374 q 166 358 182 358 q 121 372 144 358 q 78 416 99 387 q 47 474 57 445 q 37 531 37 503 q 48 634 37 584 q 81 733 59 684 q 132 818 103 781 q 195 877 160 855 q 215 868 206 873 q 234 857 224 864 q 251 843 242 851 q 267 826 259 835 l 267 828 m 276 783 q 233 712 253 748 q 195 638 213 676 q 163 560 178 599 q 135 480 148 520 q 214 519 180 497 q 276 569 249 541 q 316 627 303 598 q 329 687 329 657 q 325 712 329 700 q 315 737 322 725 q 299 761 309 750 q 276 782 288 772 l 276 783 m 694 867 l 746 867 l 758 879 l 834 879 l 259 47 q 256 41 258 43 q 255 37 255 38 q 252 34 253 36 q 249 32 250 33 q 247 31 248 32 q 245 29 246 30 q 241 28 243 29 q 236 27 239 27 l 214 27 l 167 -17 l 125 -17 l 694 867 l 694 867 "},"P":{"x_min":26,"x_max":779,"ha":810,"o":"m 281 425 q 378 447 334 435 q 458 474 421 460 q 521 502 494 488 q 566 529 548 515 q 514 569 541 550 q 456 604 487 588 q 394 637 426 622 q 326 665 362 652 l 281 425 l 281 425 m 315 671 q 217 699 267 686 q 114 720 167 711 q 98 720 105 720 q 90 722 92 721 q 83 727 87 725 q 77 732 80 729 q 72 738 74 735 q 67 745 70 740 q 52 785 59 764 q 38 831 45 807 q 29 870 32 854 q 26 893 26 886 q 26 894 26 893 q 27 895 26 895 q 29 897 27 896 q 34 898 31 898 q 48 899 39 899 q 67 899 56 899 q 201 893 137 899 q 328 875 266 887 q 448 844 390 862 q 560 803 506 826 q 647 722 608 768 q 716 618 685 676 q 763 507 748 560 q 779 405 779 455 q 744 323 779 362 q 642 251 710 283 q 484 198 574 219 q 281 177 394 177 l 251 208 l 213 42 l 251 4 l 235 -32 q 217 -40 227 -35 q 194 -50 206 -45 q 130 -74 152 -66 q 105 -83 107 -83 q 101 -80 103 -83 q 100 -76 100 -78 q 97 -68 98 -74 q 97 -56 97 -63 q 97 -56 97 -56 q 97 -56 97 -56 q 97 -55 97 -55 q 101 -55 98 -55 q 101 -46 101 -50 q 101 -39 101 -42 q 101 44 101 3 q 101 124 101 85 q 105 196 101 163 q 112 258 109 229 q 96 274 106 261 q 73 308 85 286 q 53 344 59 332 q 47 361 47 357 q 48 364 47 362 q 51 367 49 365 q 53 367 52 367 q 56 370 55 368 q 60 372 58 371 q 63 373 62 373 l 137 392 q 141 422 139 407 q 146 450 144 436 q 151 477 149 464 q 156 500 153 489 q 167 542 162 522 q 176 577 171 561 q 216 611 196 596 q 253 639 235 627 q 287 659 273 651 q 315 670 302 667 l 315 671 "},"À":{"x_min":-25,"x_max":686.28125,"ha":739,"o":"m 206 382 l 396 416 q 396 498 396 456 q 389 580 396 540 q 382 661 389 620 q 369 744 376 702 q 323 650 347 702 q 271 534 299 597 q 229 433 245 472 q 206 381 212 395 l 206 382 m 343 829 l 336 873 q 335 875 336 873 q 335 877 335 876 q 334 879 335 877 q 333 882 333 880 q 333 886 333 884 q 333 889 333 887 q 347 897 333 891 q 392 908 362 903 q 450 918 421 915 q 509 922 479 922 q 517 921 514 922 q 522 917 521 920 q 525 915 523 916 q 528 912 526 913 q 529 908 528 910 q 532 904 530 906 l 576 904 q 579 904 578 904 q 582 904 581 904 q 585 903 583 904 q 587 903 586 903 q 592 900 590 901 q 594 897 593 900 l 607 880 q 618 854 612 873 q 623 800 623 834 q 623 723 623 765 q 623 629 623 680 q 623 592 623 615 q 621 537 623 569 q 621 483 621 506 q 618 442 621 459 l 666 450 l 674 450 q 677 447 676 448 q 678 447 678 447 q 682 446 681 447 q 683 444 683 445 q 685 440 684 442 q 686 431 686 437 q 682 374 686 401 q 672 327 679 348 q 657 296 665 306 q 637 286 648 286 l 634 287 q 622 268 629 276 q 608 253 615 260 q 596 242 603 248 q 581 228 589 235 q 580 223 581 227 q 578 212 579 219 q 567 143 572 173 q 557 93 561 113 l 439 24 l 430 -29 l 389 -49 q 388 -49 389 -49 q 388 -50 388 -49 q 385 -50 386 -50 q 385 -50 385 -50 q 384 -50 385 -50 q 382 -52 383 -50 q 381 -52 382 -52 q 379 -52 381 -52 q 377 -52 378 -52 q 377 -50 377 -52 q 377 -50 377 -50 q 377 -50 377 -50 q 375 -50 375 -50 q 375 -50 375 -50 q 376 -46 375 -48 q 378 -39 377 -43 q 389 40 385 -2 q 393 132 393 82 q 393 161 393 149 q 392 180 393 173 q 392 193 392 187 q 390 201 392 199 q 324 201 356 201 q 259 201 291 201 q 200 201 229 201 q 143 201 171 201 q 111 121 126 162 q 84 39 97 81 q 61 -20 70 0 q 47 -41 52 -41 l 44 -41 l 29 -80 q 24 -80 27 -80 q 15 -80 20 -80 q 10 -80 12 -80 q 6 -81 8 -80 q 2 -81 4 -81 q 0 -81 1 -81 q -3 -81 -1 -81 q -8 -80 -5 -81 q -12 -79 -9 -80 q -16 -78 -15 -78 q -19 -77 -18 -78 q -21 -75 -21 -76 q -24 -73 -23 -73 q -25 -69 -25 -72 q -20 -40 -25 -62 q -5 17 -15 -18 q 13 101 1 56 q 40 199 26 146 q 23 221 30 210 q 11 238 16 231 q 4 254 6 246 q 0 269 1 262 q -8 288 -4 279 q -15 306 -12 297 q -20 326 -18 317 q -22 342 -22 334 q -20 348 -22 345 q -15 352 -18 350 q -9 354 -14 353 q 0 355 -4 355 l 83 366 q 117 483 98 421 q 158 608 136 544 q 193 709 180 673 q 207 751 206 744 l 218 759 q 301 806 270 789 q 343 827 333 823 l 343 829 m 546 978 q 502 1000 528 987 q 445 1030 477 1013 q 296 1117 345 1082 q 247 1170 247 1152 q 256 1184 247 1174 q 283 1208 265 1194 q 313 1229 302 1222 q 326 1236 323 1236 q 359 1214 332 1236 q 436 1148 386 1192 q 538 1064 487 1105 q 640 987 589 1024 q 635 987 638 987 q 629 987 631 987 q 623 987 627 987 q 612 987 619 987 q 593 987 602 987 q 576 985 584 987 q 560 982 568 984 q 546 977 553 980 l 546 978 "},"_":{"x_min":0,"x_max":694.453125,"ha":695,"o":"m 0 -188 l 694 -188 l 694 -326 l 0 -326 l 0 -188 l 0 -188 "},"ñ":{"x_min":17,"x_max":601,"ha":641,"o":"m 297 242 l 141 59 l 27 59 q 22 59 24 59 q 19 61 20 60 q 17 65 18 63 q 17 68 17 67 q 17 70 17 70 q 17 72 17 71 q 18 76 18 75 q 18 78 18 77 l 57 304 q 58 310 57 305 q 61 321 59 315 q 71 379 68 357 q 75 410 75 401 q 72 425 75 419 q 63 436 69 432 q 56 444 58 440 q 54 454 54 448 q 55 464 54 457 q 61 480 57 471 q 70 503 65 491 q 81 529 75 515 q 106 540 94 536 q 129 546 118 544 q 151 549 140 549 q 173 549 162 549 q 209 544 194 549 q 232 528 223 539 q 245 497 241 517 q 250 450 250 478 q 250 437 250 443 q 250 425 250 430 q 248 414 248 419 q 248 403 248 408 q 247 392 248 397 q 247 382 247 387 q 246 373 247 378 q 246 364 246 368 q 301 381 274 373 q 351 393 327 389 q 396 400 375 398 q 436 403 417 403 q 486 398 466 403 q 516 386 505 394 q 533 361 527 378 q 540 319 540 344 q 540 266 540 298 q 531 189 540 233 q 531 112 531 146 q 531 54 531 78 q 531 42 531 47 q 532 35 531 38 q 537 30 534 32 q 545 26 540 28 l 542 7 q 499 -11 520 -2 q 459 -27 478 -20 q 425 -37 440 -34 q 402 -40 410 -40 q 367 -28 383 -40 q 341 4 352 -17 q 320 87 331 28 q 297 240 309 147 l 297 242 m 601 828 q 577 742 591 778 q 546 682 563 705 q 507 646 528 658 q 459 635 485 635 q 429 644 449 635 q 379 673 409 654 q 324 709 349 693 q 279 735 299 725 q 256 714 268 725 q 233 690 244 703 q 213 664 223 678 q 193 635 202 650 l 155 648 l 161 662 l 136 671 q 159 711 145 690 q 190 753 172 732 q 218 785 208 772 q 229 803 227 797 q 251 813 240 808 q 275 820 262 817 q 297 824 287 822 q 316 827 308 827 q 354 817 331 827 q 408 788 377 807 q 464 754 440 768 q 507 732 489 740 q 519 749 512 739 q 532 772 525 760 q 551 801 542 792 q 569 811 560 810 q 576 818 573 815 q 582 822 580 821 q 590 826 585 825 q 601 827 595 827 l 601 828 "},"+":{"x_min":172,"x_max":983.109375,"ha":1157,"o":"m 509 828 l 646 828 l 646 482 l 983 482 l 983 347 l 646 347 l 646 0 l 509 0 l 509 347 l 172 347 l 172 482 l 509 482 l 509 828 l 509 828 "},"½":{"x_min":102.5,"x_max":1063,"ha":1114,"o":"m 699 337 l 750 482 q 763 482 756 482 q 777 485 770 483 q 784 485 781 485 q 792 487 788 485 q 801 487 796 487 q 810 487 806 487 q 864 484 838 487 q 914 475 889 481 q 962 462 939 470 q 1003 447 984 455 q 1031 427 1019 437 q 1049 407 1042 418 q 1059 381 1056 396 q 1063 347 1063 367 q 1063 327 1063 337 q 1062 305 1063 317 q 1061 299 1062 303 q 1059 292 1060 296 q 1057 280 1057 286 q 1053 267 1056 274 q 1022 238 1039 253 q 987 210 1005 224 q 946 181 967 196 q 903 153 925 167 q 834 106 857 123 q 812 82 812 89 q 824 65 812 73 q 860 48 837 57 q 912 36 885 40 q 970 32 939 32 q 978 32 974 32 q 987 34 982 32 q 993 34 989 34 q 998 34 996 34 q 1002 34 1000 34 q 1007 35 1005 34 q 1012 35 1009 35 q 1016 35 1014 35 q 1022 33 1018 35 q 1028 29 1025 32 q 1034 23 1031 28 q 1042 14 1038 19 q 1016 3 1032 8 q 980 -2 1000 -2 q 939 -8 960 -8 q 895 -8 917 -8 q 818 -2 852 -8 q 760 14 785 3 q 723 41 735 25 q 712 80 712 58 q 724 120 712 96 q 762 172 737 143 q 827 240 788 203 q 918 322 866 278 q 881 337 899 330 q 848 347 863 343 q 816 353 831 351 q 788 356 802 356 q 766 354 777 356 q 746 349 756 353 q 730 341 737 346 q 717 329 723 336 l 699 337 l 699 337 m 762 867 l 813 867 l 830 879 l 902 879 l 364 47 q 359 37 362 40 q 353 32 356 35 q 347 29 351 30 q 341 28 344 28 l 319 28 l 270 -16 l 208 -16 l 762 867 l 762 867 m 121 346 q 131 396 126 362 q 142 477 137 429 q 155 585 149 527 q 169 711 162 643 l 166 710 q 137 681 149 693 q 117 663 124 670 l 102 677 q 120 720 110 697 q 140 765 130 743 q 163 813 151 789 q 190 861 176 836 l 223 868 l 333 832 q 336 818 335 825 q 338 804 337 811 q 340 786 340 796 q 340 763 340 777 q 340 744 340 753 q 338 727 340 735 q 336 718 337 722 q 334 710 335 714 q 331 700 333 704 q 328 692 330 696 l 251 440 q 219 416 234 429 q 191 390 205 404 q 166 362 177 376 q 144 333 155 349 l 121 346 l 121 346 "},"Æ":{"x_min":-25,"x_max":1042,"ha":1048,"o":"m 416 691 l 329 683 q 299 617 316 654 q 263 533 283 581 q 229 453 244 486 q 205 401 214 421 l 416 439 l 416 461 l 416 536 l 416 580 l 416 691 l 416 691 m 626 663 q 626 652 626 657 q 628 643 626 647 q 628 635 628 639 q 628 626 628 631 q 628 618 628 622 q 628 608 628 614 q 628 599 628 604 q 628 589 628 594 q 628 571 628 581 q 626 550 628 561 q 625 535 626 543 q 624 517 625 526 q 623 508 624 512 q 622 499 622 503 q 663 499 646 499 q 691 499 680 499 q 714 499 702 499 q 736 499 726 499 q 821 494 781 499 q 895 479 860 490 q 947 460 930 469 q 964 440 964 450 q 964 439 964 440 q 964 436 964 439 q 963 435 964 436 q 962 435 962 435 q 962 434 962 435 q 962 433 962 433 q 961 433 962 433 q 960 432 960 432 l 941 355 q 831 325 891 344 q 698 276 770 306 q 675 267 684 271 q 661 261 666 264 q 647 233 654 244 q 633 215 640 222 q 620 206 627 209 q 602 203 612 203 q 599 203 601 203 q 597 204 598 203 q 593 204 594 204 q 590 204 591 204 q 586 205 588 204 q 583 206 584 206 q 579 206 580 206 q 575 207 577 207 q 573 199 573 204 q 571 190 572 194 q 570 187 571 189 q 569 182 569 184 q 568 169 568 176 q 568 153 568 161 q 569 134 568 141 q 572 123 570 126 q 581 119 575 121 q 597 117 587 117 q 661 123 626 117 q 734 139 695 129 q 809 164 773 150 q 878 197 845 179 l 891 184 q 864 155 877 169 q 841 126 852 141 q 824 96 831 112 q 809 59 816 79 q 726 28 763 41 q 659 8 688 15 q 602 -1 629 1 q 550 -4 575 -4 q 522 -2 536 -4 q 495 0 508 -1 q 468 10 483 4 q 437 26 454 16 l 430 -10 l 389 -29 q 387 -31 387 -30 q 384 -32 386 -32 q 382 -32 383 -32 q 379 -32 382 -32 q 377 -32 377 -32 q 376 -32 376 -32 q 376 -32 376 -32 q 376 -32 376 -32 q 375 -31 375 -32 q 375 -30 375 -30 q 375 -26 375 -29 q 377 -20 376 -24 q 388 59 384 15 q 393 150 393 103 q 393 179 393 166 q 392 198 393 191 q 392 213 392 206 q 390 220 392 220 q 323 220 355 220 q 259 220 291 220 q 199 220 228 220 q 142 220 171 220 q 111 141 126 182 q 84 58 97 100 q 61 -2 70 17 q 47 -23 52 -23 l 44 -23 l 29 -60 l 0 -60 q -8 -60 -4 -60 q -16 -58 -12 -60 q -21 -56 -19 -57 q -25 -53 -23 -55 q -20 -22 -25 -44 q -5 36 -15 0 q 13 120 1 75 q 40 218 26 165 q 23 240 30 229 q 11 258 16 250 q 4 273 6 265 q 0 287 1 281 q -2 294 0 290 q -5 300 -4 297 q -10 312 -8 306 q -15 325 -13 318 q -19 344 -17 336 q -22 361 -22 353 q -20 367 -22 364 q -16 371 -19 369 q -9 373 -13 372 q 0 374 -5 374 l 83 383 q 99 442 90 410 q 119 514 108 475 q 145 596 131 553 q 176 686 159 639 q 175 688 176 687 q 174 690 174 689 q 171 695 172 693 q 168 698 169 697 q 165 705 166 701 q 165 712 165 708 q 174 751 165 733 q 201 782 183 768 q 251 808 220 796 q 326 831 283 820 l 413 852 l 408 896 q 408 895 408 894 q 407 897 408 896 q 407 899 407 899 q 407 900 407 900 q 406 901 406 901 q 406 901 406 901 q 416 910 406 906 q 444 921 426 915 q 482 928 464 926 q 519 931 501 931 q 534 930 527 931 q 543 926 540 929 q 547 919 545 925 q 549 903 548 914 l 588 903 l 597 885 q 661 891 630 888 q 719 894 693 894 q 770 896 747 896 q 813 896 794 896 q 888 896 852 896 q 957 888 924 896 q 1012 877 993 882 q 1036 867 1030 871 q 1038 863 1037 866 q 1040 853 1039 860 q 1042 838 1042 848 q 1042 814 1042 828 q 1042 804 1042 809 q 1042 796 1042 799 q 1039 790 1040 793 q 1037 783 1039 786 l 987 694 q 869 685 956 685 q 637 663 781 685 l 626 663 l 626 663 "}}}
